<?xml version="1.0" encoding="us-ascii" standalone="no"?><svg xmlns="http://www.w3.org/2000/svg" xmlns:xlink="http://www.w3.org/1999/xlink" contentStyleType="text/css" height="838.8px" preserveAspectRatio="none" style="width:1803px;height:838px;background:#FFFFFF;" version="1.1" viewBox="0 0 1803 838" width="1803.15px" zoomAndPan="magnify"><defs/><g><rect fill="#FFA500" height="48.1992" rx="5.625" ry="5.625" style="stroke:#181818;stroke-width:0.675;" width="275.85" x="763.3125" y="4.5"/><text fill="#000000" font-family="sans-serif" font-size="18" lengthAdjust="spacing" textLength="248.85" x="776.8125" y="35.4023">sphinx_needs_data_explorer</text><rect fill="#90EE90" height="48.1992" rx="5.625" ry="5.625" style="stroke:#181818;stroke-width:0.675;" width="87.3" x="471.2625" y="113.4492"/><a href="https://www.sphinx-doc.org/en/master/" target="_top" title="https://www.sphinx-doc.org/en/master/" xlink:actuate="onRequest" xlink:href="https://www.sphinx-doc.org/en/master/" xlink:show="new" xlink:title="https://www.sphinx-doc.org/en/master/" xlink:type="simple"><text fill="#0000FF" font-family="sans-serif" font-size="18" lengthAdjust="spacing" text-decoration="underline" textLength="60.3" x="484.7625" y="144.3516">Sphinx</text></a><rect fill="#F1F1F1" height="69.3984" rx="5.625" ry="5.625" style="stroke:#181818;stroke-width:0.675;" width="112.95" x="458.4375" y="222.3984"/><text fill="#000000" font-family="sans-serif" font-size="18" lengthAdjust="spacing" textLength="60.3" x="484.7625" y="253.3008">Sphinx</text><text fill="#000000" font-family="sans-serif" font-size="18" lengthAdjust="spacing" textLength="85.95" x="471.9375" y="274.5">Extension</text><rect fill="#87CEFA" height="48.1992" rx="5.625" ry="5.625" style="stroke:#181818;stroke-width:0.675;" width="161.1" x="33.75" y="352.5469"/><text fill="#000000" font-family="sans-serif" font-size="18" lengthAdjust="spacing" textLength="134.1" x="47.25" y="383.4492">Documentation</text><path d="M514.9125,291.7969 L514.9125,293.1469 C514.9125,296.2969 114.3,348.0469 114.3,351.1969 L114.3,352.5469 " fill="none" style="stroke:#181818;stroke-width:0.45;"/><rect fill="#87CEFA" height="90.5977" rx="5.625" ry="5.625" style="stroke:#181818;stroke-width:0.675;" width="137.7" x="253.35" y="352.5469"/><text fill="#000000" font-family="sans-serif" font-size="18" lengthAdjust="spacing" textLength="101.25" x="271.575" y="383.4492">Automotive</text><text fill="#000000" font-family="sans-serif" font-size="18" lengthAdjust="spacing" textLength="110.7" x="266.85" y="404.6484">Requirement</text><text fill="#000000" font-family="sans-serif" font-size="18" lengthAdjust="spacing" textLength="100.8" x="271.8" y="425.8477">Traceability</text><path d="M514.9125,291.7969 L514.9125,293.1469 C514.9125,296.2969 322.2,348.0469 322.2,351.1969 L322.2,352.5469 " fill="none" style="stroke:#181818;stroke-width:0.45;"/><rect fill="#87CEFA" height="90.5977" rx="5.625" ry="5.625" style="stroke:#181818;stroke-width:0.675;" width="157.05" x="449.55" y="352.5469"/><text fill="#000000" font-family="sans-serif" font-size="18" lengthAdjust="spacing" textLength="90.9" x="482.625" y="383.4492">Interactive</text><text fill="#000000" font-family="sans-serif" font-size="18" lengthAdjust="spacing" textLength="98.1" x="479.025" y="404.6484">Web-based</text><text fill="#000000" font-family="sans-serif" font-size="18" lengthAdjust="spacing" textLength="85.05" x="463.05" y="425.8477">Analytical</text><text fill="#000000" font-family="sans-serif" font-size="18" lengthAdjust="spacing" textLength="5.85" x="548.1" y="425.8477">&#160;</text><text fill="#000000" font-family="sans-serif" font-size="18" lengthAdjust="spacing" textLength="39.15" x="553.95" y="425.8477">Tool</text><rect fill="#F1F1F1" height="48.1992" rx="5.625" ry="5.625" style="stroke:#181818;stroke-width:0.675;" width="76.05" x="220.05" y="503.8945"/><text fill="#000000" font-family="sans-serif" font-size="18" lengthAdjust="spacing" textLength="49.05" x="233.55" y="534.7969">HTML</text><path d="M528.075,443.1445 L528.075,444.4945 C528.075,447.6445 258.075,499.3945 258.075,502.5445 L258.075,503.8945 " fill="none" style="stroke:#181818;stroke-width:0.45;"/><rect fill="#F1F1F1" height="48.1992" rx="5.625" ry="5.625" style="stroke:#181818;stroke-width:0.675;" width="59.4" x="354.6" y="503.8945"/><text fill="#000000" font-family="sans-serif" font-size="18" lengthAdjust="spacing" textLength="32.4" x="368.1" y="534.7969">CSS</text><path d="M528.075,443.1445 L528.075,444.4945 C528.075,447.6445 384.3,499.3945 384.3,502.5445 L384.3,503.8945 " fill="none" style="stroke:#181818;stroke-width:0.45;"/><rect fill="#FFFF00" height="48.1992" rx="5.625" ry="5.625" style="stroke:#181818;stroke-width:0.675;" width="111.15" x="472.5" y="503.8945"/><text fill="#000000" font-family="sans-serif" font-size="18" lengthAdjust="spacing" textLength="84.15" x="486" y="534.7969">JavaScript</text><rect fill="#F1F1F1" height="48.1992" rx="5.625" ry="5.625" style="stroke:#181818;stroke-width:0.675;" width="65.25" x="98.1" y="612.8438"/><a href="https://visjs.org" target="_top" title="https://visjs.org" xlink:actuate="onRequest" xlink:href="https://visjs.org" xlink:show="new" xlink:title="https://visjs.org" xlink:type="simple"><text fill="#0000FF" font-family="sans-serif" font-size="18" lengthAdjust="spacing" text-decoration="underline" textLength="38.25" x="111.6" y="643.7461">visjs</text></a><rect fill="#F1F1F1" height="111.7969" rx="5.625" ry="5.625" style="stroke:#181818;stroke-width:0.675;" width="141.3" x="60.075" y="721.793"/><text fill="#000000" font-family="sans-serif" font-size="18" lengthAdjust="spacing" textLength="75.15" x="74.025" y="752.6953">Dynamic</text><text fill="#000000" font-family="sans-serif" font-size="18" lengthAdjust="spacing" textLength="5.85" x="149.175" y="752.6953">&#160;</text><text fill="#000000" font-family="sans-serif" font-size="18" lengthAdjust="spacing" textLength="32.4" x="155.025" y="752.6953">and</text><text fill="#000000" font-family="sans-serif" font-size="18" lengthAdjust="spacing" textLength="90.9" x="85.275" y="773.8945">interactive</text><text fill="#000000" font-family="sans-serif" font-size="18" lengthAdjust="spacing" textLength="37.8" x="73.575" y="795.0938">data</text><text fill="#000000" font-family="sans-serif" font-size="18" lengthAdjust="spacing" textLength="5.85" x="111.375" y="795.0938">&#160;</text><text fill="#000000" font-family="sans-serif" font-size="18" lengthAdjust="spacing" textLength="70.65" x="117.225" y="795.0938">network</text><text fill="#000000" font-family="sans-serif" font-size="18" lengthAdjust="spacing" textLength="110.7" x="75.375" y="816.293">visualization</text><path d="M130.725,661.043 L130.725,662.393 C130.725,665.543 130.725,717.293 130.725,720.443 L130.725,721.793 " fill="none" style="stroke:#181818;stroke-width:0.45;"/><path d="M528.075,552.0938 L528.075,553.4438 C528.075,556.5938 130.725,608.3438 130.725,611.4938 L130.725,612.8438 " fill="none" style="stroke:#181818;stroke-width:0.45;"/><rect fill="#F1F1F1" height="48.1992" rx="5.625" ry="5.625" style="stroke:#181818;stroke-width:0.675;" width="73.8" x="293.4" y="612.8438"/><a href="https://github.com/peggyjs/peggy" target="_top" title="https://github.com/peggyjs/peggy" xlink:actuate="onRequest" xlink:href="https://github.com/peggyjs/peggy" xlink:show="new" xlink:title="https://github.com/peggyjs/peggy" xlink:type="simple"><text fill="#0000FF" font-family="sans-serif" font-size="18" lengthAdjust="spacing" text-decoration="underline" textLength="46.8" x="306.9" y="643.7461">pegjs</text></a><rect fill="#F1F1F1" height="111.7969" rx="5.625" ry="5.625" style="stroke:#181818;stroke-width:0.675;" width="140.85" x="259.875" y="721.793"/><text fill="#000000" font-family="sans-serif" font-size="18" lengthAdjust="spacing" textLength="75.6" x="273.375" y="752.6953">Powerful</text><text fill="#000000" font-family="sans-serif" font-size="18" lengthAdjust="spacing" textLength="5.85" x="348.975" y="752.6953">&#160;</text><text fill="#000000" font-family="sans-serif" font-size="18" lengthAdjust="spacing" textLength="32.4" x="354.825" y="752.6953">and</text><text fill="#000000" font-family="sans-serif" font-size="18" lengthAdjust="spacing" textLength="65.25" x="297.675" y="773.8945">flexible</text><text fill="#000000" font-family="sans-serif" font-size="18" lengthAdjust="spacing" textLength="54.45" x="303.075" y="795.0938">parser</text><text fill="#000000" font-family="sans-serif" font-size="18" lengthAdjust="spacing" textLength="84.6" x="288" y="816.293">generator</text><path d="M330.3,661.043 L330.3,662.393 C330.3,665.543 330.3,717.293 330.3,720.443 L330.3,721.793 " fill="none" style="stroke:#181818;stroke-width:0.45;"/><path d="M528.075,552.0938 L528.075,553.4438 C528.075,556.5938 330.3,608.3438 330.3,611.4938 L330.3,612.8438 " fill="none" style="stroke:#181818;stroke-width:0.45;"/><rect fill="#F1F1F1" height="48.1992" rx="5.625" ry="5.625" style="stroke:#181818;stroke-width:0.675;" width="88.2" x="491.175" y="612.8438"/><a href="https://github.com/select2/select2" target="_top" title="https://github.com/select2/select2" xlink:actuate="onRequest" xlink:href="https://github.com/select2/select2" xlink:show="new" xlink:title="https://github.com/select2/select2" xlink:type="simple"><text fill="#0000FF" font-family="sans-serif" font-size="18" lengthAdjust="spacing" text-decoration="underline" textLength="61.2" x="504.675" y="643.7461">select2</text></a><rect fill="#F1F1F1" height="111.7969" rx="5.625" ry="5.625" style="stroke:#181818;stroke-width:0.675;" width="152.1" x="459.225" y="721.793"/><text fill="#000000" font-family="sans-serif" font-size="18" lengthAdjust="spacing" textLength="59.85" x="489.825" y="752.6953">Library</text><text fill="#000000" font-family="sans-serif" font-size="18" lengthAdjust="spacing" textLength="5.85" x="549.675" y="752.6953">&#160;</text><text fill="#000000" font-family="sans-serif" font-size="18" lengthAdjust="spacing" textLength="25.2" x="555.525" y="752.6953">for</text><text fill="#000000" font-family="sans-serif" font-size="18" lengthAdjust="spacing" textLength="70.65" x="499.95" y="773.8945">creating</text><text fill="#000000" font-family="sans-serif" font-size="18" lengthAdjust="spacing" textLength="32.4" x="472.725" y="795.0938">and</text><text fill="#000000" font-family="sans-serif" font-size="18" lengthAdjust="spacing" textLength="5.85" x="505.125" y="795.0938">&#160;</text><text fill="#000000" font-family="sans-serif" font-size="18" lengthAdjust="spacing" textLength="86.85" x="510.975" y="795.0938">managing</text><text fill="#000000" font-family="sans-serif" font-size="18" lengthAdjust="spacing" textLength="37.35" x="490.725" y="816.293">user</text><text fill="#000000" font-family="sans-serif" font-size="18" lengthAdjust="spacing" textLength="5.85" x="528.075" y="816.293">&#160;</text><text fill="#000000" font-family="sans-serif" font-size="18" lengthAdjust="spacing" textLength="45.9" x="533.925" y="816.293">input</text><path d="M535.275,661.043 L535.275,662.393 C535.275,665.543 535.275,717.293 535.275,720.443 L535.275,721.793 " fill="none" style="stroke:#181818;stroke-width:0.45;"/><path d="M528.075,552.0938 L528.075,553.4438 C528.075,556.5938 535.275,608.3438 535.275,611.4938 L535.275,612.8438 " fill="none" style="stroke:#181818;stroke-width:0.45;"/><rect fill="#F1F1F1" height="48.1992" rx="5.625" ry="5.625" style="stroke:#181818;stroke-width:0.675;" width="84.15" x="699.075" y="612.8438"/><a href="https://github.com/jquery/jquery" target="_top" title="https://github.com/jquery/jquery" xlink:actuate="onRequest" xlink:href="https://github.com/jquery/jquery" xlink:show="new" xlink:title="https://github.com/jquery/jquery" xlink:type="simple"><text fill="#0000FF" font-family="sans-serif" font-size="18" lengthAdjust="spacing" text-decoration="underline" textLength="57.15" x="712.575" y="643.7461">jQuery</text></a><rect fill="#F1F1F1" height="90.5977" rx="5.625" ry="5.625" style="stroke:#181818;stroke-width:0.675;" width="142.65" x="669.825" y="721.793"/><text fill="#000000" font-family="sans-serif" font-size="18" lengthAdjust="spacing" textLength="42.75" x="719.775" y="752.6953">DOM</text><text fill="#000000" font-family="sans-serif" font-size="18" lengthAdjust="spacing" textLength="115.65" x="683.325" y="773.8945">manipulation</text><text fill="#000000" font-family="sans-serif" font-size="18" lengthAdjust="spacing" textLength="55.8" x="713.25" y="795.0938">library</text><path d="M741.15,661.043 L741.15,662.393 C741.15,665.543 741.15,717.293 741.15,720.443 L741.15,721.793 " fill="none" style="stroke:#181818;stroke-width:0.45;"/><path d="M528.075,552.0938 L528.075,553.4438 C528.075,556.5938 741.15,608.3438 741.15,611.4938 L741.15,612.8438 " fill="none" style="stroke:#181818;stroke-width:0.45;"/><rect fill="#F1F1F1" height="48.1992" rx="5.625" ry="5.625" style="stroke:#181818;stroke-width:0.675;" width="123.75" x="871.65" y="612.8438"/><a href="https://github.com/DataTables/DataTablesSrc" target="_top" title="https://github.com/DataTables/DataTablesSrc" xlink:actuate="onRequest" xlink:href="https://github.com/DataTables/DataTablesSrc" xlink:show="new" xlink:title="https://github.com/DataTables/DataTablesSrc" xlink:type="simple"><text fill="#0000FF" font-family="sans-serif" font-size="18" lengthAdjust="spacing" text-decoration="underline" textLength="96.75" x="885.15" y="643.7461">DataTables</text></a><rect fill="#F1F1F1" height="90.5977" rx="5.625" ry="5.625" style="stroke:#181818;stroke-width:0.675;" width="125.1" x="870.975" y="721.793"/><text fill="#000000" font-family="sans-serif" font-size="18" lengthAdjust="spacing" textLength="49.05" x="884.475" y="752.6953">HTML</text><text fill="#000000" font-family="sans-serif" font-size="18" lengthAdjust="spacing" textLength="5.85" x="933.525" y="752.6953">&#160;</text><text fill="#000000" font-family="sans-serif" font-size="18" lengthAdjust="spacing" textLength="43.2" x="939.375" y="752.6953">table</text><text fill="#000000" font-family="sans-serif" font-size="18" lengthAdjust="spacing" textLength="90.45" x="888.3" y="773.8945">enhancing</text><text fill="#000000" font-family="sans-serif" font-size="18" lengthAdjust="spacing" textLength="55.8" x="905.625" y="795.0938">library</text><path d="M933.525,661.043 L933.525,662.393 C933.525,665.543 933.525,717.293 933.525,720.443 L933.525,721.793 " fill="none" style="stroke:#181818;stroke-width:0.45;"/><path d="M528.075,552.0938 L528.075,553.4438 C528.075,556.5938 933.525,608.3438 933.525,611.4938 L933.525,612.8438 " fill="none" style="stroke:#181818;stroke-width:0.45;"/><path d="M528.075,443.1445 L528.075,444.4945 C528.075,447.6445 528.075,499.3945 528.075,502.5445 L528.075,503.8945 " fill="none" style="stroke:#181818;stroke-width:0.45;"/><path d="M514.9125,291.7969 L514.9125,293.1469 C514.9125,296.2969 528.075,348.0469 528.075,351.1969 L528.075,352.5469 " fill="none" style="stroke:#181818;stroke-width:0.45;"/><rect fill="#87CEFA" height="90.5977" rx="5.625" ry="5.625" style="stroke:#181818;stroke-width:0.675;" width="151.2" x="665.1" y="352.5469"/><text fill="#000000" font-family="sans-serif" font-size="18" lengthAdjust="spacing" textLength="111.6" x="684.9" y="383.4492">Complement</text><text fill="#000000" font-family="sans-serif" font-size="18" lengthAdjust="spacing" textLength="18" x="731.7" y="404.6484">to</text><text fill="#000000" font-family="sans-serif" font-size="18" lengthAdjust="spacing" textLength="124.2" x="678.6" y="425.8477">Sphinx-Needs</text><path d="M514.9125,291.7969 L514.9125,293.1469 C514.9125,296.2969 740.7,348.0469 740.7,351.1969 L740.7,352.5469 " fill="none" style="stroke:#181818;stroke-width:0.45;"/><path d="M514.9125,161.6484 L514.9125,162.9984 C514.9125,166.1484 514.9125,217.8984 514.9125,221.0484 L514.9125,222.3984 " fill="none" style="stroke:#181818;stroke-width:0.45;"/><path d="M901.2375,52.6992 L901.2375,54.0492 C901.2375,57.1992 514.9125,108.9492 514.9125,112.0992 L514.9125,113.4492 " fill="none" style="stroke:#181818;stroke-width:0.45;"/><rect fill="#90EE90" height="90.5977" rx="5.625" ry="5.625" style="stroke:#181818;stroke-width:0.675;" width="137.7" x="1089.675" y="113.4492"/><text fill="#000000" font-family="sans-serif" font-size="18" lengthAdjust="spacing" textLength="46.35" x="1103.175" y="144.3516">Open</text><text fill="#000000" font-family="sans-serif" font-size="18" lengthAdjust="spacing" textLength="5.85" x="1149.525" y="144.3516">&#160;</text><text fill="#000000" font-family="sans-serif" font-size="18" lengthAdjust="spacing" textLength="58.5" x="1155.375" y="144.3516">Source</text><text fill="#000000" font-family="sans-serif" font-size="18" lengthAdjust="spacing" textLength="59.4" x="1128.825" y="165.5508">Project</text><text fill="#000000" font-family="sans-serif" font-size="18" lengthAdjust="spacing" textLength="76.5" x="1109.025" y="186.75">available</text><text fill="#000000" font-family="sans-serif" font-size="18" lengthAdjust="spacing" textLength="5.85" x="1185.525" y="186.75">&#160;</text><text fill="#000000" font-family="sans-serif" font-size="18" lengthAdjust="spacing" textLength="16.65" x="1191.375" y="186.75">in</text><rect fill="#F1F1F1" height="48.1992" rx="5.625" ry="5.625" style="stroke:#181818;stroke-width:0.675;" width="85.95" x="1054.575" y="264.7969"/><a href="https://github.com/mi-parkes/sphinx-needs-data-explorer" target="_top" title="https://github.com/mi-parkes/sphinx-needs-data-explorer" xlink:actuate="onRequest" xlink:href="https://github.com/mi-parkes/sphinx-needs-data-explorer" xlink:show="new" xlink:title="https://github.com/mi-parkes/sphinx-needs-data-explorer" xlink:type="simple"><text fill="#0000FF" font-family="sans-serif" font-size="18" lengthAdjust="spacing" text-decoration="underline" textLength="58.95" x="1068.075" y="295.6992">Github</text></a><path d="M1158.525,204.0469 L1158.525,205.3969 C1158.525,208.5469 1097.55,260.2969 1097.55,263.4469 L1097.55,264.7969 " fill="none" style="stroke:#181818;stroke-width:0.45;"/><rect fill="#F1F1F1" height="48.1992" rx="5.625" ry="5.625" style="stroke:#181818;stroke-width:0.675;" width="63.45" x="1199.025" y="264.7969"/><a href="https://pypi.org/project/sphinx-needs-data-explorer" target="_top" title="https://pypi.org/project/sphinx-needs-data-explorer" xlink:actuate="onRequest" xlink:href="https://pypi.org/project/sphinx-needs-data-explorer" xlink:show="new" xlink:title="https://pypi.org/project/sphinx-needs-data-explorer" xlink:type="simple"><text fill="#0000FF" font-family="sans-serif" font-size="18" lengthAdjust="spacing" text-decoration="underline" textLength="36.45" x="1212.525" y="295.6992">PYPI</text></a><path d="M1158.525,204.0469 L1158.525,205.3969 C1158.525,208.5469 1230.75,260.2969 1230.75,263.4469 L1230.75,264.7969 " fill="none" style="stroke:#181818;stroke-width:0.45;"/><path d="M901.2375,52.6992 L901.2375,54.0492 C901.2375,57.1992 1158.525,108.9492 1158.525,112.0992 L1158.525,113.4492 " fill="none" style="stroke:#181818;stroke-width:0.45;"/><rect fill="#90EE90" height="48.1992" rx="5.625" ry="5.625" style="stroke:#181818;stroke-width:0.675;" width="109.8" x="1489.95" y="113.4492"/><text fill="#000000" font-family="sans-serif" font-size="18" lengthAdjust="spacing" textLength="82.8" x="1503.45" y="144.3516">Platforms</text><rect fill="#F1F1F1" height="48.1992" rx="5.625" ry="5.625" style="stroke:#181818;stroke-width:0.675;" width="75.6" x="1320.975" y="222.3984"/><text fill="#000000" font-family="sans-serif" font-size="18" lengthAdjust="spacing" textLength="48.6" x="1334.475" y="253.3008">Linux</text><path d="M1544.85,161.6484 L1544.85,162.9984 C1544.85,166.1484 1358.775,217.8984 1358.775,221.0484 L1358.775,222.3984 " fill="none" style="stroke:#181818;stroke-width:0.45;"/><rect fill="#F1F1F1" height="48.1992" rx="5.625" ry="5.625" style="stroke:#181818;stroke-width:0.675;" width="108" x="1455.075" y="222.3984"/><text fill="#000000" font-family="sans-serif" font-size="18" lengthAdjust="spacing" textLength="34.2" x="1468.575" y="253.3008">Mac</text><text fill="#000000" font-family="sans-serif" font-size="18" lengthAdjust="spacing" textLength="5.85" x="1502.775" y="253.3008">&#160;</text><text fill="#000000" font-family="sans-serif" font-size="18" lengthAdjust="spacing" textLength="23.85" x="1508.625" y="253.3008">OS</text><text fill="#000000" font-family="sans-serif" font-size="18" lengthAdjust="spacing" textLength="5.85" x="1532.475" y="253.3008">&#160;</text><text fill="#000000" font-family="sans-serif" font-size="18" lengthAdjust="spacing" textLength="11.25" x="1538.325" y="253.3008">X</text><path d="M1544.85,161.6484 L1544.85,162.9984 C1544.85,166.1484 1509.075,217.8984 1509.075,221.0484 L1509.075,222.3984 " fill="none" style="stroke:#181818;stroke-width:0.45;"/><rect fill="#F1F1F1" height="48.1992" rx="5.625" ry="5.625" style="stroke:#181818;stroke-width:0.675;" width="147.15" x="1621.575" y="222.3984"/><text fill="#000000" font-family="sans-serif" font-size="18" lengthAdjust="spacing" textLength="77.4" x="1635.075" y="253.3008">Windows</text><text fill="#000000" font-family="sans-serif" font-size="18" lengthAdjust="spacing" textLength="5.85" x="1712.475" y="253.3008">&#160;</text><text fill="#000000" font-family="sans-serif" font-size="18" lengthAdjust="spacing" textLength="36.9" x="1718.325" y="253.3008">+10</text><path d="M1544.85,161.6484 L1544.85,162.9984 C1544.85,166.1484 1695.15,217.8984 1695.15,221.0484 L1695.15,222.3984 " fill="none" style="stroke:#181818;stroke-width:0.45;"/><path d="M901.2375,52.6992 L901.2375,54.0492 C901.2375,57.1992 1544.85,108.9492 1544.85,112.0992 L1544.85,113.4492 " fill="none" style="stroke:#181818;stroke-width:0.45;"/><!--SRC=[xLTjKnit4Fv-ls89T02tnc_0T3p016pIGktWSave1ZoCh5lEmdVIHQVpIphzxrtfR7pGnDFffD_uSf9sL_ki7kskxBUfOTh4GWOnIo1DHaBExYLYaDu7pB1xd2MHqgWzRripEGw4FkvSWrG1ffWSrwiaJyT29aopU2c6W-eFHR7Tk1Ilf04-i2moxvGqllY2iFzCsywrVPoPqqY4CaPfWDF7XbBPzevICu_mn0DOnDuMBBGR_oIHprc4KAlIj2CajXGT0SuYniSaSL4wCm0B_fx52DTgg8noiXuB0Y53E72hBjEXa51pgssoosJGKbgYXbhDMQmGXai4EAD9g7DRgzdalD7WlBnPfP7n9-nSEnq9Wq- -V7img3wj-oF1nnBJ578yUr0bMRI8uY2tx0efuYo-4O4PGRsw4BBPI-5Vtb5bGTrsnLjFOv6f9IkDQf6MmvoaxMVejQ-XDrwYUqObO1GGxqPHDWYDt0WbASz4E39M5U63AIXITwlLlVq3RsDBAvMpT_ncyueIBCGtdhUHQCKno3J2LiojTcUB0gtzPB_rNU_8oPh3ACEJsrjmElUjms1mL77Q4sy3PV3aoFDAjokmmReAAPLkDoCRUwWHvG08OMHCaZOhbUbqkfVlB0UAxoaTLb1MOfPIEbV0TneAWLoKbglpcK6PsdEJa3nth6T_F3-Zu0VGLZop9S7CjonECw9L6J6XvCRF6R5exUzaNpEER2WYOUPVtNXXQunnj_C6X-KXIp6uawUKSdCZw0wWhrJajfRWrtwtivYsV3-VtMv-mYXIqm5SiWdpkHQ9oJMb8YSJaJwcbWfmiyNndLLxBbaiE30PW5Y5SoSjuI3HJ9KUssqPYyIN5GVF0K9XHjbmZwkuac0OpX_JV0JwFiVhgIdgXonoW0yHpiGm8ZJgH2bLM8XKPymelHuZnOWIjRuSOJaMS3fYg9cUmmCLFTT8WSlmJbhGc4aMslhAB28rmSoiHtlydA6UBmPu_DqDHGglkjQfIBB8yGDHZhtUQvluxJCwV5gO-fh3QbK4iRSFnee1vOX9RazG17gPMoqL9v5BH5lVUQQNtzjQ-aVrN2KemLUPvWWzhHw9Iw9gmaJay8IxyMyS8nPbkhindM9HTAvSopPxoijoXL-S_RBg2ewIUI9SYIOvx3edlK-zYzp5y-Xxn3hTSfnw-RtBREPcNSRXoeS_tEA6MgwQfl0ZlLJUM-ewYnvCYt_zAd-V1_KxlGF_iUCN6hjjjuj-_jfhNtljQwzzxRN_Tw-bxT9y878dg6qFWDfUlLflxDLgEpSOW4z_N6eD-lNSh1ys6mredVjzi0QxtaxteWzfJbiWKgF5CBFtl-lPOeJhJ1eHOzFHUzd-RIc0SpaHMhaEx5r-xAuC3lVBPy8GfAPOu6FNMpHjsi6LRRjD-D1_L_xPwr23p5X8lb5wBVgVOVISTFxV]--></g></svg>