<svg xmlns="http://www.w3.org/2000/svg" xmlns:xlink="http://www.w3.org/1999/xlink" contentStyleType="text/css" height="3710px" preserveAspectRatio="none" style="width:4031px;height:3710px;background:#FFFFFF;" version="1.1" viewBox="0 0 4031 3710" width="4031px" zoomAndPan="magnify"><defs/><g><rect fill="#FFA500" height="106.5625" rx="12.5" ry="12.5" style="stroke:#181818;stroke-width:1.5;" width="695.1563" x="10" y="1800.7813"/><text fill="#000000" font-family="sans-serif" font-size="40" font-weight="bold" lengthAdjust="spacing" textLength="635.1563" x="40" y="1867.9102">sphinx_needs_data_explorer</text><rect fill="#90EE90" height="106.5625" rx="12.5" ry="12.5" style="stroke:#181818;stroke-width:1.5;" width="227.832" x="865.1563" y="736.25"/><a href="https://www.sphinx-doc.org/en/master/" target="_top" title="https://www.sphinx-doc.org/en/master/" xlink:actuate="onRequest" xlink:href="https://www.sphinx-doc.org/en/master/" xlink:show="new" xlink:title="https://www.sphinx-doc.org/en/master/" xlink:type="simple"><text fill="#0000FF" font-family="sans-serif" font-size="40" font-weight="bold" lengthAdjust="spacing" text-decoration="underline" textLength="153.9063" x="895.1563" y="803.3789">Sphinx</text></a><rect fill="#F1F1F1" height="106.5625" rx="12.5" ry="12.5" style="stroke:#181818;stroke-width:1.5;" width="405.3516" x="1252.9883" y="736.25"/><text fill="#000000" font-family="sans-serif" font-size="40" lengthAdjust="spacing" textLength="345.3516" x="1282.9883" y="803.3789">Sphinx Extension</text><rect fill="#87CEFA" height="106.5625" rx="12.5" ry="12.5" style="stroke:#181818;stroke-width:1.5;" width="368.3594" x="1818.3398" y="75"/><text fill="#000000" font-family="sans-serif" font-size="40" lengthAdjust="spacing" textLength="308.3594" x="1848.3398" y="142.1289">Documentation</text><path d="M1658.3398,789.5313 L1668.3398,789.5313 C1683.3398,789.5313 1793.3398,128.2813 1808.3398,128.2813 L1818.3398,128.2813 " fill="none" style="stroke:#181818;stroke-width:1.0;"/><rect fill="#87CEFA" height="153.125" rx="12.5" ry="12.5" style="stroke:#181818;stroke-width:1.5;" width="564.0234" x="1818.3398" y="311.5625"/><text fill="#000000" font-family="sans-serif" font-size="40" lengthAdjust="spacing" textLength="504.0234" x="1848.3398" y="378.6914">Automotive Requirement</text><text fill="#000000" font-family="sans-serif" font-size="40" lengthAdjust="spacing" textLength="234.5898" x="1983.0566" y="425.2539">Traceability</text><path d="M1658.3398,789.5313 L1668.3398,789.5313 C1683.3398,789.5313 1793.3398,388.125 1808.3398,388.125 L1818.3398,388.125 " fill="none" style="stroke:#181818;stroke-width:1.0;"/><rect fill="#87CEFA" height="153.125" rx="12.5" ry="12.5" style="stroke:#181818;stroke-width:1.5;" width="512.9102" x="1818.3398" y="594.6875"/><text fill="#000000" font-family="sans-serif" font-size="40" lengthAdjust="spacing" textLength="452.9102" x="1848.3398" y="661.8164">Interactive Web-based</text><text fill="#000000" font-family="sans-serif" font-size="40" lengthAdjust="spacing" textLength="293.6328" x="1927.9785" y="708.3789">Analytical Tool</text><rect fill="#F1F1F1" height="106.5625" rx="12.5" ry="12.5" style="stroke:#181818;stroke-width:1.5;" width="171.3086" x="2491.25" y="144.8438"/><text fill="#000000" font-family="sans-serif" font-size="40" lengthAdjust="spacing" textLength="111.3086" x="2521.25" y="211.9727">HTML</text><path d="M2331.25,671.25 L2341.25,671.25 C2356.25,671.25 2466.25,198.125 2481.25,198.125 L2491.25,198.125 " fill="none" style="stroke:#181818;stroke-width:1.0;"/><rect fill="#F1F1F1" height="106.5625" rx="12.5" ry="12.5" style="stroke:#181818;stroke-width:1.5;" width="138.7109" x="2491.25" y="381.4063"/><text fill="#000000" font-family="sans-serif" font-size="40" lengthAdjust="spacing" textLength="78.7109" x="2521.25" y="448.5352">CSS</text><path d="M2331.25,671.25 L2341.25,671.25 C2356.25,671.25 2466.25,434.6875 2481.25,434.6875 L2491.25,434.6875 " fill="none" style="stroke:#181818;stroke-width:1.0;"/><rect fill="#FFFF00" height="106.5625" rx="12.5" ry="12.5" style="stroke:#181818;stroke-width:1.5;" width="260.5078" x="2491.25" y="617.9688"/><text fill="#000000" font-family="sans-serif" font-size="40" lengthAdjust="spacing" textLength="200.5078" x="2521.25" y="685.0977">JavaScript</text><rect fill="#F1F1F1" height="106.5625" rx="12.5" ry="12.5" style="stroke:#181818;stroke-width:1.5;" width="160.293" x="2911.7578" y="98.2813"/><a href="https://visjs.org" target="_top" title="https://visjs.org" xlink:actuate="onRequest" xlink:href="https://visjs.org" xlink:show="new" xlink:title="https://visjs.org" xlink:type="simple"><text fill="#0000FF" font-family="sans-serif" font-size="40" lengthAdjust="spacing" text-decoration="underline" textLength="87.5781" x="2941.7578" y="165.4102">visjs</text></a><rect fill="#F1F1F1" height="153.125" rx="12.5" ry="12.5" style="stroke:#181818;stroke-width:1.5;" width="587.8125" x="3232.0508" y="75"/><text fill="#000000" font-family="sans-serif" font-size="40" lengthAdjust="spacing" textLength="491.875" x="3280.0195" y="142.1289">Dynamic and interactive</text><text fill="#000000" font-family="sans-serif" font-size="40" lengthAdjust="spacing" textLength="527.8125" x="3262.0508" y="188.6914">data network visualization</text><path d="M3072.0508,151.5625 L3082.0508,151.5625 C3097.0508,151.5625 3207.0508,151.5625 3222.0508,151.5625 L3232.0508,151.5625 " fill="none" style="stroke:#181818;stroke-width:1.0;"/><path d="M2751.7578,671.25 L2761.7578,671.25 C2776.7578,671.25 2886.7578,151.5625 2901.7578,151.5625 L2911.7578,151.5625 " fill="none" style="stroke:#181818;stroke-width:1.0;"/><rect fill="#F1F1F1" height="106.5625" rx="12.5" ry="12.5" style="stroke:#181818;stroke-width:1.5;" width="180.0586" x="2911.7578" y="381.4063"/><a href="https://github.com/peggyjs/peggy" target="_top" title="https://github.com/peggyjs/peggy" xlink:actuate="onRequest" xlink:href="https://github.com/peggyjs/peggy" xlink:show="new" xlink:title="https://github.com/peggyjs/peggy" xlink:type="simple"><text fill="#0000FF" font-family="sans-serif" font-size="40" lengthAdjust="spacing" text-decoration="underline" textLength="107.3438" x="2941.7578" y="448.5352">pegjs</text></a><rect fill="#F1F1F1" height="153.125" rx="12.5" ry="12.5" style="stroke:#181818;stroke-width:1.5;" width="479.2969" x="3251.8164" y="358.125"/><text fill="#000000" font-family="sans-serif" font-size="40" lengthAdjust="spacing" textLength="419.2969" x="3281.8164" y="425.2539">Powerful and flexible</text><text fill="#000000" font-family="sans-serif" font-size="40" lengthAdjust="spacing" textLength="338.4766" x="3322.2266" y="471.8164">parser generator</text><path d="M3091.8164,434.6875 L3101.8164,434.6875 C3116.8164,434.6875 3226.8164,434.6875 3241.8164,434.6875 L3251.8164,434.6875 " fill="none" style="stroke:#181818;stroke-width:1.0;"/><path d="M2751.7578,671.25 L2761.7578,671.25 C2776.7578,671.25 2886.7578,434.6875 2901.7578,434.6875 L2911.7578,434.6875 " fill="none" style="stroke:#181818;stroke-width:1.0;"/><rect fill="#F1F1F1" height="106.5625" rx="12.5" ry="12.5" style="stroke:#181818;stroke-width:1.5;" width="217.0117" x="2911.7578" y="664.5313"/><a href="https://github.com/select2/select2" target="_top" title="https://github.com/select2/select2" xlink:actuate="onRequest" xlink:href="https://github.com/select2/select2" xlink:show="new" xlink:title="https://github.com/select2/select2" xlink:type="simple"><text fill="#0000FF" font-family="sans-serif" font-size="40" lengthAdjust="spacing" text-decoration="underline" textLength="144.2969" x="2941.7578" y="731.6602">select2</text></a><rect fill="#F1F1F1" height="153.125" rx="12.5" ry="12.5" style="stroke:#181818;stroke-width:1.5;" width="564.1211" x="3288.7695" y="641.25"/><text fill="#000000" font-family="sans-serif" font-size="40" lengthAdjust="spacing" textLength="385.3906" x="3378.1348" y="708.3789">Library for creating</text><text fill="#000000" font-family="sans-serif" font-size="40" lengthAdjust="spacing" textLength="504.1211" x="3318.7695" y="754.9414">and managing user input</text><path d="M3128.7695,717.8125 L3138.7695,717.8125 C3153.7695,717.8125 3263.7695,717.8125 3278.7695,717.8125 L3288.7695,717.8125 " fill="none" style="stroke:#181818;stroke-width:1.0;"/><path d="M2751.7578,671.25 L2761.7578,671.25 C2776.7578,671.25 2886.7578,717.8125 2901.7578,717.8125 L2911.7578,717.8125 " fill="none" style="stroke:#181818;stroke-width:1.0;"/><rect fill="#F1F1F1" height="106.5625" rx="12.5" ry="12.5" style="stroke:#181818;stroke-width:1.5;" width="205.3906" x="2911.7578" y="924.375"/><a href="https://github.com/jquery/jquery" target="_top" title="https://github.com/jquery/jquery" xlink:actuate="onRequest" xlink:href="https://github.com/jquery/jquery" xlink:show="new" xlink:title="https://github.com/jquery/jquery" xlink:type="simple"><text fill="#0000FF" font-family="sans-serif" font-size="40" lengthAdjust="spacing" text-decoration="underline" textLength="132.6758" x="2941.7578" y="991.5039">jQuery</text></a><rect fill="#F1F1F1" height="106.5625" rx="12.5" ry="12.5" style="stroke:#181818;stroke-width:1.5;" width="573.8477" x="3277.1484" y="924.375"/><text fill="#000000" font-family="sans-serif" font-size="40" lengthAdjust="spacing" textLength="513.8477" x="3307.1484" y="991.5039">DOM manipulation library</text><path d="M3117.1484,977.6563 L3127.1484,977.6563 C3142.1484,977.6563 3252.1484,977.6563 3267.1484,977.6563 L3277.1484,977.6563 " fill="none" style="stroke:#181818;stroke-width:1.0;"/><path d="M2751.7578,671.25 L2761.7578,671.25 C2776.7578,671.25 2886.7578,977.6563 2901.7578,977.6563 L2911.7578,977.6563 " fill="none" style="stroke:#181818;stroke-width:1.0;"/><rect fill="#F1F1F1" height="106.5625" rx="12.5" ry="12.5" style="stroke:#181818;stroke-width:1.5;" width="299.1211" x="2911.7578" y="1160.9375"/><a href="https://github.com/DataTables/DataTablesSrc" target="_top" title="https://github.com/DataTables/DataTablesSrc" xlink:actuate="onRequest" xlink:href="https://github.com/DataTables/DataTablesSrc" xlink:show="new" xlink:title="https://github.com/DataTables/DataTablesSrc" xlink:type="simple"><text fill="#0000FF" font-family="sans-serif" font-size="40" lengthAdjust="spacing" text-decoration="underline" textLength="226.4063" x="2941.7578" y="1228.0664">DataTables</text></a><rect fill="#F1F1F1" height="106.5625" rx="12.5" ry="12.5" style="stroke:#181818;stroke-width:1.5;" width="648.4766" x="3370.8789" y="1160.9375"/><text fill="#000000" font-family="sans-serif" font-size="40" lengthAdjust="spacing" textLength="588.4766" x="3400.8789" y="1228.0664">HTML table enhancing library</text><path d="M3210.8789,1214.2188 L3220.8789,1214.2188 C3235.8789,1214.2188 3345.8789,1214.2188 3360.8789,1214.2188 L3370.8789,1214.2188 " fill="none" style="stroke:#181818;stroke-width:1.0;"/><path d="M2751.7578,671.25 L2761.7578,671.25 C2776.7578,671.25 2886.7578,1214.2188 2901.7578,1214.2188 L2911.7578,1214.2188 " fill="none" style="stroke:#181818;stroke-width:1.0;"/><path d="M2331.25,671.25 L2341.25,671.25 C2356.25,671.25 2466.25,671.25 2481.25,671.25 L2491.25,671.25 " fill="none" style="stroke:#181818;stroke-width:1.0;"/><path d="M1658.3398,789.5313 L1668.3398,789.5313 C1683.3398,789.5313 1793.3398,671.25 1808.3398,671.25 L1818.3398,671.25 " fill="none" style="stroke:#181818;stroke-width:1.0;"/><rect fill="#87CEFA" height="106.5625" rx="12.5" ry="12.5" style="stroke:#181818;stroke-width:1.5;" width="707.2852" x="1818.3398" y="1397.5"/><text fill="#000000" font-family="sans-serif" font-size="40" lengthAdjust="spacing" textLength="309.9609" x="1848.3398" y="1464.6289">Complement to</text><a href="https://www.sphinx-needs.com" target="_top" title="https://www.sphinx-needs.com" xlink:actuate="onRequest" xlink:href="https://www.sphinx-needs.com" xlink:show="new" xlink:title="https://www.sphinx-needs.com" xlink:type="simple"><text fill="#0000FF" font-family="sans-serif" font-size="40" font-weight="bold" lengthAdjust="spacing" text-decoration="underline" textLength="310.6836" x="2171.0156" y="1464.6289">Sphinx-Needs</text></a><path d="M1658.3398,789.5313 L1668.3398,789.5313 C1683.3398,789.5313 1793.3398,1450.7813 1808.3398,1450.7813 L1818.3398,1450.7813 " fill="none" style="stroke:#181818;stroke-width:1.0;"/><path d="M1092.9883,789.5313 L1102.9883,789.5313 C1117.9883,789.5313 1227.9883,789.5313 1242.9883,789.5313 L1252.9883,789.5313 " fill="none" style="stroke:#181818;stroke-width:1.0;"/><path d="M705.1563,1854.0625 L715.1563,1854.0625 C730.1563,1854.0625 840.1563,789.5313 855.1563,789.5313 L865.1563,789.5313 " fill="none" style="stroke:#181818;stroke-width:1.0;"/><rect fill="#90EE90" height="153.125" rx="12.5" ry="12.5" style="stroke:#181818;stroke-width:1.5;" width="521.6211" x="865.1563" y="1729.0625"/><text fill="#000000" font-family="sans-serif" font-size="40" font-weight="bold" lengthAdjust="spacing" textLength="461.6211" x="895.1563" y="1796.1914">Open Source Project</text><text fill="#000000" font-family="sans-serif" font-size="40" lengthAdjust="spacing" textLength="229.7266" x="1011.1035" y="1842.7539">available in</text><rect fill="#F1F1F1" height="106.5625" rx="12.5" ry="12.5" style="stroke:#181818;stroke-width:1.5;" width="206.6016" x="1546.7773" y="1634.0625"/><a href="https://github.com/mi-parkes/sphinx-needs-data-explorer" target="_top" title="https://github.com/mi-parkes/sphinx-needs-data-explorer" xlink:actuate="onRequest" xlink:href="https://github.com/mi-parkes/sphinx-needs-data-explorer" xlink:show="new" xlink:title="https://github.com/mi-parkes/sphinx-needs-data-explorer" xlink:type="simple"><text fill="#0000FF" font-family="sans-serif" font-size="40" lengthAdjust="spacing" text-decoration="underline" textLength="133.8867" x="1576.7773" y="1701.1914">Github</text></a><path d="M1386.7773,1805.625 L1396.7773,1805.625 C1411.7773,1805.625 1521.7773,1687.3438 1536.7773,1687.3438 L1546.7773,1687.3438 " fill="none" style="stroke:#181818;stroke-width:1.0;"/><rect fill="#F1F1F1" height="106.5625" rx="12.5" ry="12.5" style="stroke:#181818;stroke-width:1.5;" width="157.1875" x="1546.7773" y="1870.625"/><a href="https://pypi.org/project/sphinx-needs-data-explorer" target="_top" title="https://pypi.org/project/sphinx-needs-data-explorer" xlink:actuate="onRequest" xlink:href="https://pypi.org/project/sphinx-needs-data-explorer" xlink:show="new" xlink:title="https://pypi.org/project/sphinx-needs-data-explorer" xlink:type="simple"><text fill="#0000FF" font-family="sans-serif" font-size="40" lengthAdjust="spacing" text-decoration="underline" textLength="84.4727" x="1576.7773" y="1937.7539">PYPI</text></a><path d="M1386.7773,1805.625 L1396.7773,1805.625 C1411.7773,1805.625 1521.7773,1923.9063 1536.7773,1923.9063 L1546.7773,1923.9063 " fill="none" style="stroke:#181818;stroke-width:1.0;"/><path d="M705.1563,1854.0625 L715.1563,1854.0625 C730.1563,1854.0625 840.1563,1805.625 855.1563,1805.625 L865.1563,1805.625 " fill="none" style="stroke:#181818;stroke-width:1.0;"/><rect fill="#90EE90" height="106.5625" rx="12.5" ry="12.5" style="stroke:#181818;stroke-width:1.5;" width="279.2383" x="865.1563" y="2343.75"/><text fill="#000000" font-family="sans-serif" font-size="40" font-weight="bold" lengthAdjust="spacing" textLength="219.2383" x="895.1563" y="2410.8789">Platforms</text><rect fill="#F1F1F1" height="106.5625" rx="12.5" ry="12.5" style="stroke:#181818;stroke-width:1.5;" width="167.7734" x="1304.3945" y="2107.1875"/><text fill="#000000" font-family="sans-serif" font-size="40" lengthAdjust="spacing" textLength="107.7734" x="1334.3945" y="2174.3164">Linux</text><path d="M1144.3945,2397.0313 L1154.3945,2397.0313 C1169.3945,2397.0313 1279.3945,2160.4688 1294.3945,2160.4688 L1304.3945,2160.4688 " fill="none" style="stroke:#181818;stroke-width:1.0;"/><rect fill="#F1F1F1" height="106.5625" rx="12.5" ry="12.5" style="stroke:#181818;stroke-width:1.5;" width="250.7227" x="1304.3945" y="2343.75"/><text fill="#000000" font-family="sans-serif" font-size="40" lengthAdjust="spacing" textLength="190.7227" x="1334.3945" y="2410.8789">Mac OS X</text><path d="M1144.3945,2397.0313 L1154.3945,2397.0313 C1169.3945,2397.0313 1279.3945,2397.0313 1294.3945,2397.0313 L1304.3945,2397.0313 " fill="none" style="stroke:#181818;stroke-width:1.0;"/><rect fill="#F1F1F1" height="106.5625" rx="12.5" ry="12.5" style="stroke:#181818;stroke-width:1.5;" width="336.5625" x="1304.3945" y="2580.3125"/><text fill="#000000" font-family="sans-serif" font-size="40" lengthAdjust="spacing" textLength="276.5625" x="1334.3945" y="2647.4414">Windows +10</text><path d="M1144.3945,2397.0313 L1154.3945,2397.0313 C1169.3945,2397.0313 1279.3945,2633.5938 1294.3945,2633.5938 L1304.3945,2633.5938 " fill="none" style="stroke:#181818;stroke-width:1.0;"/><path d="M705.1563,1854.0625 L715.1563,1854.0625 C730.1563,1854.0625 840.1563,2397.0313 855.1563,2397.0313 L865.1563,2397.0313 " fill="none" style="stroke:#181818;stroke-width:1.0;"/><rect fill="#90EE90" height="106.5625" rx="12.5" ry="12.5" style="stroke:#181818;stroke-width:1.5;" width="493.457" x="865.1563" y="3171.7188"/><text fill="#000000" font-family="sans-serif" font-size="40" font-weight="bold" lengthAdjust="spacing" textLength="433.457" x="895.1563" y="3238.8477">Development Tools</text><rect fill="#87CEFA" height="106.5625" rx="12.5" ry="12.5" style="stroke:#181818;stroke-width:1.5;" width="504.5117" x="1518.6133" y="2816.875"/><text fill="#000000" font-family="sans-serif" font-size="40" lengthAdjust="spacing" textLength="444.5117" x="1548.6133" y="2884.0039">Package Management</text><rect fill="#F1F1F1" height="106.5625" rx="12.5" ry="12.5" style="stroke:#181818;stroke-width:1.5;" width="190.2734" x="2183.125" y="2816.875"/><text fill="#000000" font-family="sans-serif" font-size="40" lengthAdjust="spacing" textLength="130.2734" x="2213.125" y="2884.0039">poetry</text><path d="M2023.125,2870.1563 L2033.125,2870.1563 C2048.125,2870.1563 2158.125,2870.1563 2173.125,2870.1563 L2183.125,2870.1563 " fill="none" style="stroke:#181818;stroke-width:1.0;"/><path d="M1358.6133,3225 L1368.6133,3225 C1383.6133,3225 1493.6133,2870.1563 1508.6133,2870.1563 L1518.6133,2870.1563 " fill="none" style="stroke:#181818;stroke-width:1.0;"/><rect fill="#87CEFA" height="106.5625" rx="12.5" ry="12.5" style="stroke:#181818;stroke-width:1.5;" width="127.8711" x="1518.6133" y="3053.4375"/><text fill="#000000" font-family="sans-serif" font-size="40" lengthAdjust="spacing" textLength="67.8711" x="1548.6133" y="3120.5664">IDE</text><rect fill="#F1F1F1" height="106.5625" rx="12.5" ry="12.5" style="stroke:#181818;stroke-width:1.5;" width="227.8711" x="1806.4844" y="3053.4375"/><text fill="#000000" font-family="sans-serif" font-size="40" lengthAdjust="spacing" textLength="167.8711" x="1836.4844" y="3120.5664">VS Code</text><rect fill="#F1F1F1" height="106.5625" rx="12.5" ry="12.5" style="stroke:#181818;stroke-width:1.5;" width="334.5508" x="2194.3555" y="3053.4375"/><text fill="#000000" font-family="sans-serif" font-size="40" lengthAdjust="spacing" textLength="274.5508" x="2224.3555" y="3120.5664">DevContainer</text><path d="M2034.3555,3106.7188 L2044.3555,3106.7188 C2059.3555,3106.7188 2169.3555,3106.7188 2184.3555,3106.7188 L2194.3555,3106.7188 " fill="none" style="stroke:#181818;stroke-width:1.0;"/><path d="M1646.4844,3106.7188 L1656.4844,3106.7188 C1671.4844,3106.7188 1781.4844,3106.7188 1796.4844,3106.7188 L1806.4844,3106.7188 " fill="none" style="stroke:#181818;stroke-width:1.0;"/><path d="M1358.6133,3225 L1368.6133,3225 C1383.6133,3225 1493.6133,3106.7188 1508.6133,3106.7188 L1518.6133,3106.7188 " fill="none" style="stroke:#181818;stroke-width:1.0;"/><rect fill="#87CEFA" height="106.5625" rx="12.5" ry="12.5" style="stroke:#181818;stroke-width:1.5;" width="171.9336" x="1518.6133" y="3408.2813"/><text fill="#000000" font-family="sans-serif" font-size="40" lengthAdjust="spacing" textLength="111.9336" x="1548.6133" y="3475.4102">CI/CD</text><rect fill="#F1F1F1" height="106.5625" rx="12.5" ry="12.5" style="stroke:#181818;stroke-width:1.5;" width="358.1445" x="1850.5469" y="3408.2813"/><text fill="#000000" font-family="sans-serif" font-size="40" lengthAdjust="spacing" textLength="298.1445" x="1880.5469" y="3475.4102">GitHub Actions</text><rect fill="#F1F1F1" height="106.5625" rx="12.5" ry="12.5" style="stroke:#181818;stroke-width:1.5;" width="368.3594" x="2368.6914" y="3408.2813"/><text fill="#000000" font-family="sans-serif" font-size="40" lengthAdjust="spacing" textLength="308.3594" x="2398.6914" y="3475.4102">Documentation</text><rect fill="#F1F1F1" height="106.5625" rx="12.5" ry="12.5" style="stroke:#181818;stroke-width:1.5;" width="283.1445" x="2897.0508" y="3290"/><text fill="#000000" font-family="sans-serif" font-size="40" lengthAdjust="spacing" textLength="223.1445" x="2927.0508" y="3357.1289">Generation</text><path d="M2737.0508,3461.5625 L2747.0508,3461.5625 C2762.0508,3461.5625 2872.0508,3343.2813 2887.0508,3343.2813 L2897.0508,3343.2813 " fill="none" style="stroke:#181818;stroke-width:1.0;"/><rect fill="#F1F1F1" height="106.5625" rx="12.5" ry="12.5" style="stroke:#181818;stroke-width:1.5;" width="641.0547" x="2897.0508" y="3526.5625"/><text fill="#000000" font-family="sans-serif" font-size="40" lengthAdjust="spacing" textLength="581.0547" x="2927.0508" y="3593.6914">Deployment to GitHub Pages</text><path d="M2737.0508,3461.5625 L2747.0508,3461.5625 C2762.0508,3461.5625 2872.0508,3579.8438 2887.0508,3579.8438 L2897.0508,3579.8438 " fill="none" style="stroke:#181818;stroke-width:1.0;"/><path d="M2208.6914,3461.5625 L2218.6914,3461.5625 C2233.6914,3461.5625 2343.6914,3461.5625 2358.6914,3461.5625 L2368.6914,3461.5625 " fill="none" style="stroke:#181818;stroke-width:1.0;"/><path d="M1690.5469,3461.5625 L1700.5469,3461.5625 C1715.5469,3461.5625 1825.5469,3461.5625 1840.5469,3461.5625 L1850.5469,3461.5625 " fill="none" style="stroke:#181818;stroke-width:1.0;"/><path d="M1358.6133,3225 L1368.6133,3225 C1383.6133,3225 1493.6133,3461.5625 1508.6133,3461.5625 L1518.6133,3461.5625 " fill="none" style="stroke:#181818;stroke-width:1.0;"/><path d="M705.1563,1854.0625 L715.1563,1854.0625 C730.1563,1854.0625 840.1563,3225 855.1563,3225 L865.1563,3225 " fill="none" style="stroke:#181818;stroke-width:1.0;"/><!--SRC=[xLVTKziu47_tNx4jtD3wBkG3olGoq2aa_O0Z9LUdS1rWEegzE2Asv4foFdfp__kjP9iOMfXxwCCzy699kzB-Td_QrIQljM7Af5n4ASj0PnCk5by4OgI_HComBxZ84gbGUTw6Oc8QSRLt_164Z51ZjjTfaLnFkSYOOcabXXUjN-fYUx0IhwGHNh4yCM-bC07_Xh1zIzilj2DScFs4no95OI2aZtMbkU7jQhDCy9K7KFhUvoos1_ycKH2o1A7Tekan5zYJ508S92oSaiHvwRO1MF0FB4NuACVII2SRiYZY8eONRZLWAkO2scwrGVjo4VMa4gYWtNOxLWZZ2W4EQ1AhOg_Lh8NXrbOODjPQDBBm1hlGpYVSu8sjm0O6hPlrQCB3gK2jeS2pWKh1ajAB5yNE0HSypTCp7fa9T5gba2tk2l_nTfibTHjDxs4QwqnLh6orwhJi52Hjt49l_mZzBhYtOMG6HWBnRYHb0rSO6Yu5vHcF9yQg4hmoDOLRahZGrmveTzsjJVBcoRgIig1rx-dQ2MLUZ4z9UfXc2TeSmeZa8vao8vzwtfDCoH2ZN26ifw4zzMoT8cl_Ph-TvzwkatN7IOwlpi_1wTot0vUNkqsdVUKzGH7T6F8y_tpbn2Nu_lr5vVkUxv-l9JQWM24Akvrm9iPakjjipkVppU9q8vBXfbHn4qKpPPgge0c1qv0ZpenVhTyi30fjYI4XMJ-sreFfye22k8I-37FB0pFtxTZFwJwauJEg2loQ4yrs_uKOAHOY6_E4c-KF3nxQucIXEtc6uyQOQOmkn3xbwj9mkYCOIPcuepwy7msEosal28hP-TfdJ18vluGZDcD1g7Xc2eqFDLPcN5zhImQu6H5GRlAXlnGivI4m4G5VkNCXBEqWqCobcjfZEKlujnK7jm5YRYRvU3EKQJF3E5vUws84-jx66yevggiySO1N2IxuE24qUi8qbMQCLA2KQEfX38q9PNAd6g4QQpZ7VAoOMi8LlHQXGd9Sn1V2WgPCiDWMPcuHwVNCpSDerrzpLCjoWEi_tL2dy6HWZV8iJnm_a1JO3rlj4xyZHi7hsZHG8QnMTH1x-s2i651Cc0Xj17MWkxdLarK1snVWlY9n9MRzAMkXyS4AgWgvMsWd6Ge8PAv2XA6IrqIwxnEhCyOJvnftoN5Fn2blq3LFAU0wUCCcMgEgRtZdzfUHrmrbouoxUiuAu8UC33yF3miJToCOqXLHIgIwV06eNUGBDnkm44u2-CijpkXfbtCDlr97_Dv87sUOoCnnQmkqD7Rt1eRKqbYCP9aIpjs4koZ899hYqhvx3_flYYsd0TrVX6Mv4rwFMX-ZrgP-T0nwXyrUlpX9_Bqd_lRTGwyh0zyzONPdKMirIH-9lsMLCgMb8VcklTVqO9VzplDU_-TVG3_dnyjFwhaFTzVxUgNjJcLRV6nDZwtfiJKzjgR7rlI_RKr4eZ2VA1zdgEop2UtDJgkplRdpB606ZgYuMplG-htRtkvklOHFenvOzNFlsU1m1Bf8duXhe_Wuj_ZFFVjwmSTS69vY5soQ7VN_g0JmHiouagvTUKUdWzM6dUt60JSGe29Fu7JWbHsEJeJIzgWkeRzjlFIEgRFa54YNYiVhqHzWkW3I1Vy2]--></g></svg>