<svg xmlns="http://www.w3.org/2000/svg" xmlns:xlink="http://www.w3.org/1999/xlink" contentStyleType="text/css" height="4835px" preserveAspectRatio="none" style="width:3249px;height:4835px;background:#FFFFFF;" version="1.1" viewBox="0 0 3249 4835" width="3249px" zoomAndPan="magnify"><defs/><g><rect fill="#FFA500" height="106.5625" rx="12.5" ry="12.5" style="stroke:#181818;stroke-width:1.5;" width="629.375" x="10" y="2363.2813"/><text fill="#000000" font-family="sans-serif" font-size="40" lengthAdjust="spacing" textLength="569.375" x="40" y="2430.4102">sphinx_needs_data_explorer</text><rect fill="#90EE90" height="106.5625" rx="12.5" ry="12.5" style="stroke:#181818;stroke-width:1.5;" width="201.6992" x="799.375" y="358.125"/><a href="https://github.com/ollama/ollama/blob/main/README.md" target="_top" title="https://github.com/ollama/ollama/blob/main/README.md" xlink:actuate="onRequest" xlink:href="https://github.com/ollama/ollama/blob/main/README.md" xlink:show="new" xlink:title="https://github.com/ollama/ollama/blob/main/README.md" xlink:type="simple"><text fill="#0000FF" font-family="sans-serif" font-size="40" lengthAdjust="spacing" text-decoration="underline" textLength="141.6992" x="829.375" y="425.2539">Ollama</text></a><rect fill="#F1F1F1" height="153.125" rx="12.5" ry="12.5" style="stroke:#181818;stroke-width:1.5;" width="324.3555" x="1161.0742" y="98.2813"/><text fill="#000000" font-family="sans-serif" font-size="40" lengthAdjust="spacing" textLength="176.3867" x="1191.0742" y="165.4102">Business</text><text fill="#000000" font-family="sans-serif" font-size="40" lengthAdjust="spacing" textLength="12.7148" x="1367.4609" y="165.4102">&#160;</text><text fill="#000000" font-family="sans-serif" font-size="40" lengthAdjust="spacing" textLength="75.2539" x="1380.1758" y="165.4102">and</text><text fill="#000000" font-family="sans-serif" font-size="40" lengthAdjust="spacing" textLength="230.8594" x="1207.8223" y="211.9727">Technology</text><rect fill="#F1F1F1" height="199.6875" rx="12.5" ry="12.5" style="stroke:#181818;stroke-width:1.5;" width="340.7617" x="1645.4297" y="75"/><text fill="#000000" font-family="sans-serif" font-size="40" lengthAdjust="spacing" textLength="190.7227" x="1676.4648" y="142.1289">Clarifying</text><text fill="#000000" font-family="sans-serif" font-size="40" lengthAdjust="spacing" textLength="12.7148" x="1867.1875" y="142.1289">&#160;</text><text fill="#000000" font-family="sans-serif" font-size="40" lengthAdjust="spacing" textLength="75.2539" x="1879.9023" y="142.1289">and</text><text fill="#000000" font-family="sans-serif" font-size="40" lengthAdjust="spacing" textLength="164.8047" x="1733.4082" y="188.6914">Refining</text><text fill="#000000" font-family="sans-serif" font-size="40" lengthAdjust="spacing" textLength="280.7617" x="1675.4297" y="235.2539">Requirements</text><path d="M1485.4297,174.8438 L1495.4297,174.8438 C1510.4297,174.8438 1620.4297,174.8438 1635.4297,174.8438 L1645.4297,174.8438 " fill="none" style="stroke:#181818;stroke-width:1.0;"/><path d="M1001.0742,411.4063 L1011.0742,411.4063 C1026.0742,411.4063 1136.0742,174.8438 1151.0742,174.8438 L1161.0742,174.8438 " fill="none" style="stroke:#181818;stroke-width:1.0;"/><rect fill="#F1F1F1" height="246.25" rx="12.5" ry="12.5" style="stroke:#181818;stroke-width:1.5;" width="355.1953" x="1161.0742" y="453.125"/><text fill="#000000" font-family="sans-serif" font-size="40" lengthAdjust="spacing" textLength="88.3984" x="1218.457" y="520.2539">Text</text><text fill="#000000" font-family="sans-serif" font-size="40" lengthAdjust="spacing" textLength="12.7148" x="1306.8555" y="520.2539">&#160;</text><text fill="#000000" font-family="sans-serif" font-size="40" lengthAdjust="spacing" textLength="139.3164" x="1319.5703" y="520.2539">Editing</text><text fill="#000000" font-family="sans-serif" font-size="40" lengthAdjust="spacing" textLength="75.2539" x="1191.0742" y="566.8164">and</text><text fill="#000000" font-family="sans-serif" font-size="40" lengthAdjust="spacing" textLength="12.7148" x="1266.3281" y="566.8164">&#160;</text><text fill="#000000" font-family="sans-serif" font-size="40" lengthAdjust="spacing" textLength="207.2266" x="1279.043" y="566.8164">Document</text><text fill="#000000" font-family="sans-serif" font-size="40" lengthAdjust="spacing" textLength="215.1758" x="1231.084" y="613.3789">Processing</text><text fill="#000000" font-family="sans-serif" font-size="40" lengthAdjust="spacing" textLength="15.6055" x="1278.5449" y="659.9414">(</text><a href="https://en.wikipedia.org/wiki/Natural_language_processing" target="_top" title="https://en.wikipedia.org/wiki/Natural_language_processing" xlink:actuate="onRequest" xlink:href="https://en.wikipedia.org/wiki/Natural_language_processing" xlink:show="new" xlink:title="https://en.wikipedia.org/wiki/Natural_language_processing" xlink:type="simple"><text fill="#0000FF" font-family="sans-serif" font-size="40" lengthAdjust="spacing" text-decoration="underline" textLength="76.3281" x="1294.1504" y="659.9414">NLP</text></a><a href="https://en.wikipedia.org/wiki/Natural_language_processing" target="_top" title="https://en.wikipedia.org/wiki/Natural_language_processing" xlink:actuate="onRequest" xlink:href="https://en.wikipedia.org/wiki/Natural_language_processing" xlink:show="new" xlink:title="https://en.wikipedia.org/wiki/Natural_language_processing" xlink:type="simple"><text fill="#0000FF" font-family="sans-serif" font-size="40" lengthAdjust="spacing" text-decoration="underline" textLength="12.7148" x="1370.4785" y="659.9414">&#160;</text></a><text fill="#000000" font-family="sans-serif" font-size="40" lengthAdjust="spacing" textLength="15.6055" x="1383.1934" y="659.9414">)</text><rect fill="#F1F1F1" height="106.5625" rx="12.5" ry="12.5" style="stroke:#181818;stroke-width:1.5;" width="321.7188" x="1676.2695" y="404.6875"/><text fill="#000000" font-family="sans-serif" font-size="40" lengthAdjust="spacing" textLength="261.7188" x="1706.2695" y="471.8164">SpellChecker</text><path d="M1516.2695,576.25 L1526.2695,576.25 C1541.2695,576.25 1651.2695,457.9688 1666.2695,457.9688 L1676.2695,457.9688 " fill="none" style="stroke:#181818;stroke-width:1.0;"/><rect fill="#F1F1F1" height="106.5625" rx="12.5" ry="12.5" style="stroke:#181818;stroke-width:1.5;" width="414.9414" x="1676.2695" y="641.25"/><text fill="#000000" font-family="sans-serif" font-size="40" lengthAdjust="spacing" textLength="354.9414" x="1706.2695" y="708.3789">GrammarChecker</text><path d="M1516.2695,576.25 L1526.2695,576.25 C1541.2695,576.25 1651.2695,694.5313 1666.2695,694.5313 L1676.2695,694.5313 " fill="none" style="stroke:#181818;stroke-width:1.0;"/><path d="M1001.0742,411.4063 L1011.0742,411.4063 C1026.0742,411.4063 1136.0742,576.25 1151.0742,576.25 L1161.0742,576.25 " fill="none" style="stroke:#181818;stroke-width:1.0;"/><path d="M639.375,2416.5625 L649.375,2416.5625 C664.375,2416.5625 774.375,411.4063 789.375,411.4063 L799.375,411.4063 " fill="none" style="stroke:#181818;stroke-width:1.0;"/><rect fill="#90EE90" height="106.5625" rx="12.5" ry="12.5" style="stroke:#181818;stroke-width:1.5;" width="196.2695" x="799.375" y="1653.5938"/><a href="https://www.sphinx-doc.org/en/master/" target="_top" title="https://www.sphinx-doc.org/en/master/" xlink:actuate="onRequest" xlink:href="https://www.sphinx-doc.org/en/master/" xlink:show="new" xlink:title="https://www.sphinx-doc.org/en/master/" xlink:type="simple"><text fill="#0000FF" font-family="sans-serif" font-size="40" lengthAdjust="spacing" text-decoration="underline" textLength="136.2695" x="829.375" y="1720.7227">Sphinx</text></a><rect fill="#F1F1F1" height="153.125" rx="12.5" ry="12.5" style="stroke:#181818;stroke-width:1.5;" width="256.3672" x="1155.6445" y="1630.3125"/><text fill="#000000" font-family="sans-serif" font-size="40" lengthAdjust="spacing" textLength="136.2695" x="1215.6934" y="1697.4414">Sphinx</text><text fill="#000000" font-family="sans-serif" font-size="40" lengthAdjust="spacing" textLength="196.3672" x="1185.6445" y="1744.0039">Extension</text><rect fill="#87CEFA" height="106.5625" rx="12.5" ry="12.5" style="stroke:#181818;stroke-width:1.5;" width="368.3594" x="1572.0117" y="1040.7813"/><text fill="#000000" font-family="sans-serif" font-size="40" lengthAdjust="spacing" textLength="308.3594" x="1602.0117" y="1107.9102">Documentation</text><path d="M1412.0117,1706.875 L1422.0117,1706.875 C1437.0117,1706.875 1547.0117,1094.0625 1562.0117,1094.0625 L1572.0117,1094.0625 " fill="none" style="stroke:#181818;stroke-width:1.0;"/><rect fill="#87CEFA" height="199.6875" rx="12.5" ry="12.5" style="stroke:#181818;stroke-width:1.5;" width="319.9219" x="1572.0117" y="1277.3438"/><text fill="#000000" font-family="sans-serif" font-size="40" lengthAdjust="spacing" textLength="231.3867" x="1616.2793" y="1344.4727">Automotive</text><text fill="#000000" font-family="sans-serif" font-size="40" lengthAdjust="spacing" textLength="259.9219" x="1602.0117" y="1391.0352">Requirement</text><text fill="#000000" font-family="sans-serif" font-size="40" lengthAdjust="spacing" textLength="234.5898" x="1614.6777" y="1437.5977">Traceability</text><path d="M1412.0117,1706.875 L1422.0117,1706.875 C1437.0117,1706.875 1547.0117,1377.1875 1562.0117,1377.1875 L1572.0117,1377.1875 " fill="none" style="stroke:#181818;stroke-width:1.0;"/><rect fill="#87CEFA" height="199.6875" rx="12.5" ry="12.5" style="stroke:#181818;stroke-width:1.5;" width="353.6328" x="1572.0117" y="1607.0313"/><text fill="#000000" font-family="sans-serif" font-size="40" lengthAdjust="spacing" textLength="215.4688" x="1641.0938" y="1674.1602">Interactive</text><text fill="#000000" font-family="sans-serif" font-size="40" lengthAdjust="spacing" textLength="224.7266" x="1636.4648" y="1720.7227">Web-based</text><text fill="#000000" font-family="sans-serif" font-size="40" lengthAdjust="spacing" textLength="196.4258" x="1602.0117" y="1767.2852">Analytical</text><text fill="#000000" font-family="sans-serif" font-size="40" lengthAdjust="spacing" textLength="12.7148" x="1798.4375" y="1767.2852">&#160;</text><text fill="#000000" font-family="sans-serif" font-size="40" lengthAdjust="spacing" textLength="84.4922" x="1811.1523" y="1767.2852">Tool</text><rect fill="#F1F1F1" height="106.5625" rx="12.5" ry="12.5" style="stroke:#181818;stroke-width:1.5;" width="171.3086" x="2085.6445" y="1180.4688"/><text fill="#000000" font-family="sans-serif" font-size="40" lengthAdjust="spacing" textLength="111.3086" x="2115.6445" y="1247.5977">HTML</text><path d="M1925.6445,1706.875 L1935.6445,1706.875 C1950.6445,1706.875 2060.6445,1233.75 2075.6445,1233.75 L2085.6445,1233.75 " fill="none" style="stroke:#181818;stroke-width:1.0;"/><rect fill="#F1F1F1" height="106.5625" rx="12.5" ry="12.5" style="stroke:#181818;stroke-width:1.5;" width="138.7109" x="2085.6445" y="1417.0313"/><text fill="#000000" font-family="sans-serif" font-size="40" lengthAdjust="spacing" textLength="78.7109" x="2115.6445" y="1484.1602">CSS</text><path d="M1925.6445,1706.875 L1935.6445,1706.875 C1950.6445,1706.875 2060.6445,1470.3125 2075.6445,1470.3125 L2085.6445,1470.3125 " fill="none" style="stroke:#181818;stroke-width:1.0;"/><rect fill="#FFFF00" height="106.5625" rx="12.5" ry="12.5" style="stroke:#181818;stroke-width:1.5;" width="260.5078" x="2085.6445" y="1653.5938"/><text fill="#000000" font-family="sans-serif" font-size="40" lengthAdjust="spacing" textLength="200.5078" x="2115.6445" y="1720.7227">JavaScript</text><rect fill="#F1F1F1" height="106.5625" rx="12.5" ry="12.5" style="stroke:#181818;stroke-width:1.5;" width="147.5781" x="2506.1523" y="947.6563"/><a href="https://visjs.org" target="_top" title="https://visjs.org" xlink:actuate="onRequest" xlink:href="https://visjs.org" xlink:show="new" xlink:title="https://visjs.org" xlink:type="simple"><text fill="#0000FF" font-family="sans-serif" font-size="40" lengthAdjust="spacing" text-decoration="underline" textLength="87.5781" x="2536.1523" y="1014.7852">visjs</text></a><rect fill="#F1F1F1" height="246.25" rx="12.5" ry="12.5" style="stroke:#181818;stroke-width:1.5;" width="325.2539" x="2813.7305" y="877.8125"/><text fill="#000000" font-family="sans-serif" font-size="40" lengthAdjust="spacing" textLength="176.4063" x="2844.1699" y="944.9414">Dynamic</text><text fill="#000000" font-family="sans-serif" font-size="40" lengthAdjust="spacing" textLength="12.7148" x="3020.5762" y="944.9414">&#160;</text><text fill="#000000" font-family="sans-serif" font-size="40" lengthAdjust="spacing" textLength="75.2539" x="3033.291" y="944.9414">and</text><text fill="#000000" font-family="sans-serif" font-size="40" lengthAdjust="spacing" textLength="214.7852" x="2868.9648" y="991.5039">interactive</text><text fill="#000000" font-family="sans-serif" font-size="40" lengthAdjust="spacing" textLength="90.0977" x="2843.7305" y="1038.0664">data</text><text fill="#000000" font-family="sans-serif" font-size="40" lengthAdjust="spacing" textLength="12.7148" x="2933.8281" y="1038.0664">&#160;</text><text fill="#000000" font-family="sans-serif" font-size="40" lengthAdjust="spacing" textLength="162.4414" x="2946.543" y="1038.0664">network</text><text fill="#000000" font-family="sans-serif" font-size="40" lengthAdjust="spacing" textLength="249.8438" x="2851.4355" y="1084.6289">visualization</text><path d="M2653.7305,1000.9375 L2663.7305,1000.9375 C2678.7305,1000.9375 2788.7305,1000.9375 2803.7305,1000.9375 L2813.7305,1000.9375 " fill="none" style="stroke:#181818;stroke-width:1.0;"/><path d="M2346.1523,1706.875 L2356.1523,1706.875 C2371.1523,1706.875 2481.1523,1000.9375 2496.1523,1000.9375 L2506.1523,1000.9375 " fill="none" style="stroke:#181818;stroke-width:1.0;"/><rect fill="#F1F1F1" height="106.5625" rx="12.5" ry="12.5" style="stroke:#181818;stroke-width:1.5;" width="167.3438" x="2506.1523" y="1323.9063"/><a href="https://github.com/peggyjs/peggy" target="_top" title="https://github.com/peggyjs/peggy" xlink:actuate="onRequest" xlink:href="https://github.com/peggyjs/peggy" xlink:show="new" xlink:title="https://github.com/peggyjs/peggy" xlink:type="simple"><text fill="#0000FF" font-family="sans-serif" font-size="40" lengthAdjust="spacing" text-decoration="underline" textLength="107.3438" x="2536.1523" y="1391.0352">pegjs</text></a><rect fill="#F1F1F1" height="246.25" rx="12.5" ry="12.5" style="stroke:#181818;stroke-width:1.5;" width="320.8789" x="2833.4961" y="1254.0625"/><text fill="#000000" font-family="sans-serif" font-size="40" lengthAdjust="spacing" textLength="172.9102" x="2863.4961" y="1321.1914">Powerful</text><text fill="#000000" font-family="sans-serif" font-size="40" lengthAdjust="spacing" textLength="12.7148" x="3036.4063" y="1321.1914">&#160;</text><text fill="#000000" font-family="sans-serif" font-size="40" lengthAdjust="spacing" textLength="75.2539" x="3049.1211" y="1321.1914">and</text><text fill="#000000" font-family="sans-serif" font-size="40" lengthAdjust="spacing" textLength="145.7031" x="2921.084" y="1367.7539">flexible</text><text fill="#000000" font-family="sans-serif" font-size="40" lengthAdjust="spacing" textLength="128.2422" x="2929.8145" y="1414.3164">parser</text><text fill="#000000" font-family="sans-serif" font-size="40" lengthAdjust="spacing" textLength="197.5195" x="2895.1758" y="1460.8789">generator</text><path d="M2673.4961,1377.1875 L2683.4961,1377.1875 C2698.4961,1377.1875 2808.4961,1377.1875 2823.4961,1377.1875 L2833.4961,1377.1875 " fill="none" style="stroke:#181818;stroke-width:1.0;"/><path d="M2346.1523,1706.875 L2356.1523,1706.875 C2371.1523,1706.875 2481.1523,1377.1875 2496.1523,1377.1875 L2506.1523,1377.1875 " fill="none" style="stroke:#181818;stroke-width:1.0;"/><rect fill="#F1F1F1" height="106.5625" rx="12.5" ry="12.5" style="stroke:#181818;stroke-width:1.5;" width="204.2969" x="2506.1523" y="1700.1563"/><a href="https://github.com/select2/select2" target="_top" title="https://github.com/select2/select2" xlink:actuate="onRequest" xlink:href="https://github.com/select2/select2" xlink:show="new" xlink:title="https://github.com/select2/select2" xlink:type="simple"><text fill="#0000FF" font-family="sans-serif" font-size="40" lengthAdjust="spacing" text-decoration="underline" textLength="144.2969" x="2536.1523" y="1767.2852">select2</text></a><rect fill="#F1F1F1" height="246.25" rx="12.5" ry="12.5" style="stroke:#181818;stroke-width:1.5;" width="348.5547" x="2870.4492" y="1630.3125"/><text fill="#000000" font-family="sans-serif" font-size="40" lengthAdjust="spacing" textLength="139.8633" x="2940.9375" y="1697.4414">Library</text><text fill="#000000" font-family="sans-serif" font-size="40" lengthAdjust="spacing" textLength="12.7148" x="3080.8008" y="1697.4414">&#160;</text><text fill="#000000" font-family="sans-serif" font-size="40" lengthAdjust="spacing" textLength="55" x="3093.5156" y="1697.4414">for</text><text fill="#000000" font-family="sans-serif" font-size="40" lengthAdjust="spacing" textLength="165.0977" x="2962.1777" y="1744.0039">creating</text><text fill="#000000" font-family="sans-serif" font-size="40" lengthAdjust="spacing" textLength="75.2539" x="2900.4492" y="1790.5664">and</text><text fill="#000000" font-family="sans-serif" font-size="40" lengthAdjust="spacing" textLength="12.7148" x="2975.7031" y="1790.5664">&#160;</text><text fill="#000000" font-family="sans-serif" font-size="40" lengthAdjust="spacing" textLength="200.5859" x="2988.418" y="1790.5664">managing</text><text fill="#000000" font-family="sans-serif" font-size="40" lengthAdjust="spacing" textLength="87.2461" x="2943.3008" y="1837.1289">user</text><text fill="#000000" font-family="sans-serif" font-size="40" lengthAdjust="spacing" textLength="12.7148" x="3030.5469" y="1837.1289">&#160;</text><text fill="#000000" font-family="sans-serif" font-size="40" lengthAdjust="spacing" textLength="102.8906" x="3043.2617" y="1837.1289">input</text><path d="M2710.4492,1753.4375 L2720.4492,1753.4375 C2735.4492,1753.4375 2845.4492,1753.4375 2860.4492,1753.4375 L2870.4492,1753.4375 " fill="none" style="stroke:#181818;stroke-width:1.0;"/><path d="M2346.1523,1706.875 L2356.1523,1706.875 C2371.1523,1706.875 2481.1523,1753.4375 2496.1523,1753.4375 L2506.1523,1753.4375 " fill="none" style="stroke:#181818;stroke-width:1.0;"/><rect fill="#F1F1F1" height="106.5625" rx="12.5" ry="12.5" style="stroke:#181818;stroke-width:1.5;" width="192.6758" x="2506.1523" y="2053.125"/><a href="https://github.com/jquery/jquery" target="_top" title="https://github.com/jquery/jquery" xlink:actuate="onRequest" xlink:href="https://github.com/jquery/jquery" xlink:show="new" xlink:title="https://github.com/jquery/jquery" xlink:type="simple"><text fill="#0000FF" font-family="sans-serif" font-size="40" lengthAdjust="spacing" text-decoration="underline" textLength="132.6758" x="2536.1523" y="2120.2539">jQuery</text></a><rect fill="#F1F1F1" height="199.6875" rx="12.5" ry="12.5" style="stroke:#181818;stroke-width:1.5;" width="322.9297" x="2858.8281" y="2006.5625"/><text fill="#000000" font-family="sans-serif" font-size="40" lengthAdjust="spacing" textLength="96.7969" x="2971.8945" y="2073.6914">DOM</text><text fill="#000000" font-family="sans-serif" font-size="40" lengthAdjust="spacing" textLength="262.9297" x="2888.8281" y="2120.2539">manipulation</text><text fill="#000000" font-family="sans-serif" font-size="40" lengthAdjust="spacing" textLength="128.6914" x="2955.9473" y="2166.8164">library</text><path d="M2698.8281,2106.4063 L2708.8281,2106.4063 C2723.8281,2106.4063 2833.8281,2106.4063 2848.8281,2106.4063 L2858.8281,2106.4063 " fill="none" style="stroke:#181818;stroke-width:1.0;"/><path d="M2346.1523,1706.875 L2356.1523,1706.875 C2371.1523,1706.875 2481.1523,2106.4063 2496.1523,2106.4063 L2506.1523,2106.4063 " fill="none" style="stroke:#181818;stroke-width:1.0;"/><rect fill="#F1F1F1" height="106.5625" rx="12.5" ry="12.5" style="stroke:#181818;stroke-width:1.5;" width="286.4063" x="2506.1523" y="2382.8125"/><a href="https://github.com/DataTables/DataTablesSrc" target="_top" title="https://github.com/DataTables/DataTablesSrc" xlink:actuate="onRequest" xlink:href="https://github.com/DataTables/DataTablesSrc" xlink:show="new" xlink:title="https://github.com/DataTables/DataTablesSrc" xlink:type="simple"><text fill="#0000FF" font-family="sans-serif" font-size="40" lengthAdjust="spacing" text-decoration="underline" textLength="226.4063" x="2536.1523" y="2449.9414">DataTables</text></a><rect fill="#F1F1F1" height="199.6875" rx="12.5" ry="12.5" style="stroke:#181818;stroke-width:1.5;" width="285.332" x="2952.5586" y="2336.25"/><text fill="#000000" font-family="sans-serif" font-size="40" lengthAdjust="spacing" textLength="111.3086" x="2982.5586" y="2403.3789">HTML</text><text fill="#000000" font-family="sans-serif" font-size="40" lengthAdjust="spacing" textLength="12.7148" x="3093.8672" y="2403.3789">&#160;</text><text fill="#000000" font-family="sans-serif" font-size="40" lengthAdjust="spacing" textLength="101.3086" x="3106.582" y="2403.3789">table</text><text fill="#000000" font-family="sans-serif" font-size="40" lengthAdjust="spacing" textLength="209.0234" x="2990.7129" y="2449.9414">enhancing</text><text fill="#000000" font-family="sans-serif" font-size="40" lengthAdjust="spacing" textLength="128.6914" x="3030.8789" y="2496.5039">library</text><path d="M2792.5586,2436.0938 L2802.5586,2436.0938 C2817.5586,2436.0938 2927.5586,2436.0938 2942.5586,2436.0938 L2952.5586,2436.0938 " fill="none" style="stroke:#181818;stroke-width:1.0;"/><path d="M2346.1523,1706.875 L2356.1523,1706.875 C2371.1523,1706.875 2481.1523,2436.0938 2496.1523,2436.0938 L2506.1523,2436.0938 " fill="none" style="stroke:#181818;stroke-width:1.0;"/><path d="M1925.6445,1706.875 L1935.6445,1706.875 C1950.6445,1706.875 2060.6445,1706.875 2075.6445,1706.875 L2085.6445,1706.875 " fill="none" style="stroke:#181818;stroke-width:1.0;"/><path d="M1412.0117,1706.875 L1422.0117,1706.875 C1437.0117,1706.875 1547.0117,1706.875 1562.0117,1706.875 L1572.0117,1706.875 " fill="none" style="stroke:#181818;stroke-width:1.0;"/><rect fill="#87CEFA" height="199.6875" rx="12.5" ry="12.5" style="stroke:#181818;stroke-width:1.5;" width="336.0742" x="1572.0117" y="1936.7188"/><text fill="#000000" font-family="sans-serif" font-size="40" lengthAdjust="spacing" textLength="257.0898" x="1611.5039" y="2003.8477">Complement</text><text fill="#000000" font-family="sans-serif" font-size="40" lengthAdjust="spacing" textLength="40.1563" x="1719.9707" y="2050.4102">to</text><text fill="#000000" font-family="sans-serif" font-size="40" lengthAdjust="spacing" textLength="276.0742" x="1602.0117" y="2096.9727">Sphinx-Needs</text><path d="M1412.0117,1706.875 L1422.0117,1706.875 C1437.0117,1706.875 1547.0117,2036.5625 1562.0117,2036.5625 L1572.0117,2036.5625 " fill="none" style="stroke:#181818;stroke-width:1.0;"/><path d="M995.6445,1706.875 L1005.6445,1706.875 C1020.6445,1706.875 1130.6445,1706.875 1145.6445,1706.875 L1155.6445,1706.875 " fill="none" style="stroke:#181818;stroke-width:1.0;"/><path d="M639.375,2416.5625 L649.375,2416.5625 C664.375,2416.5625 774.375,1706.875 789.375,1706.875 L799.375,1706.875 " fill="none" style="stroke:#181818;stroke-width:1.0;"/><rect fill="#90EE90" height="199.6875" rx="12.5" ry="12.5" style="stroke:#181818;stroke-width:1.5;" width="317.8125" x="799.375" y="2737.6563"/><text fill="#000000" font-family="sans-serif" font-size="40" lengthAdjust="spacing" textLength="106.8359" x="829.375" y="2804.7852">Open</text><text fill="#000000" font-family="sans-serif" font-size="40" lengthAdjust="spacing" textLength="12.7148" x="936.2109" y="2804.7852">&#160;</text><text fill="#000000" font-family="sans-serif" font-size="40" lengthAdjust="spacing" textLength="138.2617" x="948.9258" y="2804.7852">Source</text><text fill="#000000" font-family="sans-serif" font-size="40" lengthAdjust="spacing" textLength="138.4375" x="889.0625" y="2851.3477">Project</text><text fill="#000000" font-family="sans-serif" font-size="40" lengthAdjust="spacing" textLength="180.5469" x="843.418" y="2897.9102">available</text><text fill="#000000" font-family="sans-serif" font-size="40" lengthAdjust="spacing" textLength="12.7148" x="1023.9648" y="2897.9102">&#160;</text><text fill="#000000" font-family="sans-serif" font-size="40" lengthAdjust="spacing" textLength="36.4648" x="1036.6797" y="2897.9102">in</text><rect fill="#F1F1F1" height="106.5625" rx="12.5" ry="12.5" style="stroke:#181818;stroke-width:1.5;" width="193.8867" x="1277.1875" y="2665.9375"/><a href="https://github.com/mi-parkes/sphinx-needs-data-explorer" target="_top" title="https://github.com/mi-parkes/sphinx-needs-data-explorer" xlink:actuate="onRequest" xlink:href="https://github.com/mi-parkes/sphinx-needs-data-explorer" xlink:show="new" xlink:title="https://github.com/mi-parkes/sphinx-needs-data-explorer" xlink:type="simple"><text fill="#0000FF" font-family="sans-serif" font-size="40" lengthAdjust="spacing" text-decoration="underline" textLength="133.8867" x="1307.1875" y="2733.0664">Github</text></a><path d="M1117.1875,2837.5 L1127.1875,2837.5 C1142.1875,2837.5 1252.1875,2719.2188 1267.1875,2719.2188 L1277.1875,2719.2188 " fill="none" style="stroke:#181818;stroke-width:1.0;"/><rect fill="#F1F1F1" height="106.5625" rx="12.5" ry="12.5" style="stroke:#181818;stroke-width:1.5;" width="144.4727" x="1277.1875" y="2902.5"/><a href="https://pypi.org/project/sphinx-needs-data-explorer" target="_top" title="https://pypi.org/project/sphinx-needs-data-explorer" xlink:actuate="onRequest" xlink:href="https://pypi.org/project/sphinx-needs-data-explorer" xlink:show="new" xlink:title="https://pypi.org/project/sphinx-needs-data-explorer" xlink:type="simple"><text fill="#0000FF" font-family="sans-serif" font-size="40" lengthAdjust="spacing" text-decoration="underline" textLength="84.4727" x="1307.1875" y="2969.6289">PYPI</text></a><path d="M1117.1875,2837.5 L1127.1875,2837.5 C1142.1875,2837.5 1252.1875,2955.7813 1267.1875,2955.7813 L1277.1875,2955.7813 " fill="none" style="stroke:#181818;stroke-width:1.0;"/><path d="M639.375,2416.5625 L649.375,2416.5625 C664.375,2416.5625 774.375,2837.5 789.375,2837.5 L799.375,2837.5 " fill="none" style="stroke:#181818;stroke-width:1.0;"/><rect fill="#90EE90" height="106.5625" rx="12.5" ry="12.5" style="stroke:#181818;stroke-width:1.5;" width="250.2344" x="799.375" y="3375.625"/><text fill="#000000" font-family="sans-serif" font-size="40" lengthAdjust="spacing" textLength="190.2344" x="829.375" y="3442.7539">Platforms</text><rect fill="#F1F1F1" height="106.5625" rx="12.5" ry="12.5" style="stroke:#181818;stroke-width:1.5;" width="167.7734" x="1209.6094" y="3139.0625"/><text fill="#000000" font-family="sans-serif" font-size="40" lengthAdjust="spacing" textLength="107.7734" x="1239.6094" y="3206.1914">Linux</text><path d="M1049.6094,3428.9063 L1059.6094,3428.9063 C1074.6094,3428.9063 1184.6094,3192.3438 1199.6094,3192.3438 L1209.6094,3192.3438 " fill="none" style="stroke:#181818;stroke-width:1.0;"/><rect fill="#F1F1F1" height="106.5625" rx="12.5" ry="12.5" style="stroke:#181818;stroke-width:1.5;" width="250.7227" x="1209.6094" y="3375.625"/><text fill="#000000" font-family="sans-serif" font-size="40" lengthAdjust="spacing" textLength="81.0156" x="1239.6094" y="3442.7539">Mac</text><text fill="#000000" font-family="sans-serif" font-size="40" lengthAdjust="spacing" textLength="12.7148" x="1320.625" y="3442.7539">&#160;</text><text fill="#000000" font-family="sans-serif" font-size="40" lengthAdjust="spacing" textLength="56.875" x="1333.3398" y="3442.7539">OS</text><text fill="#000000" font-family="sans-serif" font-size="40" lengthAdjust="spacing" textLength="12.7148" x="1390.2148" y="3442.7539">&#160;</text><text fill="#000000" font-family="sans-serif" font-size="40" lengthAdjust="spacing" textLength="27.4023" x="1402.9297" y="3442.7539">X</text><path d="M1049.6094,3428.9063 L1059.6094,3428.9063 C1074.6094,3428.9063 1184.6094,3428.9063 1199.6094,3428.9063 L1209.6094,3428.9063 " fill="none" style="stroke:#181818;stroke-width:1.0;"/><rect fill="#F1F1F1" height="106.5625" rx="12.5" ry="12.5" style="stroke:#181818;stroke-width:1.5;" width="336.5625" x="1209.6094" y="3612.1875"/><text fill="#000000" font-family="sans-serif" font-size="40" lengthAdjust="spacing" textLength="179.4336" x="1239.6094" y="3679.3164">Windows</text><text fill="#000000" font-family="sans-serif" font-size="40" lengthAdjust="spacing" textLength="12.7148" x="1419.043" y="3679.3164">&#160;</text><text fill="#000000" font-family="sans-serif" font-size="40" lengthAdjust="spacing" textLength="84.4141" x="1431.7578" y="3679.3164">+10</text><path d="M1049.6094,3428.9063 L1059.6094,3428.9063 C1074.6094,3428.9063 1184.6094,3665.4688 1199.6094,3665.4688 L1209.6094,3665.4688 " fill="none" style="stroke:#181818;stroke-width:1.0;"/><path d="M639.375,2416.5625 L649.375,2416.5625 C664.375,2416.5625 774.375,3428.9063 789.375,3428.9063 L799.375,3428.9063 " fill="none" style="stroke:#181818;stroke-width:1.0;"/><rect fill="#90EE90" height="153.125" rx="12.5" ry="12.5" style="stroke:#181818;stroke-width:1.5;" width="329.2773" x="799.375" y="4226.875"/><text fill="#000000" font-family="sans-serif" font-size="40" lengthAdjust="spacing" textLength="269.2773" x="829.375" y="4294.0039">Development</text><text fill="#000000" font-family="sans-serif" font-size="40" lengthAdjust="spacing" textLength="105.332" x="911.3477" y="4340.5664">Tools</text><rect fill="#87CEFA" height="153.125" rx="12.5" ry="12.5" style="stroke:#181818;stroke-width:1.5;" width="323.4961" x="1288.6523" y="3848.75"/><text fill="#000000" font-family="sans-serif" font-size="40" lengthAdjust="spacing" textLength="168.3008" x="1366.25" y="3915.8789">Package</text><text fill="#000000" font-family="sans-serif" font-size="40" lengthAdjust="spacing" textLength="263.4961" x="1318.6523" y="3962.4414">Management</text><rect fill="#F1F1F1" height="106.5625" rx="12.5" ry="12.5" style="stroke:#181818;stroke-width:1.5;" width="190.2734" x="1772.1484" y="3872.0313"/><text fill="#000000" font-family="sans-serif" font-size="40" lengthAdjust="spacing" textLength="130.2734" x="1802.1484" y="3939.1602">poetry</text><path d="M1612.1484,3925.3125 L1622.1484,3925.3125 C1637.1484,3925.3125 1747.1484,3925.3125 1762.1484,3925.3125 L1772.1484,3925.3125 " fill="none" style="stroke:#181818;stroke-width:1.0;"/><path d="M1128.6523,4303.4375 L1138.6523,4303.4375 C1153.6523,4303.4375 1263.6523,3925.3125 1278.6523,3925.3125 L1288.6523,3925.3125 " fill="none" style="stroke:#181818;stroke-width:1.0;"/><rect fill="#87CEFA" height="106.5625" rx="12.5" ry="12.5" style="stroke:#181818;stroke-width:1.5;" width="127.8711" x="1288.6523" y="4131.875"/><text fill="#000000" font-family="sans-serif" font-size="40" lengthAdjust="spacing" textLength="67.8711" x="1318.6523" y="4199.0039">IDE</text><rect fill="#F1F1F1" height="106.5625" rx="12.5" ry="12.5" style="stroke:#181818;stroke-width:1.5;" width="227.8711" x="1576.5234" y="4131.875"/><text fill="#000000" font-family="sans-serif" font-size="40" lengthAdjust="spacing" textLength="52.7539" x="1606.5234" y="4199.0039">VS</text><text fill="#000000" font-family="sans-serif" font-size="40" lengthAdjust="spacing" textLength="12.7148" x="1659.2773" y="4199.0039">&#160;</text><text fill="#000000" font-family="sans-serif" font-size="40" lengthAdjust="spacing" textLength="102.4023" x="1671.9922" y="4199.0039">Code</text><rect fill="#F1F1F1" height="106.5625" rx="12.5" ry="12.5" style="stroke:#181818;stroke-width:1.5;" width="334.5508" x="1964.3945" y="4131.875"/><text fill="#000000" font-family="sans-serif" font-size="40" lengthAdjust="spacing" textLength="274.5508" x="1994.3945" y="4199.0039">DevContainer</text><path d="M1804.3945,4185.1563 L1814.3945,4185.1563 C1829.3945,4185.1563 1939.3945,4185.1563 1954.3945,4185.1563 L1964.3945,4185.1563 " fill="none" style="stroke:#181818;stroke-width:1.0;"/><path d="M1416.5234,4185.1563 L1426.5234,4185.1563 C1441.5234,4185.1563 1551.5234,4185.1563 1566.5234,4185.1563 L1576.5234,4185.1563 " fill="none" style="stroke:#181818;stroke-width:1.0;"/><path d="M1128.6523,4303.4375 L1138.6523,4303.4375 C1153.6523,4303.4375 1263.6523,4185.1563 1278.6523,4185.1563 L1288.6523,4185.1563 " fill="none" style="stroke:#181818;stroke-width:1.0;"/><rect fill="#87CEFA" height="106.5625" rx="12.5" ry="12.5" style="stroke:#181818;stroke-width:1.5;" width="171.9336" x="1288.6523" y="4510"/><text fill="#000000" font-family="sans-serif" font-size="40" lengthAdjust="spacing" textLength="111.9336" x="1318.6523" y="4577.1289">CI/CD</text><rect fill="#F1F1F1" height="106.5625" rx="12.5" ry="12.5" style="stroke:#181818;stroke-width:1.5;" width="358.1445" x="1620.5859" y="4510"/><text fill="#000000" font-family="sans-serif" font-size="40" lengthAdjust="spacing" textLength="138.6133" x="1650.5859" y="4577.1289">GitHub</text><text fill="#000000" font-family="sans-serif" font-size="40" lengthAdjust="spacing" textLength="12.7148" x="1789.1992" y="4577.1289">&#160;</text><text fill="#000000" font-family="sans-serif" font-size="40" lengthAdjust="spacing" textLength="146.8164" x="1801.9141" y="4577.1289">Actions</text><rect fill="#F1F1F1" height="106.5625" rx="12.5" ry="12.5" style="stroke:#181818;stroke-width:1.5;" width="368.3594" x="2138.7305" y="4510"/><text fill="#000000" font-family="sans-serif" font-size="40" lengthAdjust="spacing" textLength="308.3594" x="2168.7305" y="4577.1289">Documentation</text><rect fill="#F1F1F1" height="106.5625" rx="12.5" ry="12.5" style="stroke:#181818;stroke-width:1.5;" width="283.1445" x="2667.0898" y="4368.4375"/><text fill="#000000" font-family="sans-serif" font-size="40" lengthAdjust="spacing" textLength="223.1445" x="2697.0898" y="4435.5664">Generation</text><path d="M2507.0898,4563.2813 L2517.0898,4563.2813 C2532.0898,4563.2813 2642.0898,4421.7188 2657.0898,4421.7188 L2667.0898,4421.7188 " fill="none" style="stroke:#181818;stroke-width:1.0;"/><rect fill="#F1F1F1" height="153.125" rx="12.5" ry="12.5" style="stroke:#181818;stroke-width:1.5;" width="357.5391" x="2667.0898" y="4605"/><text fill="#000000" font-family="sans-serif" font-size="40" lengthAdjust="spacing" textLength="244.668" x="2697.0898" y="4672.1289">Deployment</text><text fill="#000000" font-family="sans-serif" font-size="40" lengthAdjust="spacing" textLength="12.7148" x="2941.7578" y="4672.1289">&#160;</text><text fill="#000000" font-family="sans-serif" font-size="40" lengthAdjust="spacing" textLength="40.1563" x="2954.4727" y="4672.1289">to</text><text fill="#000000" font-family="sans-serif" font-size="40" lengthAdjust="spacing" textLength="138.6133" x="2710.459" y="4718.6914">GitHub</text><text fill="#000000" font-family="sans-serif" font-size="40" lengthAdjust="spacing" textLength="12.7148" x="2849.0723" y="4718.6914">&#160;</text><text fill="#000000" font-family="sans-serif" font-size="40" lengthAdjust="spacing" textLength="119.4727" x="2861.7871" y="4718.6914">Pages</text><path d="M2507.0898,4563.2813 L2517.0898,4563.2813 C2532.0898,4563.2813 2642.0898,4681.5625 2657.0898,4681.5625 L2667.0898,4681.5625 " fill="none" style="stroke:#181818;stroke-width:1.0;"/><path d="M1978.7305,4563.2813 L1988.7305,4563.2813 C2003.7305,4563.2813 2113.7305,4563.2813 2128.7305,4563.2813 L2138.7305,4563.2813 " fill="none" style="stroke:#181818;stroke-width:1.0;"/><path d="M1460.5859,4563.2813 L1470.5859,4563.2813 C1485.5859,4563.2813 1595.5859,4563.2813 1610.5859,4563.2813 L1620.5859,4563.2813 " fill="none" style="stroke:#181818;stroke-width:1.0;"/><path d="M1128.6523,4303.4375 L1138.6523,4303.4375 C1153.6523,4303.4375 1263.6523,4563.2813 1278.6523,4563.2813 L1288.6523,4563.2813 " fill="none" style="stroke:#181818;stroke-width:1.0;"/><path d="M639.375,2416.5625 L649.375,2416.5625 C664.375,2416.5625 774.375,4303.4375 789.375,4303.4375 L799.375,4303.4375 " fill="none" style="stroke:#181818;stroke-width:1.0;"/><!--SRC=[xLRTKnit47-_ls8JqW7S-XF2f1wI2TWaWThWSaxI3Z2CVBS-2-kaYqxdZtJwltUbE-E31Dg7FFI1bvEqA-rlzTD-tDlKC6rYBiEO9P0c4ouNrn8nJAz3PjWrBXAXD6hFszHCJaEkN_VEGQeGKqnUjneaJwTS9aopU2M6busVoc9xS2LUIqCSiqoOTqeQdtz5sBsZxURQ8IxCWU2HZ54Q2EXZNQblUlkfMGfyum4KldSvY-p1lqZa1qmWD1iqxN697KLNW4F1WYb9d9Tk6u05FsKnmhaQAQESRC32aCi8NhfLd-c8IsYwrIRjosJOKLgYXcRJxLWZZ5O8S4YJIETxhMOZ27PsWg2wqQ2H1RVOkNO-uGPlRVdsOj2uNGydF9XAJ5F8yUn5bMIYyE9blhFF9O-p-3CFpGHQZKB85lU5VtlxzOAwpRhtE8rbfbQix3JAjEpb96tUGMz-3ttdFhgtQLG2HW4HRnI50zSO6Aua1HgF9iQg18vDIU6M9CxrfGEfU-z6ZTnvza8hbVFw-ld66OLUXCyzxrcYLO1XfX5Un87LRhsWApH_iT_MjhVlPEsHoF3DnGKudVksuEfgl-wqRxndACDRGvvNkLY3NJsMEvNAnOQmJaSQKLu18KoCIT9slHvnCyb6jK35TIK4Yzbg60argiUCo_hvqK6tVrIBGpXpAlA8B5RWC4kvYmicGnXYC97aIBIqkWfq1DDylBHFPjNdEAOdeiKvVic8E9jEgRDYCmoEGcvMMxigo5os3UnDqzJAjqeUewpD-PGd679MKpggsrNzb9bCCt4jYF2CHNYTh4-VzWRaytRkc9-W49q91bD734dUKxp5JAzb3v8rdyzhEStLK0KE72MHb59Lg9DbgrcnKwoE5WPbQgF4ObrizAnbVxeyf9U-khqhCm_jECWeE9NXConJToc7cWN8Hbnmi_pkmMDRgbZWJdx6KNN4KWmlvG5bxj9m2bWOAYNSqGfy6FPxnRJZ-_diOkDFOahDh-24pPWVQ9wON5CfSpBZwKrggG0tAwxlTdMNaiKySA_Ar-vSIXkT8D7CbPxQOnaJ_EkQWxi0fGXDC8gMDsa-0dtluWtK7FKu4mvmB731HuBGgA2dLAWYf7B5ZDAFOwGeAArRgn5MOmcdnqUQwIMCgNO66faDtKjfGMCcMMH3BhE8r4ioypZQpPSCzR8OuEPtDvGfFEjRepp9XEC7H8xzkDKkyJjaTFcqDFLr0EjL6SI-FXWh1fGJ9WDxWpBG_TZgg3WHBX1jESmZlNfg2yytsNEMe0HVPJf0cz0tn2LHDMDSE3pkNlo1QyIyIcytfLiKIUTgMzL6JtLLs-2zsx_AkfAXP9bmbw993lkOaS6VW-FSn5tl1yGwlNASbohgXjd2pVeiW3CV_d2BpzIvr3o5dwdXtpVGnHaAbJYgRBuvG_Vf752tff95LYbw7ArvOKeKclm5ladkxb6-vPDFZn5YaRk4rg6kJaKxhsttZq7dkDxf5bMFcm_4su5hOUdAm3VroExC4wSawIBnjbozVs5fGBwdtbjgKKKhzxot__ddxiVyb_sWtub_-N5uw3V0DkIYupzruwTk_DIDdxhnKpT-wiR_csvCz4dpaO9hXjhMG6ZMMetMRcrlosS6JYXJ6tlG-BNTt6tll8AFmmvOzRQtrJyUGfe7JSXJe_aei_ZRdYr5S9v9msDik-0wwVws4i2Hd76jN8VsJZxrrnlsTgk7t82FcZo1JtslQEfq8b2sBRS9_LtrbTShsaURCi7hABAhbwJp_m40]--></g></svg>