<svg xmlns="http://www.w3.org/2000/svg" xmlns:xlink="http://www.w3.org/1999/xlink" contentStyleType="text/css" height="5451px" preserveAspectRatio="none" style="width:3249px;height:5451px;background:#FFFFFF;" version="1.1" viewBox="0 0 3249 5451" width="3249px" zoomAndPan="magnify"><defs/><g><rect fill="#FFA500" height="106.5625" rx="12.5" ry="12.5" style="stroke:#181818;stroke-width:1.5;" width="629.375" x="10" y="2671.5625"/><text fill="#000000" font-family="sans-serif" font-size="40" lengthAdjust="spacing" textLength="569.375" x="40" y="2738.6914">sphinx_needs_data_explorer</text><rect fill="#90EE90" height="106.5625" rx="12.5" ry="12.5" style="stroke:#181818;stroke-width:1.5;" width="201.6992" x="799.375" y="666.4063"/><a href="https://github.com/ollama/ollama/blob/main/README.md" target="_top" title="https://github.com/ollama/ollama/blob/main/README.md" xlink:actuate="onRequest" xlink:href="https://github.com/ollama/ollama/blob/main/README.md" xlink:show="new" xlink:title="https://github.com/ollama/ollama/blob/main/README.md" xlink:type="simple"><text fill="#0000FF" font-family="sans-serif" font-size="40" lengthAdjust="spacing" text-decoration="underline" textLength="141.6992" x="829.375" y="733.5352">Ollama</text></a><rect fill="#F1F1F1" height="153.125" rx="12.5" ry="12.5" style="stroke:#181818;stroke-width:1.5;" width="340.7617" x="1161.0742" y="406.5625"/><text fill="#000000" font-family="sans-serif" font-size="40" lengthAdjust="spacing" textLength="280.7617" x="1191.0742" y="473.6914">Requirements</text><text fill="#000000" font-family="sans-serif" font-size="40" lengthAdjust="spacing" textLength="164.8047" x="1249.0527" y="520.2539">Analysis</text><rect fill="#F1F1F1" height="106.5625" rx="12.5" ry="12.5" style="stroke:#181818;stroke-width:1.5;" width="472.6758" x="1661.8359" y="75"/><text fill="#000000" font-family="sans-serif" font-size="40" lengthAdjust="spacing" textLength="412.6758" x="1691.8359" y="142.1289">requirementChecker</text><path d="M1501.8359,483.125 L1511.8359,483.125 C1526.8359,483.125 1636.8359,128.2813 1651.8359,128.2813 L1661.8359,128.2813 " fill="none" style="stroke:#181818;stroke-width:1.0;"/><rect fill="#F1F1F1" height="106.5625" rx="12.5" ry="12.5" style="stroke:#181818;stroke-width:1.5;" width="434.4922" x="1661.8359" y="311.5625"/><text fill="#000000" font-family="sans-serif" font-size="40" lengthAdjust="spacing" textLength="374.4922" x="1691.8359" y="378.6914">requirementFinder</text><path d="M1501.8359,483.125 L1511.8359,483.125 C1526.8359,483.125 1636.8359,364.8438 1651.8359,364.8438 L1661.8359,364.8438 " fill="none" style="stroke:#181818;stroke-width:1.0;"/><rect fill="#F1F1F1" height="106.5625" rx="12.5" ry="12.5" style="stroke:#181818;stroke-width:1.5;" width="586.2305" x="1661.8359" y="548.125"/><text fill="#000000" font-family="sans-serif" font-size="40" lengthAdjust="spacing" textLength="526.2305" x="1691.8359" y="615.2539">requirementConflictFinder</text><path d="M1501.8359,483.125 L1511.8359,483.125 C1526.8359,483.125 1636.8359,601.4063 1651.8359,601.4063 L1661.8359,601.4063 " fill="none" style="stroke:#181818;stroke-width:1.0;"/><rect fill="#F1F1F1" height="106.5625" rx="12.5" ry="12.5" style="stroke:#181818;stroke-width:1.5;" width="686.2695" x="1661.8359" y="784.6875"/><text fill="#000000" font-family="sans-serif" font-size="40" lengthAdjust="spacing" textLength="626.2695" x="1691.8359" y="851.8164">requirementDependencyFinder</text><path d="M1501.8359,483.125 L1511.8359,483.125 C1526.8359,483.125 1636.8359,837.9688 1651.8359,837.9688 L1661.8359,837.9688 " fill="none" style="stroke:#181818;stroke-width:1.0;"/><path d="M1001.0742,719.6875 L1011.0742,719.6875 C1026.0742,719.6875 1136.0742,483.125 1151.0742,483.125 L1161.0742,483.125 " fill="none" style="stroke:#181818;stroke-width:1.0;"/><rect fill="#F1F1F1" height="199.6875" rx="12.5" ry="12.5" style="stroke:#181818;stroke-width:1.5;" width="355.1953" x="1161.0742" y="1092.9688"/><text fill="#000000" font-family="sans-serif" font-size="40" lengthAdjust="spacing" textLength="88.3984" x="1218.457" y="1160.0977">Text</text><text fill="#000000" font-family="sans-serif" font-size="40" lengthAdjust="spacing" textLength="12.7148" x="1306.8555" y="1160.0977">&#160;</text><text fill="#000000" font-family="sans-serif" font-size="40" lengthAdjust="spacing" textLength="139.3164" x="1319.5703" y="1160.0977">Editing</text><text fill="#000000" font-family="sans-serif" font-size="40" lengthAdjust="spacing" textLength="75.2539" x="1191.0742" y="1206.6602">and</text><text fill="#000000" font-family="sans-serif" font-size="40" lengthAdjust="spacing" textLength="12.7148" x="1266.3281" y="1206.6602">&#160;</text><text fill="#000000" font-family="sans-serif" font-size="40" lengthAdjust="spacing" textLength="207.2266" x="1279.043" y="1206.6602">Document</text><text fill="#000000" font-family="sans-serif" font-size="40" lengthAdjust="spacing" textLength="215.1758" x="1231.084" y="1253.2227">Processing</text><rect fill="#F1F1F1" height="106.5625" rx="12.5" ry="12.5" style="stroke:#181818;stroke-width:1.5;" width="317.168" x="1676.2695" y="1021.25"/><text fill="#000000" font-family="sans-serif" font-size="40" lengthAdjust="spacing" textLength="257.168" x="1706.2695" y="1088.3789">spellChecker</text><path d="M1516.2695,1192.8125 L1526.2695,1192.8125 C1541.2695,1192.8125 1651.2695,1074.5313 1666.2695,1074.5313 L1676.2695,1074.5313 " fill="none" style="stroke:#181818;stroke-width:1.0;"/><rect fill="#F1F1F1" height="106.5625" rx="12.5" ry="12.5" style="stroke:#181818;stroke-width:1.5;" width="409.3359" x="1676.2695" y="1257.8125"/><text fill="#000000" font-family="sans-serif" font-size="40" lengthAdjust="spacing" textLength="349.3359" x="1706.2695" y="1324.9414">grammarChecker</text><path d="M1516.2695,1192.8125 L1526.2695,1192.8125 C1541.2695,1192.8125 1651.2695,1311.0938 1666.2695,1311.0938 L1676.2695,1311.0938 " fill="none" style="stroke:#181818;stroke-width:1.0;"/><path d="M1001.0742,719.6875 L1011.0742,719.6875 C1026.0742,719.6875 1136.0742,1192.8125 1151.0742,1192.8125 L1161.0742,1192.8125 " fill="none" style="stroke:#181818;stroke-width:1.0;"/><path d="M639.375,2724.8438 L649.375,2724.8438 C664.375,2724.8438 774.375,719.6875 789.375,719.6875 L799.375,719.6875 " fill="none" style="stroke:#181818;stroke-width:1.0;"/><rect fill="#90EE90" height="106.5625" rx="12.5" ry="12.5" style="stroke:#181818;stroke-width:1.5;" width="196.2695" x="799.375" y="2270.1563"/><a href="https://www.sphinx-doc.org/en/master/" target="_top" title="https://www.sphinx-doc.org/en/master/" xlink:actuate="onRequest" xlink:href="https://www.sphinx-doc.org/en/master/" xlink:show="new" xlink:title="https://www.sphinx-doc.org/en/master/" xlink:type="simple"><text fill="#0000FF" font-family="sans-serif" font-size="40" lengthAdjust="spacing" text-decoration="underline" textLength="136.2695" x="829.375" y="2337.2852">Sphinx</text></a><rect fill="#F1F1F1" height="153.125" rx="12.5" ry="12.5" style="stroke:#181818;stroke-width:1.5;" width="256.3672" x="1155.6445" y="2246.875"/><text fill="#000000" font-family="sans-serif" font-size="40" lengthAdjust="spacing" textLength="136.2695" x="1215.6934" y="2314.0039">Sphinx</text><text fill="#000000" font-family="sans-serif" font-size="40" lengthAdjust="spacing" textLength="196.3672" x="1185.6445" y="2360.5664">Extension</text><rect fill="#87CEFA" height="106.5625" rx="12.5" ry="12.5" style="stroke:#181818;stroke-width:1.5;" width="368.3594" x="1572.0117" y="1657.3438"/><text fill="#000000" font-family="sans-serif" font-size="40" lengthAdjust="spacing" textLength="308.3594" x="1602.0117" y="1724.4727">Documentation</text><path d="M1412.0117,2323.4375 L1422.0117,2323.4375 C1437.0117,2323.4375 1547.0117,1710.625 1562.0117,1710.625 L1572.0117,1710.625 " fill="none" style="stroke:#181818;stroke-width:1.0;"/><rect fill="#87CEFA" height="199.6875" rx="12.5" ry="12.5" style="stroke:#181818;stroke-width:1.5;" width="319.9219" x="1572.0117" y="1893.9063"/><text fill="#000000" font-family="sans-serif" font-size="40" lengthAdjust="spacing" textLength="231.3867" x="1616.2793" y="1961.0352">Automotive</text><text fill="#000000" font-family="sans-serif" font-size="40" lengthAdjust="spacing" textLength="259.9219" x="1602.0117" y="2007.5977">Requirement</text><text fill="#000000" font-family="sans-serif" font-size="40" lengthAdjust="spacing" textLength="234.5898" x="1614.6777" y="2054.1602">Traceability</text><path d="M1412.0117,2323.4375 L1422.0117,2323.4375 C1437.0117,2323.4375 1547.0117,1993.75 1562.0117,1993.75 L1572.0117,1993.75 " fill="none" style="stroke:#181818;stroke-width:1.0;"/><rect fill="#87CEFA" height="199.6875" rx="12.5" ry="12.5" style="stroke:#181818;stroke-width:1.5;" width="353.6328" x="1572.0117" y="2223.5938"/><text fill="#000000" font-family="sans-serif" font-size="40" lengthAdjust="spacing" textLength="215.4688" x="1641.0938" y="2290.7227">Interactive</text><text fill="#000000" font-family="sans-serif" font-size="40" lengthAdjust="spacing" textLength="224.7266" x="1636.4648" y="2337.2852">Web-based</text><text fill="#000000" font-family="sans-serif" font-size="40" lengthAdjust="spacing" textLength="196.4258" x="1602.0117" y="2383.8477">Analytical</text><text fill="#000000" font-family="sans-serif" font-size="40" lengthAdjust="spacing" textLength="12.7148" x="1798.4375" y="2383.8477">&#160;</text><text fill="#000000" font-family="sans-serif" font-size="40" lengthAdjust="spacing" textLength="84.4922" x="1811.1523" y="2383.8477">Tool</text><rect fill="#F1F1F1" height="106.5625" rx="12.5" ry="12.5" style="stroke:#181818;stroke-width:1.5;" width="171.3086" x="2085.6445" y="1797.0313"/><text fill="#000000" font-family="sans-serif" font-size="40" lengthAdjust="spacing" textLength="111.3086" x="2115.6445" y="1864.1602">HTML</text><path d="M1925.6445,2323.4375 L1935.6445,2323.4375 C1950.6445,2323.4375 2060.6445,1850.3125 2075.6445,1850.3125 L2085.6445,1850.3125 " fill="none" style="stroke:#181818;stroke-width:1.0;"/><rect fill="#F1F1F1" height="106.5625" rx="12.5" ry="12.5" style="stroke:#181818;stroke-width:1.5;" width="138.7109" x="2085.6445" y="2033.5938"/><text fill="#000000" font-family="sans-serif" font-size="40" lengthAdjust="spacing" textLength="78.7109" x="2115.6445" y="2100.7227">CSS</text><path d="M1925.6445,2323.4375 L1935.6445,2323.4375 C1950.6445,2323.4375 2060.6445,2086.875 2075.6445,2086.875 L2085.6445,2086.875 " fill="none" style="stroke:#181818;stroke-width:1.0;"/><rect fill="#FFFF00" height="106.5625" rx="12.5" ry="12.5" style="stroke:#181818;stroke-width:1.5;" width="260.5078" x="2085.6445" y="2270.1563"/><text fill="#000000" font-family="sans-serif" font-size="40" lengthAdjust="spacing" textLength="200.5078" x="2115.6445" y="2337.2852">JavaScript</text><rect fill="#F1F1F1" height="106.5625" rx="12.5" ry="12.5" style="stroke:#181818;stroke-width:1.5;" width="147.5781" x="2506.1523" y="1564.2188"/><a href="https://visjs.org" target="_top" title="https://visjs.org" xlink:actuate="onRequest" xlink:href="https://visjs.org" xlink:show="new" xlink:title="https://visjs.org" xlink:type="simple"><text fill="#0000FF" font-family="sans-serif" font-size="40" lengthAdjust="spacing" text-decoration="underline" textLength="87.5781" x="2536.1523" y="1631.3477">visjs</text></a><rect fill="#F1F1F1" height="246.25" rx="12.5" ry="12.5" style="stroke:#181818;stroke-width:1.5;" width="325.2539" x="2813.7305" y="1494.375"/><text fill="#000000" font-family="sans-serif" font-size="40" lengthAdjust="spacing" textLength="176.4063" x="2844.1699" y="1561.5039">Dynamic</text><text fill="#000000" font-family="sans-serif" font-size="40" lengthAdjust="spacing" textLength="12.7148" x="3020.5762" y="1561.5039">&#160;</text><text fill="#000000" font-family="sans-serif" font-size="40" lengthAdjust="spacing" textLength="75.2539" x="3033.291" y="1561.5039">and</text><text fill="#000000" font-family="sans-serif" font-size="40" lengthAdjust="spacing" textLength="214.7852" x="2868.9648" y="1608.0664">interactive</text><text fill="#000000" font-family="sans-serif" font-size="40" lengthAdjust="spacing" textLength="90.0977" x="2843.7305" y="1654.6289">data</text><text fill="#000000" font-family="sans-serif" font-size="40" lengthAdjust="spacing" textLength="12.7148" x="2933.8281" y="1654.6289">&#160;</text><text fill="#000000" font-family="sans-serif" font-size="40" lengthAdjust="spacing" textLength="162.4414" x="2946.543" y="1654.6289">network</text><text fill="#000000" font-family="sans-serif" font-size="40" lengthAdjust="spacing" textLength="249.8438" x="2851.4355" y="1701.1914">visualization</text><path d="M2653.7305,1617.5 L2663.7305,1617.5 C2678.7305,1617.5 2788.7305,1617.5 2803.7305,1617.5 L2813.7305,1617.5 " fill="none" style="stroke:#181818;stroke-width:1.0;"/><path d="M2346.1523,2323.4375 L2356.1523,2323.4375 C2371.1523,2323.4375 2481.1523,1617.5 2496.1523,1617.5 L2506.1523,1617.5 " fill="none" style="stroke:#181818;stroke-width:1.0;"/><rect fill="#F1F1F1" height="106.5625" rx="12.5" ry="12.5" style="stroke:#181818;stroke-width:1.5;" width="167.3438" x="2506.1523" y="1940.4688"/><a href="https://github.com/peggyjs/peggy" target="_top" title="https://github.com/peggyjs/peggy" xlink:actuate="onRequest" xlink:href="https://github.com/peggyjs/peggy" xlink:show="new" xlink:title="https://github.com/peggyjs/peggy" xlink:type="simple"><text fill="#0000FF" font-family="sans-serif" font-size="40" lengthAdjust="spacing" text-decoration="underline" textLength="107.3438" x="2536.1523" y="2007.5977">pegjs</text></a><rect fill="#F1F1F1" height="246.25" rx="12.5" ry="12.5" style="stroke:#181818;stroke-width:1.5;" width="320.8789" x="2833.4961" y="1870.625"/><text fill="#000000" font-family="sans-serif" font-size="40" lengthAdjust="spacing" textLength="172.9102" x="2863.4961" y="1937.7539">Powerful</text><text fill="#000000" font-family="sans-serif" font-size="40" lengthAdjust="spacing" textLength="12.7148" x="3036.4063" y="1937.7539">&#160;</text><text fill="#000000" font-family="sans-serif" font-size="40" lengthAdjust="spacing" textLength="75.2539" x="3049.1211" y="1937.7539">and</text><text fill="#000000" font-family="sans-serif" font-size="40" lengthAdjust="spacing" textLength="145.7031" x="2921.084" y="1984.3164">flexible</text><text fill="#000000" font-family="sans-serif" font-size="40" lengthAdjust="spacing" textLength="128.2422" x="2929.8145" y="2030.8789">parser</text><text fill="#000000" font-family="sans-serif" font-size="40" lengthAdjust="spacing" textLength="197.5195" x="2895.1758" y="2077.4414">generator</text><path d="M2673.4961,1993.75 L2683.4961,1993.75 C2698.4961,1993.75 2808.4961,1993.75 2823.4961,1993.75 L2833.4961,1993.75 " fill="none" style="stroke:#181818;stroke-width:1.0;"/><path d="M2346.1523,2323.4375 L2356.1523,2323.4375 C2371.1523,2323.4375 2481.1523,1993.75 2496.1523,1993.75 L2506.1523,1993.75 " fill="none" style="stroke:#181818;stroke-width:1.0;"/><rect fill="#F1F1F1" height="106.5625" rx="12.5" ry="12.5" style="stroke:#181818;stroke-width:1.5;" width="204.2969" x="2506.1523" y="2316.7188"/><a href="https://github.com/select2/select2" target="_top" title="https://github.com/select2/select2" xlink:actuate="onRequest" xlink:href="https://github.com/select2/select2" xlink:show="new" xlink:title="https://github.com/select2/select2" xlink:type="simple"><text fill="#0000FF" font-family="sans-serif" font-size="40" lengthAdjust="spacing" text-decoration="underline" textLength="144.2969" x="2536.1523" y="2383.8477">select2</text></a><rect fill="#F1F1F1" height="246.25" rx="12.5" ry="12.5" style="stroke:#181818;stroke-width:1.5;" width="348.5547" x="2870.4492" y="2246.875"/><text fill="#000000" font-family="sans-serif" font-size="40" lengthAdjust="spacing" textLength="139.8633" x="2940.9375" y="2314.0039">Library</text><text fill="#000000" font-family="sans-serif" font-size="40" lengthAdjust="spacing" textLength="12.7148" x="3080.8008" y="2314.0039">&#160;</text><text fill="#000000" font-family="sans-serif" font-size="40" lengthAdjust="spacing" textLength="55" x="3093.5156" y="2314.0039">for</text><text fill="#000000" font-family="sans-serif" font-size="40" lengthAdjust="spacing" textLength="165.0977" x="2962.1777" y="2360.5664">creating</text><text fill="#000000" font-family="sans-serif" font-size="40" lengthAdjust="spacing" textLength="75.2539" x="2900.4492" y="2407.1289">and</text><text fill="#000000" font-family="sans-serif" font-size="40" lengthAdjust="spacing" textLength="12.7148" x="2975.7031" y="2407.1289">&#160;</text><text fill="#000000" font-family="sans-serif" font-size="40" lengthAdjust="spacing" textLength="200.5859" x="2988.418" y="2407.1289">managing</text><text fill="#000000" font-family="sans-serif" font-size="40" lengthAdjust="spacing" textLength="87.2461" x="2943.3008" y="2453.6914">user</text><text fill="#000000" font-family="sans-serif" font-size="40" lengthAdjust="spacing" textLength="12.7148" x="3030.5469" y="2453.6914">&#160;</text><text fill="#000000" font-family="sans-serif" font-size="40" lengthAdjust="spacing" textLength="102.8906" x="3043.2617" y="2453.6914">input</text><path d="M2710.4492,2370 L2720.4492,2370 C2735.4492,2370 2845.4492,2370 2860.4492,2370 L2870.4492,2370 " fill="none" style="stroke:#181818;stroke-width:1.0;"/><path d="M2346.1523,2323.4375 L2356.1523,2323.4375 C2371.1523,2323.4375 2481.1523,2370 2496.1523,2370 L2506.1523,2370 " fill="none" style="stroke:#181818;stroke-width:1.0;"/><rect fill="#F1F1F1" height="106.5625" rx="12.5" ry="12.5" style="stroke:#181818;stroke-width:1.5;" width="192.6758" x="2506.1523" y="2669.6875"/><a href="https://github.com/jquery/jquery" target="_top" title="https://github.com/jquery/jquery" xlink:actuate="onRequest" xlink:href="https://github.com/jquery/jquery" xlink:show="new" xlink:title="https://github.com/jquery/jquery" xlink:type="simple"><text fill="#0000FF" font-family="sans-serif" font-size="40" lengthAdjust="spacing" text-decoration="underline" textLength="132.6758" x="2536.1523" y="2736.8164">jQuery</text></a><rect fill="#F1F1F1" height="199.6875" rx="12.5" ry="12.5" style="stroke:#181818;stroke-width:1.5;" width="322.9297" x="2858.8281" y="2623.125"/><text fill="#000000" font-family="sans-serif" font-size="40" lengthAdjust="spacing" textLength="96.7969" x="2971.8945" y="2690.2539">DOM</text><text fill="#000000" font-family="sans-serif" font-size="40" lengthAdjust="spacing" textLength="262.9297" x="2888.8281" y="2736.8164">manipulation</text><text fill="#000000" font-family="sans-serif" font-size="40" lengthAdjust="spacing" textLength="128.6914" x="2955.9473" y="2783.3789">library</text><path d="M2698.8281,2722.9688 L2708.8281,2722.9688 C2723.8281,2722.9688 2833.8281,2722.9688 2848.8281,2722.9688 L2858.8281,2722.9688 " fill="none" style="stroke:#181818;stroke-width:1.0;"/><path d="M2346.1523,2323.4375 L2356.1523,2323.4375 C2371.1523,2323.4375 2481.1523,2722.9688 2496.1523,2722.9688 L2506.1523,2722.9688 " fill="none" style="stroke:#181818;stroke-width:1.0;"/><rect fill="#F1F1F1" height="106.5625" rx="12.5" ry="12.5" style="stroke:#181818;stroke-width:1.5;" width="286.4063" x="2506.1523" y="2999.375"/><a href="https://github.com/DataTables/DataTablesSrc" target="_top" title="https://github.com/DataTables/DataTablesSrc" xlink:actuate="onRequest" xlink:href="https://github.com/DataTables/DataTablesSrc" xlink:show="new" xlink:title="https://github.com/DataTables/DataTablesSrc" xlink:type="simple"><text fill="#0000FF" font-family="sans-serif" font-size="40" lengthAdjust="spacing" text-decoration="underline" textLength="226.4063" x="2536.1523" y="3066.5039">DataTables</text></a><rect fill="#F1F1F1" height="199.6875" rx="12.5" ry="12.5" style="stroke:#181818;stroke-width:1.5;" width="285.332" x="2952.5586" y="2952.8125"/><text fill="#000000" font-family="sans-serif" font-size="40" lengthAdjust="spacing" textLength="111.3086" x="2982.5586" y="3019.9414">HTML</text><text fill="#000000" font-family="sans-serif" font-size="40" lengthAdjust="spacing" textLength="12.7148" x="3093.8672" y="3019.9414">&#160;</text><text fill="#000000" font-family="sans-serif" font-size="40" lengthAdjust="spacing" textLength="101.3086" x="3106.582" y="3019.9414">table</text><text fill="#000000" font-family="sans-serif" font-size="40" lengthAdjust="spacing" textLength="209.0234" x="2990.7129" y="3066.5039">enhancing</text><text fill="#000000" font-family="sans-serif" font-size="40" lengthAdjust="spacing" textLength="128.6914" x="3030.8789" y="3113.0664">library</text><path d="M2792.5586,3052.6563 L2802.5586,3052.6563 C2817.5586,3052.6563 2927.5586,3052.6563 2942.5586,3052.6563 L2952.5586,3052.6563 " fill="none" style="stroke:#181818;stroke-width:1.0;"/><path d="M2346.1523,2323.4375 L2356.1523,2323.4375 C2371.1523,2323.4375 2481.1523,3052.6563 2496.1523,3052.6563 L2506.1523,3052.6563 " fill="none" style="stroke:#181818;stroke-width:1.0;"/><path d="M1925.6445,2323.4375 L1935.6445,2323.4375 C1950.6445,2323.4375 2060.6445,2323.4375 2075.6445,2323.4375 L2085.6445,2323.4375 " fill="none" style="stroke:#181818;stroke-width:1.0;"/><path d="M1412.0117,2323.4375 L1422.0117,2323.4375 C1437.0117,2323.4375 1547.0117,2323.4375 1562.0117,2323.4375 L1572.0117,2323.4375 " fill="none" style="stroke:#181818;stroke-width:1.0;"/><rect fill="#87CEFA" height="199.6875" rx="12.5" ry="12.5" style="stroke:#181818;stroke-width:1.5;" width="336.0742" x="1572.0117" y="2553.2813"/><text fill="#000000" font-family="sans-serif" font-size="40" lengthAdjust="spacing" textLength="257.0898" x="1611.5039" y="2620.4102">Complement</text><text fill="#000000" font-family="sans-serif" font-size="40" lengthAdjust="spacing" textLength="40.1563" x="1719.9707" y="2666.9727">to</text><text fill="#000000" font-family="sans-serif" font-size="40" lengthAdjust="spacing" textLength="276.0742" x="1602.0117" y="2713.5352">Sphinx-Needs</text><path d="M1412.0117,2323.4375 L1422.0117,2323.4375 C1437.0117,2323.4375 1547.0117,2653.125 1562.0117,2653.125 L1572.0117,2653.125 " fill="none" style="stroke:#181818;stroke-width:1.0;"/><path d="M995.6445,2323.4375 L1005.6445,2323.4375 C1020.6445,2323.4375 1130.6445,2323.4375 1145.6445,2323.4375 L1155.6445,2323.4375 " fill="none" style="stroke:#181818;stroke-width:1.0;"/><path d="M639.375,2724.8438 L649.375,2724.8438 C664.375,2724.8438 774.375,2323.4375 789.375,2323.4375 L799.375,2323.4375 " fill="none" style="stroke:#181818;stroke-width:1.0;"/><rect fill="#90EE90" height="199.6875" rx="12.5" ry="12.5" style="stroke:#181818;stroke-width:1.5;" width="317.8125" x="799.375" y="3354.2188"/><text fill="#000000" font-family="sans-serif" font-size="40" lengthAdjust="spacing" textLength="106.8359" x="829.375" y="3421.3477">Open</text><text fill="#000000" font-family="sans-serif" font-size="40" lengthAdjust="spacing" textLength="12.7148" x="936.2109" y="3421.3477">&#160;</text><text fill="#000000" font-family="sans-serif" font-size="40" lengthAdjust="spacing" textLength="138.2617" x="948.9258" y="3421.3477">Source</text><text fill="#000000" font-family="sans-serif" font-size="40" lengthAdjust="spacing" textLength="138.4375" x="889.0625" y="3467.9102">Project</text><text fill="#000000" font-family="sans-serif" font-size="40" lengthAdjust="spacing" textLength="180.5469" x="843.418" y="3514.4727">available</text><text fill="#000000" font-family="sans-serif" font-size="40" lengthAdjust="spacing" textLength="12.7148" x="1023.9648" y="3514.4727">&#160;</text><text fill="#000000" font-family="sans-serif" font-size="40" lengthAdjust="spacing" textLength="36.4648" x="1036.6797" y="3514.4727">in</text><rect fill="#F1F1F1" height="106.5625" rx="12.5" ry="12.5" style="stroke:#181818;stroke-width:1.5;" width="193.8867" x="1277.1875" y="3282.5"/><a href="https://github.com/mi-parkes/sphinx-needs-data-explorer" target="_top" title="https://github.com/mi-parkes/sphinx-needs-data-explorer" xlink:actuate="onRequest" xlink:href="https://github.com/mi-parkes/sphinx-needs-data-explorer" xlink:show="new" xlink:title="https://github.com/mi-parkes/sphinx-needs-data-explorer" xlink:type="simple"><text fill="#0000FF" font-family="sans-serif" font-size="40" lengthAdjust="spacing" text-decoration="underline" textLength="133.8867" x="1307.1875" y="3349.6289">Github</text></a><path d="M1117.1875,3454.0625 L1127.1875,3454.0625 C1142.1875,3454.0625 1252.1875,3335.7813 1267.1875,3335.7813 L1277.1875,3335.7813 " fill="none" style="stroke:#181818;stroke-width:1.0;"/><rect fill="#F1F1F1" height="106.5625" rx="12.5" ry="12.5" style="stroke:#181818;stroke-width:1.5;" width="144.4727" x="1277.1875" y="3519.0625"/><a href="https://pypi.org/project/sphinx-needs-data-explorer" target="_top" title="https://pypi.org/project/sphinx-needs-data-explorer" xlink:actuate="onRequest" xlink:href="https://pypi.org/project/sphinx-needs-data-explorer" xlink:show="new" xlink:title="https://pypi.org/project/sphinx-needs-data-explorer" xlink:type="simple"><text fill="#0000FF" font-family="sans-serif" font-size="40" lengthAdjust="spacing" text-decoration="underline" textLength="84.4727" x="1307.1875" y="3586.1914">PYPI</text></a><path d="M1117.1875,3454.0625 L1127.1875,3454.0625 C1142.1875,3454.0625 1252.1875,3572.3438 1267.1875,3572.3438 L1277.1875,3572.3438 " fill="none" style="stroke:#181818;stroke-width:1.0;"/><path d="M639.375,2724.8438 L649.375,2724.8438 C664.375,2724.8438 774.375,3454.0625 789.375,3454.0625 L799.375,3454.0625 " fill="none" style="stroke:#181818;stroke-width:1.0;"/><rect fill="#90EE90" height="106.5625" rx="12.5" ry="12.5" style="stroke:#181818;stroke-width:1.5;" width="250.2344" x="799.375" y="3992.1875"/><text fill="#000000" font-family="sans-serif" font-size="40" lengthAdjust="spacing" textLength="190.2344" x="829.375" y="4059.3164">Platforms</text><rect fill="#F1F1F1" height="106.5625" rx="12.5" ry="12.5" style="stroke:#181818;stroke-width:1.5;" width="167.7734" x="1209.6094" y="3755.625"/><text fill="#000000" font-family="sans-serif" font-size="40" lengthAdjust="spacing" textLength="107.7734" x="1239.6094" y="3822.7539">Linux</text><path d="M1049.6094,4045.4688 L1059.6094,4045.4688 C1074.6094,4045.4688 1184.6094,3808.9063 1199.6094,3808.9063 L1209.6094,3808.9063 " fill="none" style="stroke:#181818;stroke-width:1.0;"/><rect fill="#F1F1F1" height="106.5625" rx="12.5" ry="12.5" style="stroke:#181818;stroke-width:1.5;" width="250.7227" x="1209.6094" y="3992.1875"/><text fill="#000000" font-family="sans-serif" font-size="40" lengthAdjust="spacing" textLength="81.0156" x="1239.6094" y="4059.3164">Mac</text><text fill="#000000" font-family="sans-serif" font-size="40" lengthAdjust="spacing" textLength="12.7148" x="1320.625" y="4059.3164">&#160;</text><text fill="#000000" font-family="sans-serif" font-size="40" lengthAdjust="spacing" textLength="56.875" x="1333.3398" y="4059.3164">OS</text><text fill="#000000" font-family="sans-serif" font-size="40" lengthAdjust="spacing" textLength="12.7148" x="1390.2148" y="4059.3164">&#160;</text><text fill="#000000" font-family="sans-serif" font-size="40" lengthAdjust="spacing" textLength="27.4023" x="1402.9297" y="4059.3164">X</text><path d="M1049.6094,4045.4688 L1059.6094,4045.4688 C1074.6094,4045.4688 1184.6094,4045.4688 1199.6094,4045.4688 L1209.6094,4045.4688 " fill="none" style="stroke:#181818;stroke-width:1.0;"/><rect fill="#F1F1F1" height="106.5625" rx="12.5" ry="12.5" style="stroke:#181818;stroke-width:1.5;" width="336.5625" x="1209.6094" y="4228.75"/><text fill="#000000" font-family="sans-serif" font-size="40" lengthAdjust="spacing" textLength="179.4336" x="1239.6094" y="4295.8789">Windows</text><text fill="#000000" font-family="sans-serif" font-size="40" lengthAdjust="spacing" textLength="12.7148" x="1419.043" y="4295.8789">&#160;</text><text fill="#000000" font-family="sans-serif" font-size="40" lengthAdjust="spacing" textLength="84.4141" x="1431.7578" y="4295.8789">+10</text><path d="M1049.6094,4045.4688 L1059.6094,4045.4688 C1074.6094,4045.4688 1184.6094,4282.0313 1199.6094,4282.0313 L1209.6094,4282.0313 " fill="none" style="stroke:#181818;stroke-width:1.0;"/><path d="M639.375,2724.8438 L649.375,2724.8438 C664.375,2724.8438 774.375,4045.4688 789.375,4045.4688 L799.375,4045.4688 " fill="none" style="stroke:#181818;stroke-width:1.0;"/><rect fill="#90EE90" height="153.125" rx="12.5" ry="12.5" style="stroke:#181818;stroke-width:1.5;" width="329.2773" x="799.375" y="4843.4375"/><text fill="#000000" font-family="sans-serif" font-size="40" lengthAdjust="spacing" textLength="269.2773" x="829.375" y="4910.5664">Development</text><text fill="#000000" font-family="sans-serif" font-size="40" lengthAdjust="spacing" textLength="105.332" x="911.3477" y="4957.1289">Tools</text><rect fill="#87CEFA" height="153.125" rx="12.5" ry="12.5" style="stroke:#181818;stroke-width:1.5;" width="323.4961" x="1288.6523" y="4465.3125"/><text fill="#000000" font-family="sans-serif" font-size="40" lengthAdjust="spacing" textLength="168.3008" x="1366.25" y="4532.4414">Package</text><text fill="#000000" font-family="sans-serif" font-size="40" lengthAdjust="spacing" textLength="263.4961" x="1318.6523" y="4579.0039">Management</text><rect fill="#F1F1F1" height="106.5625" rx="12.5" ry="12.5" style="stroke:#181818;stroke-width:1.5;" width="190.2734" x="1772.1484" y="4488.5938"/><text fill="#000000" font-family="sans-serif" font-size="40" lengthAdjust="spacing" textLength="130.2734" x="1802.1484" y="4555.7227">poetry</text><path d="M1612.1484,4541.875 L1622.1484,4541.875 C1637.1484,4541.875 1747.1484,4541.875 1762.1484,4541.875 L1772.1484,4541.875 " fill="none" style="stroke:#181818;stroke-width:1.0;"/><path d="M1128.6523,4920 L1138.6523,4920 C1153.6523,4920 1263.6523,4541.875 1278.6523,4541.875 L1288.6523,4541.875 " fill="none" style="stroke:#181818;stroke-width:1.0;"/><rect fill="#87CEFA" height="106.5625" rx="12.5" ry="12.5" style="stroke:#181818;stroke-width:1.5;" width="127.8711" x="1288.6523" y="4748.4375"/><text fill="#000000" font-family="sans-serif" font-size="40" lengthAdjust="spacing" textLength="67.8711" x="1318.6523" y="4815.5664">IDE</text><rect fill="#F1F1F1" height="106.5625" rx="12.5" ry="12.5" style="stroke:#181818;stroke-width:1.5;" width="227.8711" x="1576.5234" y="4748.4375"/><text fill="#000000" font-family="sans-serif" font-size="40" lengthAdjust="spacing" textLength="52.7539" x="1606.5234" y="4815.5664">VS</text><text fill="#000000" font-family="sans-serif" font-size="40" lengthAdjust="spacing" textLength="12.7148" x="1659.2773" y="4815.5664">&#160;</text><text fill="#000000" font-family="sans-serif" font-size="40" lengthAdjust="spacing" textLength="102.4023" x="1671.9922" y="4815.5664">Code</text><rect fill="#F1F1F1" height="106.5625" rx="12.5" ry="12.5" style="stroke:#181818;stroke-width:1.5;" width="334.5508" x="1964.3945" y="4748.4375"/><text fill="#000000" font-family="sans-serif" font-size="40" lengthAdjust="spacing" textLength="274.5508" x="1994.3945" y="4815.5664">DevContainer</text><path d="M1804.3945,4801.7188 L1814.3945,4801.7188 C1829.3945,4801.7188 1939.3945,4801.7188 1954.3945,4801.7188 L1964.3945,4801.7188 " fill="none" style="stroke:#181818;stroke-width:1.0;"/><path d="M1416.5234,4801.7188 L1426.5234,4801.7188 C1441.5234,4801.7188 1551.5234,4801.7188 1566.5234,4801.7188 L1576.5234,4801.7188 " fill="none" style="stroke:#181818;stroke-width:1.0;"/><path d="M1128.6523,4920 L1138.6523,4920 C1153.6523,4920 1263.6523,4801.7188 1278.6523,4801.7188 L1288.6523,4801.7188 " fill="none" style="stroke:#181818;stroke-width:1.0;"/><rect fill="#87CEFA" height="106.5625" rx="12.5" ry="12.5" style="stroke:#181818;stroke-width:1.5;" width="171.9336" x="1288.6523" y="5126.5625"/><text fill="#000000" font-family="sans-serif" font-size="40" lengthAdjust="spacing" textLength="111.9336" x="1318.6523" y="5193.6914">CI/CD</text><rect fill="#F1F1F1" height="106.5625" rx="12.5" ry="12.5" style="stroke:#181818;stroke-width:1.5;" width="358.1445" x="1620.5859" y="5126.5625"/><text fill="#000000" font-family="sans-serif" font-size="40" lengthAdjust="spacing" textLength="138.6133" x="1650.5859" y="5193.6914">GitHub</text><text fill="#000000" font-family="sans-serif" font-size="40" lengthAdjust="spacing" textLength="12.7148" x="1789.1992" y="5193.6914">&#160;</text><text fill="#000000" font-family="sans-serif" font-size="40" lengthAdjust="spacing" textLength="146.8164" x="1801.9141" y="5193.6914">Actions</text><rect fill="#F1F1F1" height="106.5625" rx="12.5" ry="12.5" style="stroke:#181818;stroke-width:1.5;" width="368.3594" x="2138.7305" y="5126.5625"/><text fill="#000000" font-family="sans-serif" font-size="40" lengthAdjust="spacing" textLength="308.3594" x="2168.7305" y="5193.6914">Documentation</text><rect fill="#F1F1F1" height="106.5625" rx="12.5" ry="12.5" style="stroke:#181818;stroke-width:1.5;" width="283.1445" x="2667.0898" y="4985"/><text fill="#000000" font-family="sans-serif" font-size="40" lengthAdjust="spacing" textLength="223.1445" x="2697.0898" y="5052.1289">Generation</text><path d="M2507.0898,5179.8438 L2517.0898,5179.8438 C2532.0898,5179.8438 2642.0898,5038.2813 2657.0898,5038.2813 L2667.0898,5038.2813 " fill="none" style="stroke:#181818;stroke-width:1.0;"/><rect fill="#F1F1F1" height="153.125" rx="12.5" ry="12.5" style="stroke:#181818;stroke-width:1.5;" width="357.5391" x="2667.0898" y="5221.5625"/><text fill="#000000" font-family="sans-serif" font-size="40" lengthAdjust="spacing" textLength="244.668" x="2697.0898" y="5288.6914">Deployment</text><text fill="#000000" font-family="sans-serif" font-size="40" lengthAdjust="spacing" textLength="12.7148" x="2941.7578" y="5288.6914">&#160;</text><text fill="#000000" font-family="sans-serif" font-size="40" lengthAdjust="spacing" textLength="40.1563" x="2954.4727" y="5288.6914">to</text><text fill="#000000" font-family="sans-serif" font-size="40" lengthAdjust="spacing" textLength="138.6133" x="2710.459" y="5335.2539">GitHub</text><text fill="#000000" font-family="sans-serif" font-size="40" lengthAdjust="spacing" textLength="12.7148" x="2849.0723" y="5335.2539">&#160;</text><text fill="#000000" font-family="sans-serif" font-size="40" lengthAdjust="spacing" textLength="119.4727" x="2861.7871" y="5335.2539">Pages</text><path d="M2507.0898,5179.8438 L2517.0898,5179.8438 C2532.0898,5179.8438 2642.0898,5298.125 2657.0898,5298.125 L2667.0898,5298.125 " fill="none" style="stroke:#181818;stroke-width:1.0;"/><path d="M1978.7305,5179.8438 L1988.7305,5179.8438 C2003.7305,5179.8438 2113.7305,5179.8438 2128.7305,5179.8438 L2138.7305,5179.8438 " fill="none" style="stroke:#181818;stroke-width:1.0;"/><path d="M1460.5859,5179.8438 L1470.5859,5179.8438 C1485.5859,5179.8438 1595.5859,5179.8438 1610.5859,5179.8438 L1620.5859,5179.8438 " fill="none" style="stroke:#181818;stroke-width:1.0;"/><path d="M1128.6523,4920 L1138.6523,4920 C1153.6523,4920 1263.6523,5179.8438 1278.6523,5179.8438 L1288.6523,5179.8438 " fill="none" style="stroke:#181818;stroke-width:1.0;"/><path d="M639.375,2724.8438 L649.375,2724.8438 C664.375,2724.8438 774.375,4920 789.375,4920 L799.375,4920 " fill="none" style="stroke:#181818;stroke-width:1.0;"/><!--SRC=[xLPBSzis4BxpLspYT9oebVMmuqarJYQsv3HshLWrbQGPsvE1o3K52mGO0DGZdVxtBa3AefpOxI677dmXW5rWlyM7VV2riKpRbCiuPHcORCpb_BD4ZCtdc5ds6UUPK1fr46ng9YSnrozFpa2g60rcBzjDafi9bndJB5sAuNdpfwhO7LoALz8OhrWkx1ibRSY_8koiQNk5TeXpkozu8bEK5YBwE5SQcy6UiGk1hmA0qlSUPuax-1U9meW9X5QJfYTSObVH5U10i6X24k-btmRWmD-n5E5CZPHLNZPWSSnb0i_zgizqmYMq_6gJzkKoxYejKKEhvNUi44PB13YWIQABlKwp4KNRsr5KtsZIoA8Rx48x6tEBDxP2Tp5etgo7OnvD91e31Pwxg99Cb5uyBtRskUHfddxaiHr3kraAsVosyEzWhr5Ijza8xgUnojIIbUrcbPRTWgJDDVJMzz2tRwC7crPbO1KGyLPHE72DaULAKg3nP6oTIk2LhIZyaiI5ldB0-FTkRf4xZvvefGfUNpxUEANGI_1n43pAj8empZN2apHosgTFw0gjNzot_IpOyxBEIEJuwlmSlCv_st1vkTVmsbV18vJnZQ4Wg9slm2xlovrQxNn3EASJZIWlWH36rcQcqsWat8xpqLQaqeOIWgLiEOo46ZLIncNZx72_rp_SIcCuzIhoY2pMu0o_vCI1omm3-nGH2yEDqzH0hrJTCKOJxyEw_0szztV4NIMl18_kKlSm8mvGHelL1d192eSnjov0c8oXfwBS9-p0aMKCoGjB9aCXrZnomPOolPBToTHiDjigEAx7AjfIEccW98OCbOG6X5wpfAPS7SujIkD2n66TRvmuo-5aSK3FV7dZ9RDtxTZFAJALvLEiadqXXvf5o4PSSBluxi4ZLwTOv4z-n55zn0p65z8_akKKhJ1KIlYZDNWxx9-KqsuO5hFpZK_4b9fTmZ6RiZ3IFBE5fbRbPChDjN5KW9-Lr_UxUWl9KXxvz-0hTowa2qsGQ6TAJzond0d-TSN1Ea0bF3DCaiMrAKQWxphUGCrGN-N20ru9dFEH83IgveQgL89KgvXL-duCWu9okhqSOJbMS4xuI3EzW2igd956veBkGZhGb4cMk13C7I8rajpUZtRz9KUzA0Uu_iCFLGfF-yueptBX-G5HODzljKVy3XbTtbIceOvWjQg2kDS7wyI0Sinav6vG1ReTMrsLPi87egk5HQJNtxcgyqtsd5AoGgXo7Q5BnMlYagYQCYuy7lSlViSrKbwdjvlGBSgayuMjxgAdlYniy9lVlyowYg5iaN6Veba1Uv-HmQV1KM5YtVi1iKwldFgQvbfXFlUpFelWD8G__U8ZbI4rC_0pTVlR1deuHQ4oJvNBDs_eDfq3QjKiGR9AqUDfBGfJfj0MB_1DSlSEYoqVGdgC6ClS9JGgdfOgTb7RRX-3xb6ZsojE4czlYRTztx_Cqi0tzSZjB1Ad8g4IBDHY-VwbfG7vReBNL9lBFXu4h__pdzsF-IdxGVyI__BNSDS_WEl6PRj_QCKFhVYX5J-queTM_D2A_n-jcEYJzZq5rnIrgu7GscetspjRkqz3Pk6OChMv2yrVEwsTplOBU3_iWbC_2vxsZuPWYg29kR6QZtA7_onmfGZEScbvYXqVNCUztvS2E9HJhfLlpy7nX_vgm-vE_O1R256J9_2X7vGTdKv4olNa3g6_gRy8JgYHvdIH3cL2q5LaLoz85_u3]--></g></svg>