<svg xmlns="http://www.w3.org/2000/svg" xmlns:xlink="http://www.w3.org/1999/xlink" contentStyleType="text/css" height="835.65px" preserveAspectRatio="none" style="width:2655px;height:835px;background:#FFFFFF;" version="1.1" viewBox="0 0 2655 835" width="2655px" zoomAndPan="magnify"><defs/><g><rect fill="#FFA500" height="47.9531" rx="5.625" ry="5.625" style="stroke:#181818;stroke-width:0.675;" width="283.2188" x="1185.6632" y="4.5"/><text fill="#000000" font-family="sans-serif" font-size="18" lengthAdjust="spacing" textLength="256.2188" x="1199.1632" y="34.708">sphinx_needs_data_explorer</text><rect fill="#90EE90" height="47.9531" rx="5.625" ry="5.625" style="stroke:#181818;stroke-width:0.675;" width="88.3213" x="481.6285" y="113.2031"/><a href="https://www.sphinx-doc.org/en/master/" target="_top" title="https://www.sphinx-doc.org/en/master/" xlink:actuate="onRequest" xlink:href="https://www.sphinx-doc.org/en/master/" xlink:show="new" xlink:title="https://www.sphinx-doc.org/en/master/" xlink:type="simple"><text fill="#0000FF" font-family="sans-serif" font-size="18" lengthAdjust="spacing" text-decoration="underline" textLength="61.3213" x="495.1285" y="143.4111">Sphinx</text></a><rect fill="#F1F1F1" height="68.9063" rx="5.625" ry="5.625" style="stroke:#181818;stroke-width:0.675;" width="115.3652" x="468.1066" y="221.9063"/><text fill="#000000" font-family="sans-serif" font-size="18" lengthAdjust="spacing" textLength="61.3213" x="495.1285" y="252.1143">Sphinx</text><text fill="#000000" font-family="sans-serif" font-size="18" lengthAdjust="spacing" textLength="88.3652" x="481.6066" y="273.0674">Extension</text><rect fill="#87CEFA" height="47.9531" rx="5.625" ry="5.625" style="stroke:#181818;stroke-width:0.675;" width="165.7617" x="33.75" y="351.5625"/><text fill="#000000" font-family="sans-serif" font-size="18" lengthAdjust="spacing" textLength="138.7617" x="47.25" y="381.7705">Documentation</text><path d="M525.7892,290.8125 L525.7892,292.1625 C525.7892,295.3125 116.6309,347.0625 116.6309,350.2125 L116.6309,351.5625 " fill="none" style="stroke:#181818;stroke-width:0.45;"/><rect fill="#87CEFA" height="89.8594" rx="5.625" ry="5.625" style="stroke:#181818;stroke-width:0.675;" width="143.9648" x="258.0117" y="351.5625"/><text fill="#000000" font-family="sans-serif" font-size="18" lengthAdjust="spacing" textLength="104.124" x="277.9321" y="381.7705">Automotive</text><text fill="#000000" font-family="sans-serif" font-size="18" lengthAdjust="spacing" textLength="116.9648" x="271.5117" y="402.7236">Requirement</text><text fill="#000000" font-family="sans-serif" font-size="18" lengthAdjust="spacing" textLength="105.5654" x="277.2114" y="423.6768">Traceability</text><path d="M525.7892,290.8125 L525.7892,292.1625 C525.7892,295.3125 329.9941,347.0625 329.9941,350.2125 L329.9941,351.5625 " fill="none" style="stroke:#181818;stroke-width:0.45;"/><rect fill="#87CEFA" height="89.8594" rx="5.625" ry="5.625" style="stroke:#181818;stroke-width:0.675;" width="159.1348" x="460.4766" y="351.5625"/><text fill="#000000" font-family="sans-serif" font-size="18" lengthAdjust="spacing" textLength="96.9609" x="491.5635" y="381.7705">Interactive</text><text fill="#000000" font-family="sans-serif" font-size="18" lengthAdjust="spacing" textLength="101.127" x="489.4805" y="402.7236">Web-based</text><text fill="#000000" font-family="sans-serif" font-size="18" lengthAdjust="spacing" textLength="88.3916" x="473.9766" y="423.6768">Analytical</text><text fill="#000000" font-family="sans-serif" font-size="18" lengthAdjust="spacing" textLength="5.7217" x="562.3682" y="423.6768">&#160;</text><text fill="#000000" font-family="sans-serif" font-size="18" lengthAdjust="spacing" textLength="38.0215" x="568.0898" y="423.6768">Tool</text><rect fill="#F1F1F1" height="47.9531" rx="5.625" ry="5.625" style="stroke:#181818;stroke-width:0.675;" width="77.0889" x="224.9209" y="502.1719"/><text fill="#000000" font-family="sans-serif" font-size="18" lengthAdjust="spacing" textLength="50.0889" x="238.4209" y="532.3799">HTML</text><path d="M540.0439,441.4219 L540.0439,442.7719 C540.0439,445.9219 263.4653,497.6719 263.4653,500.8219 L263.4653,502.1719 " fill="none" style="stroke:#181818;stroke-width:0.45;"/><rect fill="#F1F1F1" height="47.9531" rx="5.625" ry="5.625" style="stroke:#181818;stroke-width:0.675;" width="62.4199" x="360.5098" y="502.1719"/><text fill="#000000" font-family="sans-serif" font-size="18" lengthAdjust="spacing" textLength="35.4199" x="374.0098" y="532.3799">CSS</text><path d="M540.0439,441.4219 L540.0439,442.7719 C540.0439,445.9219 391.7197,497.6719 391.7197,500.8219 L391.7197,502.1719 " fill="none" style="stroke:#181818;stroke-width:0.45;"/><rect fill="#FFFF00" height="47.9531" rx="5.625" ry="5.625" style="stroke:#181818;stroke-width:0.675;" width="117.2285" x="481.4297" y="502.1719"/><text fill="#000000" font-family="sans-serif" font-size="18" lengthAdjust="spacing" textLength="90.2285" x="494.9297" y="532.3799">JavaScript</text><rect fill="#F1F1F1" height="47.9531" rx="5.625" ry="5.625" style="stroke:#181818;stroke-width:0.675;" width="66.4102" x="102.2366" y="610.875"/><a href="https://visjs.org" target="_top" title="https://visjs.org" xlink:actuate="onRequest" xlink:href="https://visjs.org" xlink:show="new" xlink:title="https://visjs.org" xlink:type="simple"><text fill="#0000FF" font-family="sans-serif" font-size="18" lengthAdjust="spacing" text-decoration="underline" textLength="39.4102" x="115.7366" y="641.083">visjs</text></a><rect fill="#F1F1F1" height="110.8125" rx="5.625" ry="5.625" style="stroke:#181818;stroke-width:0.675;" width="146.3643" x="62.2595" y="719.5781"/><text fill="#000000" font-family="sans-serif" font-size="18" lengthAdjust="spacing" textLength="79.3828" x="75.9573" y="749.7861">Dynamic</text><text fill="#000000" font-family="sans-serif" font-size="18" lengthAdjust="spacing" textLength="5.7217" x="155.3401" y="749.7861">&#160;</text><text fill="#000000" font-family="sans-serif" font-size="18" lengthAdjust="spacing" textLength="33.8643" x="161.0618" y="749.7861">and</text><text fill="#000000" font-family="sans-serif" font-size="18" lengthAdjust="spacing" textLength="96.6533" x="87.115" y="770.7393">interactive</text><text fill="#000000" font-family="sans-serif" font-size="18" lengthAdjust="spacing" textLength="40.5439" x="75.7595" y="791.6924">data</text><text fill="#000000" font-family="sans-serif" font-size="18" lengthAdjust="spacing" textLength="5.7217" x="116.3035" y="791.6924">&#160;</text><text fill="#000000" font-family="sans-serif" font-size="18" lengthAdjust="spacing" textLength="73.0986" x="122.0251" y="791.6924">network</text><text fill="#000000" font-family="sans-serif" font-size="18" lengthAdjust="spacing" textLength="112.4297" x="79.2268" y="812.6455">visualization</text><path d="M135.4417,658.8281 L135.4417,660.1781 C135.4417,663.3281 135.4417,715.0781 135.4417,718.2281 L135.4417,719.5781 " fill="none" style="stroke:#181818;stroke-width:0.45;"/><path d="M540.0439,550.125 L540.0439,551.475 C540.0439,554.625 135.4417,606.375 135.4417,609.525 L135.4417,610.875 " fill="none" style="stroke:#181818;stroke-width:0.45;"/><rect fill="#F1F1F1" height="47.9531" rx="5.625" ry="5.625" style="stroke:#181818;stroke-width:0.675;" width="75.3047" x="301.6692" y="610.875"/><a href="https://github.com/peggyjs/peggy" target="_top" title="https://github.com/peggyjs/peggy" xlink:actuate="onRequest" xlink:href="https://github.com/peggyjs/peggy" xlink:show="new" xlink:title="https://github.com/peggyjs/peggy" xlink:type="simple"><text fill="#0000FF" font-family="sans-serif" font-size="18" lengthAdjust="spacing" text-decoration="underline" textLength="48.3047" x="315.1692" y="641.083">pegjs</text></a><rect fill="#F1F1F1" height="110.8125" rx="5.625" ry="5.625" style="stroke:#181818;stroke-width:0.675;" width="144.3955" x="267.1238" y="719.5781"/><text fill="#000000" font-family="sans-serif" font-size="18" lengthAdjust="spacing" textLength="77.8096" x="280.6238" y="749.7861">Powerful</text><text fill="#000000" font-family="sans-serif" font-size="18" lengthAdjust="spacing" textLength="5.7217" x="358.4333" y="749.7861">&#160;</text><text fill="#000000" font-family="sans-serif" font-size="18" lengthAdjust="spacing" textLength="33.8643" x="364.155" y="749.7861">and</text><text fill="#000000" font-family="sans-serif" font-size="18" lengthAdjust="spacing" textLength="65.5664" x="306.5383" y="770.7393">flexible</text><text fill="#000000" font-family="sans-serif" font-size="18" lengthAdjust="spacing" textLength="57.709" x="310.467" y="791.6924">parser</text><text fill="#000000" font-family="sans-serif" font-size="18" lengthAdjust="spacing" textLength="88.8838" x="294.8796" y="812.6455">generator</text><path d="M339.3215,658.8281 L339.3215,660.1781 C339.3215,663.3281 339.3215,715.0781 339.3215,718.2281 L339.3215,719.5781 " fill="none" style="stroke:#181818;stroke-width:0.45;"/><path d="M540.0439,550.125 L540.0439,551.475 C540.0439,554.625 339.3215,606.375 339.3215,609.525 L339.3215,610.875 " fill="none" style="stroke:#181818;stroke-width:0.45;"/><rect fill="#F1F1F1" height="47.9531" rx="5.625" ry="5.625" style="stroke:#181818;stroke-width:0.675;" width="91.9336" x="502.4773" y="610.875"/><a href="https://github.com/select2/select2" target="_top" title="https://github.com/select2/select2" xlink:actuate="onRequest" xlink:href="https://github.com/select2/select2" xlink:show="new" xlink:title="https://github.com/select2/select2" xlink:type="simple"><text fill="#0000FF" font-family="sans-serif" font-size="18" lengthAdjust="spacing" text-decoration="underline" textLength="64.9336" x="515.9773" y="641.083">select2</text></a><rect fill="#F1F1F1" height="110.8125" rx="5.625" ry="5.625" style="stroke:#181818;stroke-width:0.675;" width="156.8496" x="470.0193" y="719.5781"/><text fill="#000000" font-family="sans-serif" font-size="18" lengthAdjust="spacing" textLength="62.9385" x="501.739" y="749.7861">Library</text><text fill="#000000" font-family="sans-serif" font-size="18" lengthAdjust="spacing" textLength="5.7217" x="564.6775" y="749.7861">&#160;</text><text fill="#000000" font-family="sans-serif" font-size="18" lengthAdjust="spacing" textLength="24.75" x="570.3992" y="749.7861">for</text><text fill="#000000" font-family="sans-serif" font-size="18" lengthAdjust="spacing" textLength="74.2939" x="511.2971" y="770.7393">creating</text><text fill="#000000" font-family="sans-serif" font-size="18" lengthAdjust="spacing" textLength="33.8643" x="483.5193" y="791.6924">and</text><text fill="#000000" font-family="sans-serif" font-size="18" lengthAdjust="spacing" textLength="5.7217" x="517.3835" y="791.6924">&#160;</text><text fill="#000000" font-family="sans-serif" font-size="18" lengthAdjust="spacing" textLength="90.2637" x="523.1052" y="791.6924">managing</text><text fill="#000000" font-family="sans-serif" font-size="18" lengthAdjust="spacing" textLength="39.2607" x="502.8025" y="812.6455">user</text><text fill="#000000" font-family="sans-serif" font-size="18" lengthAdjust="spacing" textLength="5.7217" x="542.0632" y="812.6455">&#160;</text><text fill="#000000" font-family="sans-serif" font-size="18" lengthAdjust="spacing" textLength="46.3008" x="547.7849" y="812.6455">input</text><path d="M548.4441,658.8281 L548.4441,660.1781 C548.4441,663.3281 548.4441,715.0781 548.4441,718.2281 L548.4441,719.5781 " fill="none" style="stroke:#181818;stroke-width:0.45;"/><path d="M540.0439,550.125 L540.0439,551.475 C540.0439,554.625 548.4441,606.375 548.4441,609.525 L548.4441,610.875 " fill="none" style="stroke:#181818;stroke-width:0.45;"/><rect fill="#F1F1F1" height="47.9531" rx="5.625" ry="5.625" style="stroke:#181818;stroke-width:0.675;" width="86.7041" x="714.676" y="610.875"/><a href="https://github.com/jquery/jquery" target="_top" title="https://github.com/jquery/jquery" xlink:actuate="onRequest" xlink:href="https://github.com/jquery/jquery" xlink:show="new" xlink:title="https://github.com/jquery/jquery" xlink:type="simple"><text fill="#0000FF" font-family="sans-serif" font-size="18" lengthAdjust="spacing" text-decoration="underline" textLength="59.7041" x="728.176" y="641.083">jQuery</text></a><rect fill="#F1F1F1" height="89.8594" rx="5.625" ry="5.625" style="stroke:#181818;stroke-width:0.675;" width="145.3184" x="685.3689" y="719.5781"/><text fill="#000000" font-family="sans-serif" font-size="18" lengthAdjust="spacing" textLength="43.5586" x="736.2488" y="749.7861">DOM</text><text fill="#000000" font-family="sans-serif" font-size="18" lengthAdjust="spacing" textLength="118.3184" x="698.8689" y="770.7393">manipulation</text><text fill="#000000" font-family="sans-serif" font-size="18" lengthAdjust="spacing" textLength="57.9111" x="729.0725" y="791.6924">library</text><path d="M758.0281,658.8281 L758.0281,660.1781 C758.0281,663.3281 758.0281,715.0781 758.0281,718.2281 L758.0281,719.5781 " fill="none" style="stroke:#181818;stroke-width:0.45;"/><path d="M540.0439,550.125 L540.0439,551.475 C540.0439,554.625 758.0281,606.375 758.0281,609.525 L758.0281,610.875 " fill="none" style="stroke:#181818;stroke-width:0.45;"/><rect fill="#F1F1F1" height="47.9531" rx="5.625" ry="5.625" style="stroke:#181818;stroke-width:0.675;" width="128.8828" x="888.9456" y="610.875"/><a href="https://github.com/DataTables/DataTablesSrc" target="_top" title="https://github.com/DataTables/DataTablesSrc" xlink:actuate="onRequest" xlink:href="https://github.com/DataTables/DataTablesSrc" xlink:show="new" xlink:title="https://github.com/DataTables/DataTablesSrc" xlink:type="simple"><text fill="#0000FF" font-family="sans-serif" font-size="18" lengthAdjust="spacing" text-decoration="underline" textLength="101.8828" x="902.4456" y="641.083">DataTables</text></a><rect fill="#F1F1F1" height="89.8594" rx="5.625" ry="5.625" style="stroke:#181818;stroke-width:0.675;" width="128.3994" x="889.1873" y="719.5781"/><text fill="#000000" font-family="sans-serif" font-size="18" lengthAdjust="spacing" textLength="50.0889" x="902.6873" y="749.7861">HTML</text><text fill="#000000" font-family="sans-serif" font-size="18" lengthAdjust="spacing" textLength="5.7217" x="952.7761" y="749.7861">&#160;</text><text fill="#000000" font-family="sans-serif" font-size="18" lengthAdjust="spacing" textLength="45.5889" x="958.4978" y="749.7861">table</text><text fill="#000000" font-family="sans-serif" font-size="18" lengthAdjust="spacing" textLength="94.0605" x="906.3567" y="770.7393">enhancing</text><text fill="#000000" font-family="sans-serif" font-size="18" lengthAdjust="spacing" textLength="57.9111" x="924.4314" y="791.6924">library</text><path d="M953.387,658.8281 L953.387,660.1781 C953.387,663.3281 953.387,715.0781 953.387,718.2281 L953.387,719.5781 " fill="none" style="stroke:#181818;stroke-width:0.45;"/><path d="M540.0439,550.125 L540.0439,551.475 C540.0439,554.625 953.387,606.375 953.387,609.525 L953.387,610.875 " fill="none" style="stroke:#181818;stroke-width:0.45;"/><path d="M540.0439,441.4219 L540.0439,442.7719 C540.0439,445.9219 540.0439,497.6719 540.0439,500.8219 L540.0439,502.1719 " fill="none" style="stroke:#181818;stroke-width:0.45;"/><path d="M525.7892,290.8125 L525.7892,292.1625 C525.7892,295.3125 540.0439,347.0625 540.0439,350.2125 L540.0439,351.5625 " fill="none" style="stroke:#181818;stroke-width:0.45;"/><rect fill="#87CEFA" height="89.8594" rx="5.625" ry="5.625" style="stroke:#181818;stroke-width:0.675;" width="151.2334" x="678.1113" y="351.5625"/><text fill="#000000" font-family="sans-serif" font-size="18" lengthAdjust="spacing" textLength="115.6904" x="695.8828" y="381.7705">Complement</text><text fill="#000000" font-family="sans-serif" font-size="18" lengthAdjust="spacing" textLength="18.0703" x="744.6929" y="402.7236">to</text><text fill="#000000" font-family="sans-serif" font-size="18" lengthAdjust="spacing" textLength="124.2334" x="691.6113" y="423.6768">Sphinx-Needs</text><path d="M525.7892,290.8125 L525.7892,292.1625 C525.7892,295.3125 753.728,347.0625 753.728,350.2125 L753.728,351.5625 " fill="none" style="stroke:#181818;stroke-width:0.45;"/><path d="M525.7892,161.1563 L525.7892,162.5063 C525.7892,165.6563 525.7892,217.4063 525.7892,220.5563 L525.7892,221.9063 " fill="none" style="stroke:#181818;stroke-width:0.45;"/><path d="M1327.2726,52.4531 L1327.2726,53.8031 C1327.2726,56.9531 525.7892,108.7031 525.7892,111.8531 L525.7892,113.2031 " fill="none" style="stroke:#181818;stroke-width:0.45;"/><rect fill="#90EE90" height="89.8594" rx="5.625" ry="5.625" style="stroke:#181818;stroke-width:0.675;" width="143.0156" x="1110.2014" y="113.2031"/><text fill="#000000" font-family="sans-serif" font-size="18" lengthAdjust="spacing" textLength="48.0762" x="1123.7014" y="143.4111">Open</text><text fill="#000000" font-family="sans-serif" font-size="18" lengthAdjust="spacing" textLength="5.7217" x="1171.7776" y="143.4111">&#160;</text><text fill="#000000" font-family="sans-serif" font-size="18" lengthAdjust="spacing" textLength="62.2178" x="1177.4993" y="143.4111">Source</text><text fill="#000000" font-family="sans-serif" font-size="18" lengthAdjust="spacing" textLength="62.2969" x="1150.5608" y="164.3643">Project</text><text fill="#000000" font-family="sans-serif" font-size="18" lengthAdjust="spacing" textLength="81.2461" x="1130.0208" y="185.3174">available</text><text fill="#000000" font-family="sans-serif" font-size="18" lengthAdjust="spacing" textLength="5.7217" x="1211.2668" y="185.3174">&#160;</text><text fill="#000000" font-family="sans-serif" font-size="18" lengthAdjust="spacing" textLength="16.4092" x="1216.9885" y="185.3174">in</text><rect fill="#F1F1F1" height="47.9531" rx="5.625" ry="5.625" style="stroke:#181818;stroke-width:0.675;" width="87.249" x="1076.3284" y="263.8125"/><a href="https://github.com/mi-parkes/sphinx-needs-data-explorer" target="_top" title="https://github.com/mi-parkes/sphinx-needs-data-explorer" xlink:actuate="onRequest" xlink:href="https://github.com/mi-parkes/sphinx-needs-data-explorer" xlink:show="new" xlink:title="https://github.com/mi-parkes/sphinx-needs-data-explorer" xlink:type="simple"><text fill="#0000FF" font-family="sans-serif" font-size="18" lengthAdjust="spacing" text-decoration="underline" textLength="60.249" x="1089.8284" y="294.0205">Github</text></a><path d="M1181.7092,203.0625 L1181.7092,204.4125 C1181.7092,207.5625 1119.9529,259.3125 1119.9529,262.4625 L1119.9529,263.8125 " fill="none" style="stroke:#181818;stroke-width:0.45;"/><rect fill="#F1F1F1" height="47.9531" rx="5.625" ry="5.625" style="stroke:#181818;stroke-width:0.675;" width="65.0127" x="1222.0774" y="263.8125"/><a href="https://pypi.org/project/sphinx-needs-data-explorer" target="_top" title="https://pypi.org/project/sphinx-needs-data-explorer" xlink:actuate="onRequest" xlink:href="https://pypi.org/project/sphinx-needs-data-explorer" xlink:show="new" xlink:title="https://pypi.org/project/sphinx-needs-data-explorer" xlink:type="simple"><text fill="#0000FF" font-family="sans-serif" font-size="18" lengthAdjust="spacing" text-decoration="underline" textLength="38.0127" x="1235.5774" y="294.0205">PYPI</text></a><path d="M1181.7092,203.0625 L1181.7092,204.4125 C1181.7092,207.5625 1254.5837,259.3125 1254.5837,262.4625 L1254.5837,263.8125 " fill="none" style="stroke:#181818;stroke-width:0.45;"/><path d="M1327.2726,52.4531 L1327.2726,53.8031 C1327.2726,56.9531 1181.7092,108.7031 1181.7092,111.8531 L1181.7092,113.2031 " fill="none" style="stroke:#181818;stroke-width:0.45;"/><rect fill="#90EE90" height="47.9531" rx="5.625" ry="5.625" style="stroke:#181818;stroke-width:0.675;" width="112.6055" x="1517.6755" y="113.2031"/><text fill="#000000" font-family="sans-serif" font-size="18" lengthAdjust="spacing" textLength="85.6055" x="1531.1755" y="143.4111">Platforms</text><rect fill="#F1F1F1" height="47.9531" rx="5.625" ry="5.625" style="stroke:#181818;stroke-width:0.675;" width="75.498" x="1345.5901" y="221.9063"/><text fill="#000000" font-family="sans-serif" font-size="18" lengthAdjust="spacing" textLength="48.498" x="1359.0901" y="252.1143">Linux</text><path d="M1573.9783,161.1563 L1573.9783,162.5063 C1573.9783,165.6563 1383.3391,217.4063 1383.3391,220.5563 L1383.3391,221.9063 " fill="none" style="stroke:#181818;stroke-width:0.45;"/><rect fill="#F1F1F1" height="47.9531" rx="5.625" ry="5.625" style="stroke:#181818;stroke-width:0.675;" width="112.8252" x="1479.5881" y="221.9063"/><text fill="#000000" font-family="sans-serif" font-size="18" lengthAdjust="spacing" textLength="36.457" x="1493.0881" y="252.1143">Mac</text><text fill="#000000" font-family="sans-serif" font-size="18" lengthAdjust="spacing" textLength="5.7217" x="1529.5452" y="252.1143">&#160;</text><text fill="#000000" font-family="sans-serif" font-size="18" lengthAdjust="spacing" textLength="25.5938" x="1535.2668" y="252.1143">OS</text><text fill="#000000" font-family="sans-serif" font-size="18" lengthAdjust="spacing" textLength="5.7217" x="1560.8606" y="252.1143">&#160;</text><text fill="#000000" font-family="sans-serif" font-size="18" lengthAdjust="spacing" textLength="12.3311" x="1566.5823" y="252.1143">X</text><path d="M1573.9783,161.1563 L1573.9783,162.5063 C1573.9783,165.6563 1536.0007,217.4063 1536.0007,220.5563 L1536.0007,221.9063 " fill="none" style="stroke:#181818;stroke-width:0.45;"/><rect fill="#F1F1F1" height="47.9531" rx="5.625" ry="5.625" style="stroke:#181818;stroke-width:0.675;" width="151.4531" x="1650.9133" y="221.9063"/><text fill="#000000" font-family="sans-serif" font-size="18" lengthAdjust="spacing" textLength="80.7451" x="1664.4133" y="252.1143">Windows</text><text fill="#000000" font-family="sans-serif" font-size="18" lengthAdjust="spacing" textLength="5.7217" x="1745.1584" y="252.1143">&#160;</text><text fill="#000000" font-family="sans-serif" font-size="18" lengthAdjust="spacing" textLength="37.9863" x="1750.8801" y="252.1143">+10</text><path d="M1573.9783,161.1563 L1573.9783,162.5063 C1573.9783,165.6563 1726.6399,217.4063 1726.6399,220.5563 L1726.6399,221.9063 " fill="none" style="stroke:#181818;stroke-width:0.45;"/><path d="M1327.2726,52.4531 L1327.2726,53.8031 C1327.2726,56.9531 1573.9783,108.7031 1573.9783,111.8531 L1573.9783,113.2031 " fill="none" style="stroke:#181818;stroke-width:0.45;"/><rect fill="#90EE90" height="68.9063" rx="5.625" ry="5.625" style="stroke:#181818;stroke-width:0.675;" width="148.1748" x="2166.7434" y="113.2031"/><text fill="#000000" font-family="sans-serif" font-size="18" lengthAdjust="spacing" textLength="121.1748" x="2180.2434" y="143.4111">Development</text><text fill="#000000" font-family="sans-serif" font-size="18" lengthAdjust="spacing" textLength="47.3994" x="2217.1311" y="164.3643">Tools</text><rect fill="#87CEFA" height="68.9063" rx="5.625" ry="5.625" style="stroke:#181818;stroke-width:0.675;" width="145.5732" x="1860.8665" y="242.8594"/><text fill="#000000" font-family="sans-serif" font-size="18" lengthAdjust="spacing" textLength="75.7354" x="1895.7854" y="273.0674">Package</text><text fill="#000000" font-family="sans-serif" font-size="18" lengthAdjust="spacing" textLength="118.5732" x="1874.3665" y="294.0205">Management</text><rect fill="#F1F1F1" height="47.9531" rx="5.625" ry="5.625" style="stroke:#181818;stroke-width:0.675;" width="85.623" x="1890.8416" y="372.5156"/><text fill="#000000" font-family="sans-serif" font-size="18" lengthAdjust="spacing" textLength="58.623" x="1904.3416" y="402.7236">poetry</text><path d="M1933.6531,311.7656 L1933.6531,313.1156 C1933.6531,316.2656 1933.6531,368.0156 1933.6531,371.1656 L1933.6531,372.5156 " fill="none" style="stroke:#181818;stroke-width:0.45;"/><path d="M2240.8308,182.1094 L2240.8308,183.4594 C2240.8308,186.6094 1933.6531,238.3594 1933.6531,241.5094 L1933.6531,242.8594 " fill="none" style="stroke:#181818;stroke-width:0.45;"/><rect fill="#87CEFA" height="47.9531" rx="5.625" ry="5.625" style="stroke:#181818;stroke-width:0.675;" width="57.542" x="2111.4426" y="242.8594"/><text fill="#000000" font-family="sans-serif" font-size="18" lengthAdjust="spacing" textLength="30.542" x="2124.9426" y="273.0674">IDE</text><rect fill="#F1F1F1" height="47.9531" rx="5.625" ry="5.625" style="stroke:#181818;stroke-width:0.675;" width="102.542" x="2088.9426" y="351.5625"/><text fill="#000000" font-family="sans-serif" font-size="18" lengthAdjust="spacing" textLength="23.7393" x="2102.4426" y="381.7705">VS</text><text fill="#000000" font-family="sans-serif" font-size="18" lengthAdjust="spacing" textLength="5.7217" x="2126.1819" y="381.7705">&#160;</text><text fill="#000000" font-family="sans-serif" font-size="18" lengthAdjust="spacing" textLength="46.0811" x="2131.9036" y="381.7705">Code</text><rect fill="#F1F1F1" height="47.9531" rx="5.625" ry="5.625" style="stroke:#181818;stroke-width:0.675;" width="150.5479" x="2064.9397" y="460.2656"/><text fill="#000000" font-family="sans-serif" font-size="18" lengthAdjust="spacing" textLength="123.5479" x="2078.4397" y="490.4736">DevContainer</text><path d="M2140.2136,399.5156 L2140.2136,400.8656 C2140.2136,404.0156 2140.2136,455.7656 2140.2136,458.9156 L2140.2136,460.2656 " fill="none" style="stroke:#181818;stroke-width:0.45;"/><path d="M2140.2136,290.8125 L2140.2136,292.1625 C2140.2136,295.3125 2140.2136,347.0625 2140.2136,350.2125 L2140.2136,351.5625 " fill="none" style="stroke:#181818;stroke-width:0.45;"/><path d="M2240.8308,182.1094 L2240.8308,183.4594 C2240.8308,186.6094 2140.2136,238.3594 2140.2136,241.5094 L2140.2136,242.8594 " fill="none" style="stroke:#181818;stroke-width:0.45;"/><rect fill="#87CEFA" height="47.9531" rx="5.625" ry="5.625" style="stroke:#181818;stroke-width:0.675;" width="77.3701" x="2408.7063" y="242.8594"/><text fill="#000000" font-family="sans-serif" font-size="18" lengthAdjust="spacing" textLength="50.3701" x="2422.2063" y="273.0674">CI/CD</text><rect fill="#F1F1F1" height="47.9531" rx="5.625" ry="5.625" style="stroke:#181818;stroke-width:0.675;" width="161.165" x="2366.8088" y="351.5625"/><text fill="#000000" font-family="sans-serif" font-size="18" lengthAdjust="spacing" textLength="62.376" x="2380.3088" y="381.7705">GitHub</text><text fill="#000000" font-family="sans-serif" font-size="18" lengthAdjust="spacing" textLength="5.7217" x="2442.6848" y="381.7705">&#160;</text><text fill="#000000" font-family="sans-serif" font-size="18" lengthAdjust="spacing" textLength="66.0674" x="2448.4065" y="381.7705">Actions</text><rect fill="#F1F1F1" height="47.9531" rx="5.625" ry="5.625" style="stroke:#181818;stroke-width:0.675;" width="165.7617" x="2364.5105" y="460.2656"/><text fill="#000000" font-family="sans-serif" font-size="18" lengthAdjust="spacing" textLength="138.7617" x="2378.0105" y="490.4736">Documentation</text><rect fill="#F1F1F1" height="47.9531" rx="5.625" ry="5.625" style="stroke:#181818;stroke-width:0.675;" width="127.415" x="2273.9875" y="568.9688"/><text fill="#000000" font-family="sans-serif" font-size="18" lengthAdjust="spacing" textLength="100.415" x="2287.4875" y="599.1768">Generation</text><path d="M2447.3914,508.2188 L2447.3914,509.5688 C2447.3914,512.7188 2337.6951,564.4688 2337.6951,567.6188 L2337.6951,568.9688 " fill="none" style="stroke:#181818;stroke-width:0.45;"/><rect fill="#F1F1F1" height="68.9063" rx="5.625" ry="5.625" style="stroke:#181818;stroke-width:0.675;" width="160.8926" x="2459.9026" y="568.9688"/><text fill="#000000" font-family="sans-serif" font-size="18" lengthAdjust="spacing" textLength="110.1006" x="2473.4026" y="599.1768">Deployment</text><text fill="#000000" font-family="sans-serif" font-size="18" lengthAdjust="spacing" textLength="5.7217" x="2583.5032" y="599.1768">&#160;</text><text fill="#000000" font-family="sans-serif" font-size="18" lengthAdjust="spacing" textLength="18.0703" x="2589.2249" y="599.1768">to</text><text fill="#000000" font-family="sans-serif" font-size="18" lengthAdjust="spacing" textLength="62.376" x="2479.4187" y="620.1299">GitHub</text><text fill="#000000" font-family="sans-serif" font-size="18" lengthAdjust="spacing" textLength="5.7217" x="2541.7947" y="620.1299">&#160;</text><text fill="#000000" font-family="sans-serif" font-size="18" lengthAdjust="spacing" textLength="53.7627" x="2547.5164" y="620.1299">Pages</text><path d="M2447.3914,508.2188 L2447.3914,509.5688 C2447.3914,512.7188 2540.3489,564.4688 2540.3489,567.6188 L2540.3489,568.9688 " fill="none" style="stroke:#181818;stroke-width:0.45;"/><path d="M2447.3914,399.5156 L2447.3914,400.8656 C2447.3914,404.0156 2447.3914,455.7656 2447.3914,458.9156 L2447.3914,460.2656 " fill="none" style="stroke:#181818;stroke-width:0.45;"/><path d="M2447.3914,290.8125 L2447.3914,292.1625 C2447.3914,295.3125 2447.3914,347.0625 2447.3914,350.2125 L2447.3914,351.5625 " fill="none" style="stroke:#181818;stroke-width:0.45;"/><path d="M2240.8308,182.1094 L2240.8308,183.4594 C2240.8308,186.6094 2447.3914,238.3594 2447.3914,241.5094 L2447.3914,242.8594 " fill="none" style="stroke:#181818;stroke-width:0.45;"/><path d="M1327.2726,52.4531 L1327.2726,53.8031 C1327.2726,56.9531 2240.8308,108.7031 2240.8308,111.8531 L2240.8308,113.2031 " fill="none" style="stroke:#181818;stroke-width:0.45;"/><!--SRC=[xLTjKnit4Fv-ls8Jqk6bDNxXPL8FoGHiqa1nS3c7D0DCHjOjP-4xwIBf_99E_tjNkZC-264wdVGRNqxIxcgVrQDThVt6MAPjAcIKiWnCDX9ozbaYHkPpn2pxZBCiKHfr4Ang9iUHqAzEpa2g20rchreDafkna1dJB5s8OQVnKrNiDYx4Isc4ronFx5ibRIY-8cpVqNOBxG1dTZyHiKnHMk3qSQ7KLuCzO-S9lWu0ojYxWiLkurya2ZbB49eDcfu8YHr5Hu23XF4nINoKtWp0WRzdASAP6YghlApFeaZ867RygiTqB2Gq_MgLx78PTPIMgA7Pz1PBXE420Gve4kl2rcbMED_Quhosqg2HyLliGZiT2Oktla9tC6ZShWSZmSSIZO42pnrKIPQKKUmKbZqXHPgd7qLaHz1gb48sko_yEzYhbzIjreF7QQmojM1bgr6bPRSWQVKEUlCXzAtxw85L6LW5nBjLb0r28xT2ISep4O-iKoLuRIiAus-riRcz4pnxePKgs7lrVEMK4Yp6vq7mBDEAOvHhX1SfTzgr5nHeynVtRQq7UrxM7YOvlhwu0A_ptnPSNUtLlVPry0nbTEie23Okbc1NZrN8niR5Ik9YZpMYl09265cRcNQzFfrEDukTjKZnJQNZEifwoWobSnr2hw4GoCN6OdKuioYDEpS9oVE9ynoEvmSK_1Lq5SzTIJ3xFOlzd6XLLamekV5BJYmw-qivq8mZ6uf4sFc36uzSZJ7kTtx4OMt834QNSfzIRcu5tG4Cb4hyrWruD-YTbDDE61QpYvLFc2HgUWN7RC92haLc2yr6bPE9C3V6KG5-LXxVMtNdagM20vCHY6Kubz8H3XBjLEcnsvQpH7nTSd0N81Psb0ytkKhh6SRn_COK8z3tBbvVJL5Vvua7l4vm9eO9eT5BPAZ2OgGwOrRfnp4C9fIehSK8Yx62SoA6ckavN5FHSuqKk8mlfGDDcMIngw_S8T8ZcDl7qMw-vAZdvG0tV_YXIk5fppaLMPvuVY0fi1_tsYL-1umERohJK7DOhgeWxlR1EZ6W7379tGcgGFTpgwFIBF69wEgxoFJQUrTBtrJFQOOIGfLhZj3NweQu9AecJ2GUJ_WR_yunKb6ZknlJASgYy-LQSzbJMvGh_ERj5rLNSPJDC-5BD2jW7tFI_zG_AbpSZRvFhDCjfoOexbtcCp_hCGwd8Vpf5n_foLLJ0pzJfxhle8iJJ5JcgNBrvXtTfxDFROR5I5ufUpojddN85DhY1hufxkvXON8UqcL4MDOkeNMe7J5gD_gXRT0vgdUwnKxYxHtnjkyVPRDmyCrxv2oBmgb8kaYypHVtNthgK-mcU4ElRjc3Wk3Dl_vLycD-KFoWFlWVErwbiRbsK_Qpfrxpr6kUUirJhtdgDVzlho7wfFr0oJL1xTv0Q6ws6gtjpTsra5aufafjx4BZrtPpkxtr4ZuCEk3Kwy5QxsW0faYQI1YhnJ1t-Ek1UuhWB9TMfDZsoNNS_NqXW4Cv4Lhv_XCSd_UM1hlRjGDX8KHDaS1vBoXR5ktWoZMTDg6_hRqCJgWzv7IGDbL2qA5_cNG1f0l_0G00]--></g></svg>