<?xml version="1.0" encoding="us-ascii" standalone="no"?><svg xmlns="http://www.w3.org/2000/svg" xmlns:xlink="http://www.w3.org/1999/xlink" contentStyleType="text/css" height="367.5px" preserveAspectRatio="none" style="width:954px;height:367px;background:#FFFFFF;" version="1.1" viewBox="0 0 954 367" width="954px" zoomAndPan="magnify"><defs/><g><rect fill="#FFA500" height="27.666" rx="6.25" ry="6.25" style="stroke:#181818;stroke-width:0.75;" width="218.5" x="367.375" y="5"/><text fill="#000000" font-family="sans-serif" font-size="15" lengthAdjust="spacing" textLength="208.5" x="372.375" y="24.502">sphinx_needs_data_explorer</text><rect fill="#90EE90" height="45.332" rx="6.25" ry="6.25" style="stroke:#181818;stroke-width:0.75;" width="156" x="10" y="45.166"/><text fill="#000000" font-family="sans-serif" font-size="15" lengthAdjust="spacing" textLength="39" x="15" y="64.668">Open</text><text fill="#000000" font-family="sans-serif" font-size="15" lengthAdjust="spacing" textLength="4.5" x="54" y="64.668">&#160;</text><text fill="#000000" font-family="sans-serif" font-size="15" lengthAdjust="spacing" textLength="48.5" x="58.5" y="64.668">Source</text><text fill="#000000" font-family="sans-serif" font-size="15" lengthAdjust="spacing" textLength="4.5" x="107" y="64.668">&#160;</text><text fill="#000000" font-family="sans-serif" font-size="15" lengthAdjust="spacing" textLength="49.5" x="111.5" y="64.668">Project</text><text fill="#000000" font-family="sans-serif" font-size="15" lengthAdjust="spacing" textLength="65" x="46.25" y="82.334">available</text><text fill="#000000" font-family="sans-serif" font-size="15" lengthAdjust="spacing" textLength="4.5" x="111.25" y="82.334">&#160;</text><text fill="#000000" font-family="sans-serif" font-size="15" lengthAdjust="spacing" textLength="14" x="115.75" y="82.334">in</text><rect fill="#F1F1F1" height="27.666" rx="6.25" ry="6.25" style="stroke:#181818;stroke-width:0.75;" width="59.5" x="32.75" y="102.998"/><text fill="#000000" font-family="sans-serif" font-size="15" lengthAdjust="spacing" textLength="49.5" x="37.75" y="122.5">Github</text><path d="M88,90.498 L88,91.998 C88,95.498 62.5,97.998 62.5,101.498 L62.5,102.998 " fill="none" style="stroke:#181818;stroke-width:0.5;"/><rect fill="#F1F1F1" height="27.666" rx="6.25" ry="6.25" style="stroke:#181818;stroke-width:0.75;" width="41" x="102.25" y="102.998"/><text fill="#000000" font-family="sans-serif" font-size="15" lengthAdjust="spacing" textLength="31" x="107.25" y="122.5">PYPI</text><path d="M88,90.498 L88,91.998 C88,95.498 122.75,97.998 122.75,101.498 L122.75,102.998 " fill="none" style="stroke:#181818;stroke-width:0.5;"/><path d="M476.625,32.666 L476.625,34.166 C476.625,37.666 88,40.166 88,43.666 L88,45.166 " fill="none" style="stroke:#181818;stroke-width:0.5;"/><rect fill="#90EE90" height="27.666" rx="6.25" ry="6.25" style="stroke:#181818;stroke-width:0.75;" width="79" x="221.75" y="45.166"/><text fill="#000000" font-family="sans-serif" font-size="15" lengthAdjust="spacing" textLength="69" x="226.75" y="64.668">Platforms</text><rect fill="#F1F1F1" height="27.666" rx="6.25" ry="6.25" style="stroke:#181818;stroke-width:0.75;" width="110" x="176" y="85.332"/><text fill="#000000" font-family="sans-serif" font-size="15" lengthAdjust="spacing" textLength="64.5" x="181" y="104.834">Windows</text><text fill="#000000" font-family="sans-serif" font-size="15" lengthAdjust="spacing" textLength="4.5" x="245.5" y="104.834">&#160;</text><text fill="#000000" font-family="sans-serif" font-size="15" lengthAdjust="spacing" textLength="31" x="250" y="104.834">+10</text><path d="M261.25,72.832 L261.25,74.332 C261.25,77.832 231,80.332 231,83.832 L231,85.332 " fill="none" style="stroke:#181818;stroke-width:0.5;"/><rect fill="#F1F1F1" height="27.666" rx="6.25" ry="6.25" style="stroke:#181818;stroke-width:0.75;" width="50.5" x="296" y="85.332"/><text fill="#000000" font-family="sans-serif" font-size="15" lengthAdjust="spacing" textLength="40.5" x="301" y="104.834">Linux</text><path d="M261.25,72.832 L261.25,74.332 C261.25,77.832 321.25,80.332 321.25,83.832 L321.25,85.332 " fill="none" style="stroke:#181818;stroke-width:0.5;"/><path d="M476.625,32.666 L476.625,34.166 C476.625,37.666 261.25,40.166 261.25,43.666 L261.25,45.166 " fill="none" style="stroke:#181818;stroke-width:0.5;"/><rect fill="#90EE90" height="27.666" rx="6.25" ry="6.25" style="stroke:#181818;stroke-width:0.75;" width="60" x="619.875" y="45.166"/><a href="https://www.sphinx-doc.org/en/master/" target="_top" title="https://www.sphinx-doc.org/en/master/" xlink:actuate="onRequest" xlink:href="https://www.sphinx-doc.org/en/master/" xlink:show="new" xlink:title="https://www.sphinx-doc.org/en/master/" xlink:type="simple"><text fill="#0000FF" font-family="sans-serif" font-size="15" lengthAdjust="spacing" text-decoration="underline" textLength="50" x="624.875" y="64.668">Sphinx</text></a><rect fill="#F1F1F1" height="27.666" rx="6.25" ry="6.25" style="stroke:#181818;stroke-width:0.75;" width="135.5" x="582.125" y="85.332"/><text fill="#000000" font-family="sans-serif" font-size="15" lengthAdjust="spacing" textLength="50" x="587.125" y="104.834">Sphinx</text><text fill="#000000" font-family="sans-serif" font-size="15" lengthAdjust="spacing" textLength="4.5" x="637.125" y="104.834">&#160;</text><text fill="#000000" font-family="sans-serif" font-size="15" lengthAdjust="spacing" textLength="71" x="641.625" y="104.834">Extension</text><rect fill="#87CEFA" height="27.666" rx="6.25" ry="6.25" style="stroke:#181818;stroke-width:0.75;" width="121.5" x="356.5" y="125.498"/><text fill="#000000" font-family="sans-serif" font-size="15" lengthAdjust="spacing" textLength="111.5" x="361.5" y="145">Documentation</text><path d="M649.875,112.998 L649.875,114.498 C649.875,117.998 417.25,120.498 417.25,123.998 L417.25,125.498 " fill="none" style="stroke:#181818;stroke-width:0.5;"/><rect fill="#87CEFA" height="62.998" rx="6.25" ry="6.25" style="stroke:#181818;stroke-width:0.75;" width="103.5" x="488" y="125.498"/><text fill="#000000" font-family="sans-serif" font-size="15" lengthAdjust="spacing" textLength="84" x="497.75" y="145">Automotive</text><text fill="#000000" font-family="sans-serif" font-size="15" lengthAdjust="spacing" textLength="93.5" x="493" y="162.666">Requirement</text><text fill="#000000" font-family="sans-serif" font-size="15" lengthAdjust="spacing" textLength="85" x="497.25" y="180.332">Traceability</text><path d="M649.875,112.998 L649.875,114.498 C649.875,117.998 539.75,120.498 539.75,123.998 L539.75,125.498 " fill="none" style="stroke:#181818;stroke-width:0.5;"/><rect fill="#87CEFA" height="62.998" rx="6.25" ry="6.25" style="stroke:#181818;stroke-width:0.75;" width="118" x="601.5" y="125.498"/><text fill="#000000" font-family="sans-serif" font-size="15" lengthAdjust="spacing" textLength="76.5" x="622.25" y="145">Interactive</text><text fill="#000000" font-family="sans-serif" font-size="15" lengthAdjust="spacing" textLength="83" x="619" y="162.666">Web-based</text><text fill="#000000" font-family="sans-serif" font-size="15" lengthAdjust="spacing" textLength="71.5" x="606.5" y="180.332">Analytical</text><text fill="#000000" font-family="sans-serif" font-size="15" lengthAdjust="spacing" textLength="4.5" x="678" y="180.332">&#160;</text><text fill="#000000" font-family="sans-serif" font-size="15" lengthAdjust="spacing" textLength="32" x="682.5" y="180.332">Tool</text><rect fill="#F1F1F1" height="27.666" rx="6.25" ry="6.25" style="stroke:#181818;stroke-width:0.75;" width="51.5" x="512.25" y="200.9961"/><text fill="#000000" font-family="sans-serif" font-size="15" lengthAdjust="spacing" textLength="41.5" x="517.25" y="220.498">HTML</text><path d="M660.5,188.4961 L660.5,189.9961 C660.5,193.4961 538,195.9961 538,199.4961 L538,200.9961 " fill="none" style="stroke:#181818;stroke-width:0.5;"/><rect fill="#F1F1F1" height="27.666" rx="6.25" ry="6.25" style="stroke:#181818;stroke-width:0.75;" width="36.5" x="573.75" y="200.9961"/><text fill="#000000" font-family="sans-serif" font-size="15" lengthAdjust="spacing" textLength="26.5" x="578.75" y="220.498">CSS</text><path d="M660.5,188.4961 L660.5,189.9961 C660.5,193.4961 592,195.9961 592,199.4961 L592,200.9961 " fill="none" style="stroke:#181818;stroke-width:0.5;"/><rect fill="#FFFF00" height="27.666" rx="6.25" ry="6.25" style="stroke:#181818;stroke-width:0.75;" width="80.5" x="620.25" y="200.9961"/><text fill="#000000" font-family="sans-serif" font-size="15" lengthAdjust="spacing" textLength="70.5" x="625.25" y="220.498">JavaScript</text><rect fill="#F1F1F1" height="27.666" rx="6.25" ry="6.25" style="stroke:#181818;stroke-width:0.75;" width="42" x="409.5" y="241.1621"/><a href="https://visjs.org" target="_top" title="https://visjs.org" xlink:actuate="onRequest" xlink:href="https://visjs.org" xlink:show="new" xlink:title="https://visjs.org" xlink:type="simple"><text fill="#0000FF" font-family="sans-serif" font-size="15" lengthAdjust="spacing" text-decoration="underline" textLength="32" x="414.5" y="260.6641">visjs</text></a><rect fill="#F1F1F1" height="80.6641" rx="6.25" ry="6.25" style="stroke:#181818;stroke-width:0.75;" width="105.5" x="377.75" y="281.3281"/><text fill="#000000" font-family="sans-serif" font-size="15" lengthAdjust="spacing" textLength="63" x="383" y="300.8301">Dynamic</text><text fill="#000000" font-family="sans-serif" font-size="15" lengthAdjust="spacing" textLength="4.5" x="446" y="300.8301">&#160;</text><text fill="#000000" font-family="sans-serif" font-size="15" lengthAdjust="spacing" textLength="27.5" x="450.5" y="300.8301">and</text><text fill="#000000" font-family="sans-serif" font-size="15" lengthAdjust="spacing" textLength="76.5" x="392.25" y="318.4961">interactive</text><text fill="#000000" font-family="sans-serif" font-size="15" lengthAdjust="spacing" textLength="32" x="382.75" y="336.1621">data</text><text fill="#000000" font-family="sans-serif" font-size="15" lengthAdjust="spacing" textLength="4.5" x="414.75" y="336.1621">&#160;</text><text fill="#000000" font-family="sans-serif" font-size="15" lengthAdjust="spacing" textLength="59" x="419.25" y="336.1621">network</text><text fill="#000000" font-family="sans-serif" font-size="15" lengthAdjust="spacing" textLength="92.5" x="384.25" y="353.8281">visualization</text><path d="M430.5,268.8281 L430.5,270.3281 C430.5,273.8281 430.5,276.3281 430.5,279.8281 L430.5,281.3281 " fill="none" style="stroke:#181818;stroke-width:0.5;"/><path d="M660.5,228.6621 L660.5,230.1621 C660.5,233.6621 430.5,236.1621 430.5,239.6621 L430.5,241.1621 " fill="none" style="stroke:#181818;stroke-width:0.5;"/><rect fill="#F1F1F1" height="27.666" rx="6.25" ry="6.25" style="stroke:#181818;stroke-width:0.75;" width="49.5" x="534.25" y="241.1621"/><a href="https://github.com/peggyjs/peggy" target="_top" title="https://github.com/peggyjs/peggy" xlink:actuate="onRequest" xlink:href="https://github.com/peggyjs/peggy" xlink:show="new" xlink:title="https://github.com/peggyjs/peggy" xlink:type="simple"><text fill="#0000FF" font-family="sans-serif" font-size="15" lengthAdjust="spacing" text-decoration="underline" textLength="39.5" x="539.25" y="260.6641">pegjs</text></a><rect fill="#F1F1F1" height="62.998" rx="6.25" ry="6.25" style="stroke:#181818;stroke-width:0.75;" width="131.5" x="493.25" y="281.3281"/><text fill="#000000" font-family="sans-serif" font-size="15" lengthAdjust="spacing" textLength="63" x="511.5" y="300.8301">Powerful</text><text fill="#000000" font-family="sans-serif" font-size="15" lengthAdjust="spacing" textLength="4.5" x="574.5" y="300.8301">&#160;</text><text fill="#000000" font-family="sans-serif" font-size="15" lengthAdjust="spacing" textLength="27.5" x="579" y="300.8301">and</text><text fill="#000000" font-family="sans-serif" font-size="15" lengthAdjust="spacing" textLength="54.5" x="531.75" y="318.4961">flexible</text><text fill="#000000" font-family="sans-serif" font-size="15" lengthAdjust="spacing" textLength="46" x="498.25" y="336.1621">parser</text><text fill="#000000" font-family="sans-serif" font-size="15" lengthAdjust="spacing" textLength="4.5" x="544.25" y="336.1621">&#160;</text><text fill="#000000" font-family="sans-serif" font-size="15" lengthAdjust="spacing" textLength="71" x="548.75" y="336.1621">generator</text><path d="M559,268.8281 L559,270.3281 C559,273.8281 559,276.3281 559,279.8281 L559,281.3281 " fill="none" style="stroke:#181818;stroke-width:0.5;"/><path d="M660.5,228.6621 L660.5,230.1621 C660.5,233.6621 559,236.1621 559,239.6621 L559,241.1621 " fill="none" style="stroke:#181818;stroke-width:0.5;"/><rect fill="#F1F1F1" height="27.666" rx="6.25" ry="6.25" style="stroke:#181818;stroke-width:0.75;" width="61.5" x="679.75" y="241.1621"/><a href="https://github.com/select2/select2" target="_top" title="https://github.com/select2/select2" xlink:actuate="onRequest" xlink:href="https://github.com/select2/select2" xlink:show="new" xlink:title="https://github.com/select2/select2" xlink:type="simple"><text fill="#0000FF" font-family="sans-serif" font-size="15" lengthAdjust="spacing" text-decoration="underline" textLength="51.5" x="684.75" y="260.6641">select2</text></a><rect fill="#F1F1F1" height="62.998" rx="6.25" ry="6.25" style="stroke:#181818;stroke-width:0.75;" width="151.5" x="634.75" y="281.3281"/><text fill="#000000" font-family="sans-serif" font-size="15" lengthAdjust="spacing" textLength="50.5" x="640.75" y="300.8301">Library</text><text fill="#000000" font-family="sans-serif" font-size="15" lengthAdjust="spacing" textLength="4.5" x="691.25" y="300.8301">&#160;</text><text fill="#000000" font-family="sans-serif" font-size="15" lengthAdjust="spacing" textLength="20.5" x="695.75" y="300.8301">for</text><text fill="#000000" font-family="sans-serif" font-size="15" lengthAdjust="spacing" textLength="4.5" x="716.25" y="300.8301">&#160;</text><text fill="#000000" font-family="sans-serif" font-size="15" lengthAdjust="spacing" textLength="59.5" x="720.75" y="300.8301">creating</text><text fill="#000000" font-family="sans-serif" font-size="15" lengthAdjust="spacing" textLength="27.5" x="639.75" y="318.4961">and</text><text fill="#000000" font-family="sans-serif" font-size="15" lengthAdjust="spacing" textLength="4.5" x="667.25" y="318.4961">&#160;</text><text fill="#000000" font-family="sans-serif" font-size="15" lengthAdjust="spacing" textLength="73.5" x="671.75" y="318.4961">managing</text><text fill="#000000" font-family="sans-serif" font-size="15" lengthAdjust="spacing" textLength="4.5" x="745.25" y="318.4961">&#160;</text><text fill="#000000" font-family="sans-serif" font-size="15" lengthAdjust="spacing" textLength="31.5" x="749.75" y="318.4961">user</text><text fill="#000000" font-family="sans-serif" font-size="15" lengthAdjust="spacing" textLength="38.5" x="691.25" y="336.1621">input</text><path d="M710.5,268.8281 L710.5,270.3281 C710.5,273.8281 710.5,276.3281 710.5,279.8281 L710.5,281.3281 " fill="none" style="stroke:#181818;stroke-width:0.5;"/><path d="M660.5,228.6621 L660.5,230.1621 C660.5,233.6621 710.5,236.1621 710.5,239.6621 L710.5,241.1621 " fill="none" style="stroke:#181818;stroke-width:0.5;"/><rect fill="#F1F1F1" height="27.666" rx="6.25" ry="6.25" style="stroke:#181818;stroke-width:0.75;" width="58" x="840.75" y="241.1621"/><a href="https://github.com/jquery/jquery" target="_top" title="https://github.com/jquery/jquery" xlink:actuate="onRequest" xlink:href="https://github.com/jquery/jquery" xlink:show="new" xlink:title="https://github.com/jquery/jquery" xlink:type="simple"><text fill="#0000FF" font-family="sans-serif" font-size="15" lengthAdjust="spacing" text-decoration="underline" textLength="48" x="845.75" y="260.6641">jQuery</text></a><rect fill="#F1F1F1" height="45.332" rx="6.25" ry="6.25" style="stroke:#181818;stroke-width:0.75;" width="147" x="796.25" y="281.3281"/><text fill="#000000" font-family="sans-serif" font-size="15" lengthAdjust="spacing" textLength="35.5" x="801.25" y="300.8301">DOM</text><text fill="#000000" font-family="sans-serif" font-size="15" lengthAdjust="spacing" textLength="4.5" x="836.75" y="300.8301">&#160;</text><text fill="#000000" font-family="sans-serif" font-size="15" lengthAdjust="spacing" textLength="97" x="841.25" y="300.8301">manipulation</text><text fill="#000000" font-family="sans-serif" font-size="15" lengthAdjust="spacing" textLength="47" x="846.25" y="318.4961">library</text><path d="M869.75,268.8281 L869.75,270.3281 C869.75,273.8281 869.75,276.3281 869.75,279.8281 L869.75,281.3281 " fill="none" style="stroke:#181818;stroke-width:0.5;"/><path d="M660.5,228.6621 L660.5,230.1621 C660.5,233.6621 869.75,236.1621 869.75,239.6621 L869.75,241.1621 " fill="none" style="stroke:#181818;stroke-width:0.5;"/><path d="M660.5,188.4961 L660.5,189.9961 C660.5,193.4961 660.5,195.9961 660.5,199.4961 L660.5,200.9961 " fill="none" style="stroke:#181818;stroke-width:0.5;"/><path d="M649.875,112.998 L649.875,114.498 C649.875,117.998 660.5,120.498 660.5,123.998 L660.5,125.498 " fill="none" style="stroke:#181818;stroke-width:0.5;"/><rect fill="#87CEFA" height="45.332" rx="6.25" ry="6.25" style="stroke:#181818;stroke-width:0.75;" width="122.5" x="729.5" y="125.498"/><text fill="#000000" font-family="sans-serif" font-size="15" lengthAdjust="spacing" textLength="93.5" x="734.5" y="145">Complement</text><text fill="#000000" font-family="sans-serif" font-size="15" lengthAdjust="spacing" textLength="4.5" x="828" y="145">&#160;</text><text fill="#000000" font-family="sans-serif" font-size="15" lengthAdjust="spacing" textLength="14.5" x="832.5" y="145">to</text><text fill="#000000" font-family="sans-serif" font-size="15" lengthAdjust="spacing" textLength="103.5" x="739" y="162.666">Sphinx-Needs</text><path d="M649.875,112.998 L649.875,114.498 C649.875,117.998 790.75,120.498 790.75,123.998 L790.75,125.498 " fill="none" style="stroke:#181818;stroke-width:0.5;"/><path d="M649.875,72.832 L649.875,74.332 C649.875,77.832 649.875,80.332 649.875,83.832 L649.875,85.332 " fill="none" style="stroke:#181818;stroke-width:0.5;"/><path d="M476.625,32.666 L476.625,34.166 C476.625,37.666 649.875,40.166 649.875,43.666 L649.875,45.166 " fill="none" style="stroke:#181818;stroke-width:0.5;"/><!--SRC=[xLPRJnj757wVNt48L81RtqjKMO0I36cXTd1P9oW22urt3-l1ipERcLbif-f_xvbP0oQXAAegzOMNkPpRT-RSTjzOnutBX4eodeFD9qBDhnHYOgyIxlWLpdEf3Hh6DWrNqqIOlTuPA9sWnNolrM3CJeNAkU4P97ZD2-dUQUKYyGMXtVXXXNjOSeSuTs-bI5M6oa5CYpTUtsIxrYqaxZE0fJU7WgTUyKyYHJ6N2Cq67Nj2OLUJKt0WUJmbId0dY05uyFSyGpZJO-rqe0ruaWYLmawuzRb9XO9ck6sINA6IhZOA3JIRGU81ONo700TqI4qfwpdhSTnknt5rlK4xZ- -nI-vi8XpUsuhymw1nVnzEH3nLQ2sKUFwXMd6vz6AdbEmB9R8YEnU9cq2hiIJo-TV4lzXkVHcwpJfxFeohaTfy1D1y2g3zDG1pEWUdWKBhD2LS68oTq8gAGwGJvraIhzqAmuR4DMexR6t3Q5t6P-_L-YbLKugl65lBZOunAGp2HXPxxjO6PQZvarzRssmtq3fZMU3-nGK4NbXRC1hjrWDtdwsXIkuDCLQvU00RFLVLbSh5klIkfmPHZU0qHmMHBaoCC33wXbvngVWj5vAFwHr2aKO5VXLkKep3SV1fSFoDbO7axbgRp0QHSyg3dbduaShNtwa4YlatElIsYNEvxTJhizciLlfSJNHSqoQjewfdt5Ahr24A77fyCBQy7SqTAki3JaIotFEMe-dYWC8sWaCT5xxTkFidYRS5vLCxSKkDWvyBIf-NlrH3msFaOo65MpofUEpxbyT1ynp7rJ6tc5ogjrJE2oSe-J3KMWRL2lmsxFUMnsuKbQUBzKyefPwDu8JY7CL6vAxaL5PZSYliZVMXW71QFZz87IuKpqGCN2MKe7jtBfLFDIXqCsscNgtWKdnvYC5ZW3Jaj1Rhh9vZcYvkRBa3hO_n1dg6vhgG0V1QubnGQLpwAMUfUrEa7kPEc-SnB4gghTRT3dVx2avFZ0qt2w1AWjWWEQvIAaO2pRZYgPzeXKUa0Lkuvz5kFXTe5iiDRlu8sse8J_lUgCWB6U83iiHcJ-QygxDSXWBn3LzMOFMzxox6tb0ZBWSFNRxxu_BVV4M-V_Zzop7tCCtyZ5aEiPS1yp9WNWRC_p9Wg0-K-z3lmIqQNvpGhBKQhNQjsTmwnmGYpA7Pfl-aJkjrfzs6xb4q12-mpRRwnqEmPHycmZeZneLtR9lvAe6pGZcHOIVqwydXxtS4E5AtmkWmTjZ9n_w3mEkVgmV24QGXN-1Zdoqd5Md4slz-Tk33y5tr5zQZcL7mb6oZObtwetHcGRpeRm00]--></g></svg>