<?xml version="1.0" encoding="us-ascii" standalone="no"?><svg xmlns="http://www.w3.org/2000/svg" xmlns:xlink="http://www.w3.org/1999/xlink" contentStyleType="text/css" height="267px" preserveAspectRatio="none" style="width:916px;height:267px;background:#FFFFFF;" version="1.1" viewBox="0 0 916 267" width="916.8px" zoomAndPan="magnify"><defs/><g><rect fill="#FFA500" height="21.893" rx="7.5" ry="7.5" style="stroke:#181818;stroke-width:0.8999999999999999;" width="130.8" x="6" y="122.1521"/><text fill="#000000" font-family="sans-serif" font-size="8.4" lengthAdjust="spacing" textLength="118.8" x="12" y="136.2732">sphinx_needs_data_explorer</text><rect fill="#90EE90" height="21.893" rx="7.5" ry="7.5" style="stroke:#181818;stroke-width:0.8999999999999999;" width="144" x="166.8" y="28.9465"/><text fill="#000000" font-family="sans-serif" font-size="8.4" lengthAdjust="spacing" textLength="132" x="172.8" y="43.0676">Open Source Project available in</text><rect fill="#F1F1F1" height="21.893" rx="7.5" ry="7.5" style="stroke:#181818;stroke-width:0.8999999999999999;" width="39.6" x="340.8" y="12"/><text fill="#000000" font-family="sans-serif" font-size="8.4" lengthAdjust="spacing" textLength="27.6" x="346.8" y="26.1211">Github</text><path d="M310.8,39.893 L316.8,39.893 C325.8,39.893 325.8,22.9465 334.8,22.9465 L340.8,22.9465 " fill="none" style="stroke:#181818;stroke-width:0.6;"/><rect fill="#F1F1F1" height="21.893" rx="7.5" ry="7.5" style="stroke:#181818;stroke-width:0.8999999999999999;" width="29.4" x="340.8" y="45.893"/><text fill="#000000" font-family="sans-serif" font-size="8.4" lengthAdjust="spacing" textLength="17.4" x="346.8" y="60.0141">PYPI</text><path d="M310.8,39.893 L316.8,39.893 C325.8,39.893 325.8,56.8395 334.8,56.8395 L340.8,56.8395 " fill="none" style="stroke:#181818;stroke-width:0.6;"/><path d="M136.8,133.0986 L142.8,133.0986 C151.8,133.0986 151.8,39.893 160.8,39.893 L166.8,39.893 " fill="none" style="stroke:#181818;stroke-width:0.6;"/><rect fill="#90EE90" height="21.893" rx="7.5" ry="7.5" style="stroke:#181818;stroke-width:0.8999999999999999;" width="51" x="166.8" y="79.7859"/><text fill="#000000" font-family="sans-serif" font-size="8.4" lengthAdjust="spacing" textLength="39" x="172.8" y="93.907">Platforms</text><rect fill="#F1F1F1" height="21.893" rx="7.5" ry="7.5" style="stroke:#181818;stroke-width:0.8999999999999999;" width="68.4" x="247.8" y="62.8395"/><text fill="#000000" font-family="sans-serif" font-size="8.4" lengthAdjust="spacing" textLength="56.4" x="253.8" y="76.9605">Windows +10</text><path d="M217.8,90.7324 L223.8,90.7324 C232.8,90.7324 232.8,73.7859 241.8,73.7859 L247.8,73.7859 " fill="none" style="stroke:#181818;stroke-width:0.6;"/><rect fill="#F1F1F1" height="21.893" rx="7.5" ry="7.5" style="stroke:#181818;stroke-width:0.8999999999999999;" width="34.8" x="247.8" y="96.7324"/><text fill="#000000" font-family="sans-serif" font-size="8.4" lengthAdjust="spacing" textLength="22.8" x="253.8" y="110.8535">Linux</text><path d="M217.8,90.7324 L223.8,90.7324 C232.8,90.7324 232.8,107.6789 241.8,107.6789 L247.8,107.6789 " fill="none" style="stroke:#181818;stroke-width:0.6;"/><path d="M136.8,133.0986 L142.8,133.0986 C151.8,133.0986 151.8,90.7324 160.8,90.7324 L166.8,90.7324 " fill="none" style="stroke:#181818;stroke-width:0.6;"/><rect fill="#90EE90" height="21.893" rx="7.5" ry="7.5" style="stroke:#181818;stroke-width:0.8999999999999999;" width="40.8" x="166.8" y="181.4648"/><text fill="#000000" font-family="sans-serif" font-size="8.4" lengthAdjust="spacing" textLength="28.8" x="172.8" y="195.5859">Sphinx</text><rect fill="#F1F1F1" height="21.893" rx="7.5" ry="7.5" style="stroke:#181818;stroke-width:0.8999999999999999;" width="84" x="237.6" y="181.4648"/><text fill="#000000" font-family="sans-serif" font-size="8.4" lengthAdjust="spacing" textLength="72" x="243.6" y="195.5859">Sphinx Extension</text><rect fill="#87CEFA" height="21.893" rx="7.5" ry="7.5" style="stroke:#181818;stroke-width:0.8999999999999999;" width="164.4" x="351.6" y="147.5719"/><text fill="#000000" font-family="sans-serif" font-size="8.4" lengthAdjust="spacing" textLength="152.4" x="357.6" y="161.693">Automotive Requirement Traceability</text><path d="M321.6,192.4113 L327.6,192.4113 C336.6,192.4113 336.6,158.5184 345.6,158.5184 L351.6,158.5184 " fill="none" style="stroke:#181818;stroke-width:0.6;"/><rect fill="#87CEFA" height="21.893" rx="7.5" ry="7.5" style="stroke:#181818;stroke-width:0.8999999999999999;" width="166.8" x="351.6" y="181.4648"/><text fill="#000000" font-family="sans-serif" font-size="8.4" lengthAdjust="spacing" textLength="154.8" x="357.6" y="195.5859">Interactive Web-based Analytical Tool</text><rect fill="#F1F1F1" height="21.893" rx="7.5" ry="7.5" style="stroke:#181818;stroke-width:0.8999999999999999;" width="34.8" x="548.4" y="130.6254"/><text fill="#000000" font-family="sans-serif" font-size="8.4" lengthAdjust="spacing" textLength="22.8" x="554.4" y="144.7465">HTML</text><path d="M518.4,192.4113 L524.4,192.4113 C533.4,192.4113 533.4,141.5719 542.4,141.5719 L548.4,141.5719 " fill="none" style="stroke:#181818;stroke-width:0.6;"/><rect fill="#F1F1F1" height="21.893" rx="7.5" ry="7.5" style="stroke:#181818;stroke-width:0.8999999999999999;" width="27.6" x="548.4" y="164.5184"/><text fill="#000000" font-family="sans-serif" font-size="8.4" lengthAdjust="spacing" textLength="15.6" x="554.4" y="178.6395">CSS</text><path d="M518.4,192.4113 L524.4,192.4113 C533.4,192.4113 533.4,175.4648 542.4,175.4648 L548.4,175.4648 " fill="none" style="stroke:#181818;stroke-width:0.6;"/><rect fill="#F1F1F1" height="21.893" rx="7.5" ry="7.5" style="stroke:#181818;stroke-width:0.8999999999999999;" width="51.6" x="548.4" y="198.4113"/><text fill="#000000" font-family="sans-serif" font-size="8.4" lengthAdjust="spacing" textLength="39.6" x="554.4" y="212.5324">JavaScript</text><rect fill="#F1F1F1" height="21.893" rx="7.5" ry="7.5" style="stroke:#181818;stroke-width:0.8999999999999999;" width="29.4" x="630" y="164.5184"/><text fill="#000000" font-family="sans-serif" font-size="8.4" lengthAdjust="spacing" textLength="17.4" x="636" y="178.6395">visjs</text><rect fill="#F1F1F1" height="21.893" rx="7.5" ry="7.5" style="stroke:#181818;stroke-width:0.8999999999999999;" width="220.2" x="689.4" y="164.5184"/><text fill="#000000" font-family="sans-serif" font-size="8.4" lengthAdjust="spacing" textLength="208.2" x="695.4" y="178.6395">Dynamic and interactive data network visualization</text><path d="M659.4,175.4648 L665.4,175.4648 C674.4,175.4648 674.4,175.4648 683.4,175.4648 L689.4,175.4648 " fill="none" style="stroke:#181818;stroke-width:0.6;"/><path d="M600,209.3578 L606,209.3578 C615,209.3578 615,175.4648 624,175.4648 L630,175.4648 " fill="none" style="stroke:#181818;stroke-width:0.6;"/><rect fill="#F1F1F1" height="21.893" rx="7.5" ry="7.5" style="stroke:#181818;stroke-width:0.8999999999999999;" width="34.2" x="630" y="198.4113"/><text fill="#000000" font-family="sans-serif" font-size="8.4" lengthAdjust="spacing" textLength="22.2" x="636" y="212.5324">pegjs</text><rect fill="#F1F1F1" height="21.893" rx="7.5" ry="7.5" style="stroke:#181818;stroke-width:0.8999999999999999;" width="171" x="694.2" y="198.4113"/><text fill="#000000" font-family="sans-serif" font-size="8.4" lengthAdjust="spacing" textLength="159" x="700.2" y="212.5324">Powerful and flexible parser generator</text><path d="M664.2,209.3578 L670.2,209.3578 C679.2,209.3578 679.2,209.3578 688.2,209.3578 L694.2,209.3578 " fill="none" style="stroke:#181818;stroke-width:0.6;"/><path d="M600,209.3578 L606,209.3578 C615,209.3578 615,209.3578 624,209.3578 L630,209.3578 " fill="none" style="stroke:#181818;stroke-width:0.6;"/><rect fill="#F1F1F1" height="21.893" rx="7.5" ry="7.5" style="stroke:#181818;stroke-width:0.8999999999999999;" width="40.8" x="630" y="232.3043"/><text fill="#000000" font-family="sans-serif" font-size="8.4" lengthAdjust="spacing" textLength="28.8" x="636" y="246.4254">select2</text><rect fill="#F1F1F1" height="21.893" rx="7.5" ry="7.5" style="stroke:#181818;stroke-width:0.8999999999999999;" width="196.8" x="700.8" y="232.3043"/><text fill="#000000" font-family="sans-serif" font-size="8.4" lengthAdjust="spacing" textLength="184.8" x="706.8" y="246.4254">Library for creating and managing user input</text><path d="M670.8,243.2508 L676.8,243.2508 C685.8,243.2508 685.8,243.2508 694.8,243.2508 L700.8,243.2508 " fill="none" style="stroke:#181818;stroke-width:0.6;"/><path d="M600,209.3578 L606,209.3578 C615,209.3578 615,243.2508 624,243.2508 L630,243.2508 " fill="none" style="stroke:#181818;stroke-width:0.6;"/><path d="M518.4,192.4113 L524.4,192.4113 C533.4,192.4113 533.4,209.3578 542.4,209.3578 L548.4,209.3578 " fill="none" style="stroke:#181818;stroke-width:0.6;"/><path d="M321.6,192.4113 L327.6,192.4113 C336.6,192.4113 336.6,192.4113 345.6,192.4113 L351.6,192.4113 " fill="none" style="stroke:#181818;stroke-width:0.6;"/><rect fill="#87CEFA" height="21.893" rx="7.5" ry="7.5" style="stroke:#181818;stroke-width:0.8999999999999999;" width="136.8" x="351.6" y="215.3578"/><text fill="#000000" font-family="sans-serif" font-size="8.4" lengthAdjust="spacing" textLength="124.8" x="357.6" y="229.4789">Complement to Sphinx-Needs</text><path d="M321.6,192.4113 L327.6,192.4113 C336.6,192.4113 336.6,226.3043 345.6,226.3043 L351.6,226.3043 " fill="none" style="stroke:#181818;stroke-width:0.6;"/><path d="M207.6,192.4113 L213.6,192.4113 C222.6,192.4113 222.6,192.4113 231.6,192.4113 L237.6,192.4113 " fill="none" style="stroke:#181818;stroke-width:0.6;"/><path d="M136.8,133.0986 L142.8,133.0986 C151.8,133.0986 151.8,192.4113 160.8,192.4113 L166.8,192.4113 " fill="none" style="stroke:#181818;stroke-width:0.6;"/><!--SRC=[xLDDJnin4BtxLmmV1zWsD1yLgYAAW41RQ58YDe2gA4BUtSbYwhMtOpia_VMrdG2LG3rKwesBPNlclHc_UJumbfEjX2egNeEfRuMQtoZ4mjmKtF8RdDTI4n9Z9kSIeRcpozOsIMlRqpxmSNtZdBWgSPsnjPfqZeKZXCqg3z6jJKvbwsrOszjiBzvrC-bmVpo668jh6oQJlNSnki_MK1MFH8mbuwTYax_rboJZ3IdAMriIefh0UOqAKkqeHnYIliFS0fzn8Ndcdo6K1oJmMTXRbyNjyFlmz1d9K78xrLIPc7BjLTBt1jwqcl7S5yhDds7Is6DCM6xXP6vH6Q5ZJP_T3zdfZyMHLs82XyxgIbinGxZ0dquGLgWiZ8Zdo3CXXLsyY3jL5drE15vZriYumG8E5PSBA_oiOAIrZCW4lem6_TMsbwQhtPcN8yr9r7PvaS1Cc3kpEYHml52y4ZbmLNYzdee5tK6XlTVq8q0Sb-8Njm_lyyWQopzuXleUQUfa99fAd8imWPgJGO8IbIUscXwm1gKVLViHtHSPSLg07mFaXBwEAYDJnHKlmy457g5gPr_KgQUhMYurjNeraiQtu2363hpPLjxtXt_u2i6Wgn_mwivNT_v7T_fXAtivwCCCAKmBMZljPhkpqsfjNNjbKwoXrO5sizlUxNOwq3j9Hn0IjjdMu7G4PkcrGXXB8dD1ZsqMD8OBfwoei1izUNRyzU42JjHCa5QXDtPsDNXAs7tVE1BMboJV2rmDs35EkPFM8t9T-4TtuNBqgV61zVs_SBpqtAXOJtjUMlXO-Xi0]--></g></svg>