<?xml version="1.0" encoding="us-ascii" standalone="no"?><svg xmlns="http://www.w3.org/2000/svg" xmlns:xlink="http://www.w3.org/1999/xlink" contentStyleType="text/css" height="330.75px" preserveAspectRatio="none" style="width:972px;height:330px;background:#FFFFFF;" version="1.1" viewBox="0 0 972 330" width="972.9px" zoomAndPan="magnify"><defs/><g><rect fill="#FFA500" height="24.8994" rx="5.625" ry="5.625" style="stroke:#181818;stroke-width:0.675;" width="196.65" x="387.675" y="4.5"/><text fill="#000000" font-family="sans-serif" font-size="13.5" lengthAdjust="spacing" textLength="187.65" x="392.175" y="22.0518">sphinx_needs_data_explorer</text><rect fill="#90EE90" height="24.8994" rx="5.625" ry="5.625" style="stroke:#181818;stroke-width:0.675;" width="54" x="303.075" y="40.6494"/><a href="https://www.sphinx-doc.org/en/master/" target="_top" title="https://www.sphinx-doc.org/en/master/" xlink:actuate="onRequest" xlink:href="https://www.sphinx-doc.org/en/master/" xlink:show="new" xlink:title="https://www.sphinx-doc.org/en/master/" xlink:type="simple"><text fill="#0000FF" font-family="sans-serif" font-size="13.5" lengthAdjust="spacing" text-decoration="underline" textLength="45" x="307.575" y="58.2012">Sphinx</text></a><rect fill="#F1F1F1" height="24.8994" rx="5.625" ry="5.625" style="stroke:#181818;stroke-width:0.675;" width="121.95" x="269.1" y="76.7988"/><text fill="#000000" font-family="sans-serif" font-size="13.5" lengthAdjust="spacing" textLength="45" x="273.6" y="94.3506">Sphinx</text><text fill="#000000" font-family="sans-serif" font-size="13.5" lengthAdjust="spacing" textLength="4.05" x="318.6" y="94.3506">&#160;</text><text fill="#000000" font-family="sans-serif" font-size="13.5" lengthAdjust="spacing" textLength="63.9" x="322.65" y="94.3506">Extension</text><rect fill="#87CEFA" height="24.8994" rx="5.625" ry="5.625" style="stroke:#181818;stroke-width:0.675;" width="109.35" x="56.475" y="112.9482"/><text fill="#000000" font-family="sans-serif" font-size="13.5" lengthAdjust="spacing" textLength="100.35" x="60.975" y="130.5">Documentation</text><path d="M330.075,101.6982 L330.075,103.0482 C330.075,106.1982 111.15,108.4482 111.15,111.5982 L111.15,112.9482 " fill="none" style="stroke:#181818;stroke-width:0.45;"/><rect fill="#87CEFA" height="56.6982" rx="5.625" ry="5.625" style="stroke:#181818;stroke-width:0.675;" width="93.15" x="174.825" y="112.9482"/><text fill="#000000" font-family="sans-serif" font-size="13.5" lengthAdjust="spacing" textLength="75.6" x="183.6" y="130.5">Automotive</text><text fill="#000000" font-family="sans-serif" font-size="13.5" lengthAdjust="spacing" textLength="84.15" x="179.325" y="146.3994">Requirement</text><text fill="#000000" font-family="sans-serif" font-size="13.5" lengthAdjust="spacing" textLength="76.5" x="183.15" y="162.2988">Traceability</text><path d="M330.075,101.6982 L330.075,103.0482 C330.075,106.1982 221.4,108.4482 221.4,111.5982 L221.4,112.9482 " fill="none" style="stroke:#181818;stroke-width:0.45;"/><rect fill="#87CEFA" height="56.6982" rx="5.625" ry="5.625" style="stroke:#181818;stroke-width:0.675;" width="106.2" x="276.975" y="112.9482"/><text fill="#000000" font-family="sans-serif" font-size="13.5" lengthAdjust="spacing" textLength="68.85" x="295.65" y="130.5">Interactive</text><text fill="#000000" font-family="sans-serif" font-size="13.5" lengthAdjust="spacing" textLength="74.7" x="292.725" y="146.3994">Web-based</text><text fill="#000000" font-family="sans-serif" font-size="13.5" lengthAdjust="spacing" textLength="64.35" x="281.475" y="162.2988">Analytical</text><text fill="#000000" font-family="sans-serif" font-size="13.5" lengthAdjust="spacing" textLength="4.05" x="345.825" y="162.2988">&#160;</text><text fill="#000000" font-family="sans-serif" font-size="13.5" lengthAdjust="spacing" textLength="28.8" x="349.875" y="162.2988">Tool</text><rect fill="#F1F1F1" height="24.8994" rx="5.625" ry="5.625" style="stroke:#181818;stroke-width:0.675;" width="46.35" x="196.65" y="180.8965"/><text fill="#000000" font-family="sans-serif" font-size="13.5" lengthAdjust="spacing" textLength="37.35" x="201.15" y="198.4482">HTML</text><path d="M330.075,169.6465 L330.075,170.9965 C330.075,174.1465 219.825,176.3965 219.825,179.5465 L219.825,180.8965 " fill="none" style="stroke:#181818;stroke-width:0.45;"/><rect fill="#F1F1F1" height="24.8994" rx="5.625" ry="5.625" style="stroke:#181818;stroke-width:0.675;" width="32.85" x="252" y="180.8965"/><text fill="#000000" font-family="sans-serif" font-size="13.5" lengthAdjust="spacing" textLength="23.85" x="256.5" y="198.4482">CSS</text><path d="M330.075,169.6465 L330.075,170.9965 C330.075,174.1465 268.425,176.3965 268.425,179.5465 L268.425,180.8965 " fill="none" style="stroke:#181818;stroke-width:0.45;"/><rect fill="#FFFF00" height="24.8994" rx="5.625" ry="5.625" style="stroke:#181818;stroke-width:0.675;" width="72.45" x="293.85" y="180.8965"/><text fill="#000000" font-family="sans-serif" font-size="13.5" lengthAdjust="spacing" textLength="63.45" x="298.35" y="198.4482">JavaScript</text><rect fill="#F1F1F1" height="24.8994" rx="5.625" ry="5.625" style="stroke:#181818;stroke-width:0.675;" width="37.8" x="37.575" y="217.0459"/><a href="https://visjs.org" target="_top" title="https://visjs.org" xlink:actuate="onRequest" xlink:href="https://visjs.org" xlink:show="new" xlink:title="https://visjs.org" xlink:type="simple"><text fill="#0000FF" font-family="sans-serif" font-size="13.5" lengthAdjust="spacing" text-decoration="underline" textLength="28.8" x="42.075" y="234.5977">visjs</text></a><rect fill="#F1F1F1" height="72.5977" rx="5.625" ry="5.625" style="stroke:#181818;stroke-width:0.675;" width="94.95" x="9" y="253.1953"/><text fill="#000000" font-family="sans-serif" font-size="13.5" lengthAdjust="spacing" textLength="56.7" x="13.725" y="270.7471">Dynamic</text><text fill="#000000" font-family="sans-serif" font-size="13.5" lengthAdjust="spacing" textLength="4.05" x="70.425" y="270.7471">&#160;</text><text fill="#000000" font-family="sans-serif" font-size="13.5" lengthAdjust="spacing" textLength="24.75" x="74.475" y="270.7471">and</text><text fill="#000000" font-family="sans-serif" font-size="13.5" lengthAdjust="spacing" textLength="68.85" x="22.05" y="286.6465">interactive</text><text fill="#000000" font-family="sans-serif" font-size="13.5" lengthAdjust="spacing" textLength="28.8" x="13.5" y="302.5459">data</text><text fill="#000000" font-family="sans-serif" font-size="13.5" lengthAdjust="spacing" textLength="4.05" x="42.3" y="302.5459">&#160;</text><text fill="#000000" font-family="sans-serif" font-size="13.5" lengthAdjust="spacing" textLength="53.1" x="46.35" y="302.5459">network</text><text fill="#000000" font-family="sans-serif" font-size="13.5" lengthAdjust="spacing" textLength="83.25" x="14.85" y="318.4453">visualization</text><path d="M56.475,241.9453 L56.475,243.2953 C56.475,246.4453 56.475,248.6953 56.475,251.8453 L56.475,253.1953 " fill="none" style="stroke:#181818;stroke-width:0.45;"/><path d="M330.075,205.7959 L330.075,207.1459 C330.075,210.2959 56.475,212.5459 56.475,215.6959 L56.475,217.0459 " fill="none" style="stroke:#181818;stroke-width:0.45;"/><rect fill="#F1F1F1" height="24.8994" rx="5.625" ry="5.625" style="stroke:#181818;stroke-width:0.675;" width="44.55" x="149.85" y="217.0459"/><a href="https://github.com/peggyjs/peggy" target="_top" title="https://github.com/peggyjs/peggy" xlink:actuate="onRequest" xlink:href="https://github.com/peggyjs/peggy" xlink:show="new" xlink:title="https://github.com/peggyjs/peggy" xlink:type="simple"><text fill="#0000FF" font-family="sans-serif" font-size="13.5" lengthAdjust="spacing" text-decoration="underline" textLength="35.55" x="154.35" y="234.5977">pegjs</text></a><rect fill="#F1F1F1" height="56.6982" rx="5.625" ry="5.625" style="stroke:#181818;stroke-width:0.675;" width="118.35" x="112.95" y="253.1953"/><text fill="#000000" font-family="sans-serif" font-size="13.5" lengthAdjust="spacing" textLength="56.7" x="129.375" y="270.7471">Powerful</text><text fill="#000000" font-family="sans-serif" font-size="13.5" lengthAdjust="spacing" textLength="4.05" x="186.075" y="270.7471">&#160;</text><text fill="#000000" font-family="sans-serif" font-size="13.5" lengthAdjust="spacing" textLength="24.75" x="190.125" y="270.7471">and</text><text fill="#000000" font-family="sans-serif" font-size="13.5" lengthAdjust="spacing" textLength="49.05" x="147.6" y="286.6465">flexible</text><text fill="#000000" font-family="sans-serif" font-size="13.5" lengthAdjust="spacing" textLength="41.4" x="117.45" y="302.5459">parser</text><text fill="#000000" font-family="sans-serif" font-size="13.5" lengthAdjust="spacing" textLength="4.05" x="158.85" y="302.5459">&#160;</text><text fill="#000000" font-family="sans-serif" font-size="13.5" lengthAdjust="spacing" textLength="63.9" x="162.9" y="302.5459">generator</text><path d="M172.125,241.9453 L172.125,243.2953 C172.125,246.4453 172.125,248.6953 172.125,251.8453 L172.125,253.1953 " fill="none" style="stroke:#181818;stroke-width:0.45;"/><path d="M330.075,205.7959 L330.075,207.1459 C330.075,210.2959 172.125,212.5459 172.125,215.6959 L172.125,217.0459 " fill="none" style="stroke:#181818;stroke-width:0.45;"/><rect fill="#F1F1F1" height="24.8994" rx="5.625" ry="5.625" style="stroke:#181818;stroke-width:0.675;" width="55.35" x="280.8" y="217.0459"/><a href="https://github.com/select2/select2" target="_top" title="https://github.com/select2/select2" xlink:actuate="onRequest" xlink:href="https://github.com/select2/select2" xlink:show="new" xlink:title="https://github.com/select2/select2" xlink:type="simple"><text fill="#0000FF" font-family="sans-serif" font-size="13.5" lengthAdjust="spacing" text-decoration="underline" textLength="46.35" x="285.3" y="234.5977">select2</text></a><rect fill="#F1F1F1" height="56.6982" rx="5.625" ry="5.625" style="stroke:#181818;stroke-width:0.675;" width="136.35" x="240.3" y="253.1953"/><text fill="#000000" font-family="sans-serif" font-size="13.5" lengthAdjust="spacing" textLength="45.45" x="245.7" y="270.7471">Library</text><text fill="#000000" font-family="sans-serif" font-size="13.5" lengthAdjust="spacing" textLength="4.05" x="291.15" y="270.7471">&#160;</text><text fill="#000000" font-family="sans-serif" font-size="13.5" lengthAdjust="spacing" textLength="18.45" x="295.2" y="270.7471">for</text><text fill="#000000" font-family="sans-serif" font-size="13.5" lengthAdjust="spacing" textLength="4.05" x="313.65" y="270.7471">&#160;</text><text fill="#000000" font-family="sans-serif" font-size="13.5" lengthAdjust="spacing" textLength="53.55" x="317.7" y="270.7471">creating</text><text fill="#000000" font-family="sans-serif" font-size="13.5" lengthAdjust="spacing" textLength="24.75" x="244.8" y="286.6465">and</text><text fill="#000000" font-family="sans-serif" font-size="13.5" lengthAdjust="spacing" textLength="4.05" x="269.55" y="286.6465">&#160;</text><text fill="#000000" font-family="sans-serif" font-size="13.5" lengthAdjust="spacing" textLength="66.15" x="273.6" y="286.6465">managing</text><text fill="#000000" font-family="sans-serif" font-size="13.5" lengthAdjust="spacing" textLength="4.05" x="339.75" y="286.6465">&#160;</text><text fill="#000000" font-family="sans-serif" font-size="13.5" lengthAdjust="spacing" textLength="28.35" x="343.8" y="286.6465">user</text><text fill="#000000" font-family="sans-serif" font-size="13.5" lengthAdjust="spacing" textLength="34.65" x="291.15" y="302.5459">input</text><path d="M308.475,241.9453 L308.475,243.2953 C308.475,246.4453 308.475,248.6953 308.475,251.8453 L308.475,253.1953 " fill="none" style="stroke:#181818;stroke-width:0.45;"/><path d="M330.075,205.7959 L330.075,207.1459 C330.075,210.2959 308.475,212.5459 308.475,215.6959 L308.475,217.0459 " fill="none" style="stroke:#181818;stroke-width:0.45;"/><rect fill="#F1F1F1" height="24.8994" rx="5.625" ry="5.625" style="stroke:#181818;stroke-width:0.675;" width="52.2" x="425.7" y="217.0459"/><a href="https://github.com/jquery/jquery" target="_top" title="https://github.com/jquery/jquery" xlink:actuate="onRequest" xlink:href="https://github.com/jquery/jquery" xlink:show="new" xlink:title="https://github.com/jquery/jquery" xlink:type="simple"><text fill="#0000FF" font-family="sans-serif" font-size="13.5" lengthAdjust="spacing" text-decoration="underline" textLength="43.2" x="430.2" y="234.5977">jQuery</text></a><rect fill="#F1F1F1" height="40.7988" rx="5.625" ry="5.625" style="stroke:#181818;stroke-width:0.675;" width="132.3" x="385.65" y="253.1953"/><text fill="#000000" font-family="sans-serif" font-size="13.5" lengthAdjust="spacing" textLength="31.95" x="390.15" y="270.7471">DOM</text><text fill="#000000" font-family="sans-serif" font-size="13.5" lengthAdjust="spacing" textLength="4.05" x="422.1" y="270.7471">&#160;</text><text fill="#000000" font-family="sans-serif" font-size="13.5" lengthAdjust="spacing" textLength="87.3" x="426.15" y="270.7471">manipulation</text><text fill="#000000" font-family="sans-serif" font-size="13.5" lengthAdjust="spacing" textLength="42.3" x="430.65" y="286.6465">library</text><path d="M451.8,241.9453 L451.8,243.2953 C451.8,246.4453 451.8,248.6953 451.8,251.8453 L451.8,253.1953 " fill="none" style="stroke:#181818;stroke-width:0.45;"/><path d="M330.075,205.7959 L330.075,207.1459 C330.075,210.2959 451.8,212.5459 451.8,215.6959 L451.8,217.0459 " fill="none" style="stroke:#181818;stroke-width:0.45;"/><rect fill="#F1F1F1" height="24.8994" rx="5.625" ry="5.625" style="stroke:#181818;stroke-width:0.675;" width="82.35" x="547.875" y="217.0459"/><a href="https://github.com/DataTables/DataTablesSrc" target="_top" title="https://github.com/DataTables/DataTablesSrc" xlink:actuate="onRequest" xlink:href="https://github.com/DataTables/DataTablesSrc" xlink:show="new" xlink:title="https://github.com/DataTables/DataTablesSrc" xlink:type="simple"><text fill="#0000FF" font-family="sans-serif" font-size="13.5" lengthAdjust="spacing" text-decoration="underline" textLength="73.35" x="552.375" y="234.5977">DataTables</text></a><rect fill="#F1F1F1" height="40.7988" rx="5.625" ry="5.625" style="stroke:#181818;stroke-width:0.675;" width="124.2" x="526.95" y="253.1953"/><text fill="#000000" font-family="sans-serif" font-size="13.5" lengthAdjust="spacing" textLength="37.35" x="551.925" y="270.7471">HTML</text><text fill="#000000" font-family="sans-serif" font-size="13.5" lengthAdjust="spacing" textLength="4.05" x="589.275" y="270.7471">&#160;</text><text fill="#000000" font-family="sans-serif" font-size="13.5" lengthAdjust="spacing" textLength="32.85" x="593.325" y="270.7471">table</text><text fill="#000000" font-family="sans-serif" font-size="13.5" lengthAdjust="spacing" textLength="68.85" x="531.45" y="286.6465">enhancing</text><text fill="#000000" font-family="sans-serif" font-size="13.5" lengthAdjust="spacing" textLength="4.05" x="600.3" y="286.6465">&#160;</text><text fill="#000000" font-family="sans-serif" font-size="13.5" lengthAdjust="spacing" textLength="42.3" x="604.35" y="286.6465">library</text><path d="M589.05,241.9453 L589.05,243.2953 C589.05,246.4453 589.05,248.6953 589.05,251.8453 L589.05,253.1953 " fill="none" style="stroke:#181818;stroke-width:0.45;"/><path d="M330.075,205.7959 L330.075,207.1459 C330.075,210.2959 589.05,212.5459 589.05,215.6959 L589.05,217.0459 " fill="none" style="stroke:#181818;stroke-width:0.45;"/><path d="M330.075,169.6465 L330.075,170.9965 C330.075,174.1465 330.075,176.3965 330.075,179.5465 L330.075,180.8965 " fill="none" style="stroke:#181818;stroke-width:0.45;"/><path d="M330.075,101.6982 L330.075,103.0482 C330.075,106.1982 330.075,108.4482 330.075,111.5982 L330.075,112.9482 " fill="none" style="stroke:#181818;stroke-width:0.45;"/><rect fill="#87CEFA" height="40.7988" rx="5.625" ry="5.625" style="stroke:#181818;stroke-width:0.675;" width="110.25" x="392.175" y="112.9482"/><text fill="#000000" font-family="sans-serif" font-size="13.5" lengthAdjust="spacing" textLength="84.15" x="396.675" y="130.5">Complement</text><text fill="#000000" font-family="sans-serif" font-size="13.5" lengthAdjust="spacing" textLength="4.05" x="480.825" y="130.5">&#160;</text><text fill="#000000" font-family="sans-serif" font-size="13.5" lengthAdjust="spacing" textLength="13.05" x="484.875" y="130.5">to</text><text fill="#000000" font-family="sans-serif" font-size="13.5" lengthAdjust="spacing" textLength="93.15" x="400.725" y="146.3994">Sphinx-Needs</text><path d="M330.075,101.6982 L330.075,103.0482 C330.075,106.1982 447.3,108.4482 447.3,111.5982 L447.3,112.9482 " fill="none" style="stroke:#181818;stroke-width:0.45;"/><path d="M330.075,65.5488 L330.075,66.8988 C330.075,70.0488 330.075,72.2988 330.075,75.4488 L330.075,76.7988 " fill="none" style="stroke:#181818;stroke-width:0.45;"/><path d="M486,29.3994 L486,30.7494 C486,33.8994 330.075,36.1494 330.075,39.2994 L330.075,40.6494 " fill="none" style="stroke:#181818;stroke-width:0.45;"/><rect fill="#90EE90" height="40.7988" rx="5.625" ry="5.625" style="stroke:#181818;stroke-width:0.675;" width="140.4" x="660.15" y="40.6494"/><text fill="#000000" font-family="sans-serif" font-size="13.5" lengthAdjust="spacing" textLength="35.1" x="664.65" y="58.2012">Open</text><text fill="#000000" font-family="sans-serif" font-size="13.5" lengthAdjust="spacing" textLength="4.05" x="699.75" y="58.2012">&#160;</text><text fill="#000000" font-family="sans-serif" font-size="13.5" lengthAdjust="spacing" textLength="43.65" x="703.8" y="58.2012">Source</text><text fill="#000000" font-family="sans-serif" font-size="13.5" lengthAdjust="spacing" textLength="4.05" x="747.45" y="58.2012">&#160;</text><text fill="#000000" font-family="sans-serif" font-size="13.5" lengthAdjust="spacing" textLength="44.55" x="751.5" y="58.2012">Project</text><text fill="#000000" font-family="sans-serif" font-size="13.5" lengthAdjust="spacing" textLength="58.5" x="692.775" y="74.1006">available</text><text fill="#000000" font-family="sans-serif" font-size="13.5" lengthAdjust="spacing" textLength="4.05" x="751.275" y="74.1006">&#160;</text><text fill="#000000" font-family="sans-serif" font-size="13.5" lengthAdjust="spacing" textLength="12.6" x="755.325" y="74.1006">in</text><rect fill="#F1F1F1" height="24.8994" rx="5.625" ry="5.625" style="stroke:#181818;stroke-width:0.675;" width="53.55" x="680.625" y="92.6982"/><text fill="#000000" font-family="sans-serif" font-size="13.5" lengthAdjust="spacing" textLength="44.55" x="685.125" y="110.25">Github</text><path d="M730.35,81.4482 L730.35,82.7982 C730.35,85.9482 707.4,88.1982 707.4,91.3482 L707.4,92.6982 " fill="none" style="stroke:#181818;stroke-width:0.45;"/><rect fill="#F1F1F1" height="24.8994" rx="5.625" ry="5.625" style="stroke:#181818;stroke-width:0.675;" width="36.9" x="743.175" y="92.6982"/><text fill="#000000" font-family="sans-serif" font-size="13.5" lengthAdjust="spacing" textLength="27.9" x="747.675" y="110.25">PYPI</text><path d="M730.35,81.4482 L730.35,82.7982 C730.35,85.9482 761.625,88.1982 761.625,91.3482 L761.625,92.6982 " fill="none" style="stroke:#181818;stroke-width:0.45;"/><path d="M486,29.3994 L486,30.7494 C486,33.8994 730.35,36.1494 730.35,39.2994 L730.35,40.6494 " fill="none" style="stroke:#181818;stroke-width:0.45;"/><rect fill="#90EE90" height="24.8994" rx="5.625" ry="5.625" style="stroke:#181818;stroke-width:0.675;" width="71.1" x="850.725" y="40.6494"/><text fill="#000000" font-family="sans-serif" font-size="13.5" lengthAdjust="spacing" textLength="62.1" x="855.225" y="58.2012">Platforms</text><rect fill="#F1F1F1" height="24.8994" rx="5.625" ry="5.625" style="stroke:#181818;stroke-width:0.675;" width="99" x="809.55" y="76.7988"/><text fill="#000000" font-family="sans-serif" font-size="13.5" lengthAdjust="spacing" textLength="58.05" x="814.05" y="94.3506">Windows</text><text fill="#000000" font-family="sans-serif" font-size="13.5" lengthAdjust="spacing" textLength="4.05" x="872.1" y="94.3506">&#160;</text><text fill="#000000" font-family="sans-serif" font-size="13.5" lengthAdjust="spacing" textLength="27.9" x="876.15" y="94.3506">+10</text><path d="M886.275,65.5488 L886.275,66.8988 C886.275,70.0488 859.05,72.2988 859.05,75.4488 L859.05,76.7988 " fill="none" style="stroke:#181818;stroke-width:0.45;"/><rect fill="#F1F1F1" height="24.8994" rx="5.625" ry="5.625" style="stroke:#181818;stroke-width:0.675;" width="45.45" x="917.55" y="76.7988"/><text fill="#000000" font-family="sans-serif" font-size="13.5" lengthAdjust="spacing" textLength="36.45" x="922.05" y="94.3506">Linux</text><path d="M886.275,65.5488 L886.275,66.8988 C886.275,70.0488 940.275,72.2988 940.275,75.4488 L940.275,76.7988 " fill="none" style="stroke:#181818;stroke-width:0.45;"/><path d="M486,29.3994 L486,30.7494 C486,33.8994 886.275,36.1494 886.275,39.2994 L886.275,40.6494 " fill="none" style="stroke:#181818;stroke-width:0.45;"/><!--SRC=[xLPjJniv4FxkNp4KJa3kybwgKmIeaD0UN59oR5fKGOGSxx0nsRMtNczUUhh_VcDl887sK7MwJoU- -6LcFC_uySpiliqiDpQHAanu2bawbcf-en33x2Rabj_WF8srGSFOjk5g4afpqBq0fKFCC3rer1ZB9bAbtF04GhpbUMpVQMK3-HMXMVjfJTifj0ESswDOHYf1PK7Gu9nNjzb-PXSn7ZA0PJGToIDty4yI1OB72FKQBRjIOLjJK70SSp4XYG_7cm4uy0yyGRZG8ssrb_Lv64eLmPxVzRY9f8AwtssJNQx2jZOA3TJhtcA5CBf7W6DQHAQmTPfD8PfD8SgRDPgvUC0kjBEnjFZWAt0NWzh3VZ2MOg8mow30SnVLYiVBAFOAovvKCicJIndQCJHgIo6VFnN-nVQhI-gsg-nv6jUPsdu4KFyUGFCf0BCw1Qk1gBMQ7bmQ55PgHSaXex5rgXXlxPeYymzNgxpUOnjRHkk2e8DNc-UKJX6-OcmZDLfWc1k4hKGuxSuMFL7z5pSsTjc-bxL6SOw7LrVWTNvim72uN_NQGxQ1Adnmn5ZfQWKsV2wjIwMhpTZ57Xb4DGH265kRPgrgTJQRLOgJvL2BYZPH5LKruHbbR1K2hw4Go4NfVdSojwWoTsyIakUkynnC5iSK_10wMkGkwxdz9ukZd6ZLLaufV_5BJYmw-sirC5mW7ybOsiLt3vwwCkB2dxp4KNd4CmolrH5brS9AUWCOQ1txeoNuRT3hBfVj82XMLvkVCOxrR0XdVCe3OMHg2qrfdPEfpEuoHmNurVBwtggpK3oH0hWAGQx2kLQES51ePzfCtB6Sn_BhYeF7096qutnK4JgffXX5Yxkic876ntXzFKDpcySUy3R6kHp5X4RD9gCYYf1AYLjjdiV8CAP4RTpFS3-luNJbo72pW5kgQs6G0bVHjNAW2LSySeqbTuZKvtBxFDhTbnpDOZd1tHz-MgVmlEUSoZIFFJyG5zZFU-qGlmDEby_Mbe4HiDgjWxZN1-l4W6hCbN0tM0TwcbjjdQInJqHNtqMcbp-uMlgcUivJL13et0Y4lj5tn2LHDUKozdZIlpYyzx7xPVzp__GRBtswFR6TPDxaajgOdcNmCtN_uZrKFcViBHNyiiFHveU_Ol_Dv-h7k-o_xAThRTCrisMtVEbaBvtifPFzhpiPdL3s8zrhYiQL7zGhZLgZMQdNTounX01Jg3Vfpw_LUDDgDg5z4Wp06UoodTxf0B8Yub1criXHxgZVPQuEu29NLYROyZSxw_n-Bu0JDPL6-_x6pZxrLWPlNfUFfIL8Gx70fnvRjaGw8RJxeMx1ny6xyg-iIxqfvn7vHiNQz8zipO9qmTy0]--></g></svg>